<?xml version="1.0" encoding="UTF-8" standalone="no"?>
<!-- Created with Inkscape (http://www.inkscape.org/) -->

<svg
   version="1.1"
   id="svg2601"
   xml:space="preserve"
   width="682.66669"
   height="682.66669"
   viewBox="0 0 682.66669 682.66669"
   xmlns="http://www.w3.org/2000/svg"
   xmlns:svg="http://www.w3.org/2000/svg"><defs
     id="defs2605"><clipPath
       clipPathUnits="userSpaceOnUse"
       id="clipPath2615"><path
         d="M 0,512 H 512 V 0 H 0 Z"
         id="path2613" /></clipPath></defs><g
     id="g2607"
     transform="matrix(1.3333333,0,0,-1.3333333,0,682.66667)"><g
       id="g2609"><g
         id="g2611"
         clip-path="url(#clipPath2615)"><g
           id="g2617"
           transform="translate(433.9365,429.4673)"><path
             d="m 0,0 45.962,-77.23 5.749,-1.153 C 39.966,-49.979 22.733,-23.313 0,0"
             style="fill:#78ad63;fill-opacity:1;fill-rule:nonzero;stroke:none"
             id="path2619" /></g><g
           id="g2621"
           transform="translate(460.8135,394.501)"><path
             d="m 0,0 c 0.354,-0.58 0.7,-1.167 1.04,-1.761 7.537,-12.813 13.541,-26.396 18.045,-40.503 l -59.913,12.056 -55.692,55.692 -13.209,65.662 c 29.324,-12.127 56.795,-30.095 80.631,-53.931 0.75,-0.75 1.486,-1.499 2.221,-2.249 C -16.454,24.19 -7.502,12.466 0,0"
             style="fill:#9ac470;fill-opacity:1;fill-rule:nonzero;stroke:none"
             id="path2623" /></g><g
           id="g2625"
           transform="translate(485.6455,351.0801)"><path
             d="m 0,0 c -1.974,3.972 -4.995,7.5 -9.012,10.555 l -38.552,-228.114 4.169,-42.011 C 20.921,-186.883 35.387,-85.569 0,0"
             style="fill:#fac75a;fill-opacity:1;fill-rule:nonzero;stroke:none"
             id="path2627" /></g><g
           id="g2629"
           transform="translate(476.6338,361.6353)"><path
             d="M 0,0 C -9.687,7.367 -25.2,11.963 -46.043,13.262 L -56.476,-47.51 -38.553,-228.114 C 13.122,-158.167 26.662,-71.418 0,0"
             style="fill:#fce06f;fill-opacity:1;fill-rule:nonzero;stroke:none"
             id="path2631" /></g><g
           id="g2633"
           transform="translate(442.251,91.5103)"><path
             d="M 0,0 C 19.874,24.858 28.072,57.376 25.673,93.148 L -270.426,-69.363 c 87.721,-31.508 189.613,-12.139 259.891,58.138 C -6.88,-7.57 -3.38,-3.82 0,0"
             style="fill:#fc7c49;fill-opacity:1;fill-rule:nonzero;stroke:none"
             id="path2635" /></g><g
           id="g2637"
           transform="translate(410.5029,101.4971)"><path
             d="M 0,0 C 24.995,24.995 44.166,53.363 57.421,83.161 54.676,124.08 38.062,169.257 9.167,212.109 L -51.021,200.833 -234.926,-73.749 C -157.106,-91.958 -66.594,-66.594 0,0"
             style="fill:#fc954c;fill-opacity:1;fill-rule:nonzero;stroke:none"
             id="path2639" /></g><g
           id="g2641"
           transform="translate(351.0781,485.647)"><path
             d="m 0,0 c 13.552,-6.733 21.98,-25.57 23.817,-55.055 l -60.771,-10.432 -222.615,22.092 C -186.882,20.92 -85.568,35.387 0,0"
             style="fill:#67e9e7;fill-opacity:1;fill-rule:nonzero;stroke:none"
             id="path2643" /></g><g
           id="g2645"
           transform="translate(91.5088,442.252)"><path
             d="M 0,0 C 53.293,42.608 141.783,31.574 222.096,-22.58 L 210.82,-82.768 -69.363,-270.426 c -31.508,87.721 -12.139,189.614 58.138,259.891 C -7.57,-6.88 -3.82,-3.379 0,0"
             style="fill:#60b5d6;fill-opacity:1;fill-rule:nonzero;stroke:none"
             id="path2647" /></g><g
           id="g2649"
           transform="translate(81.4961,79.106)"><path
             d="m 0,0 c 26.503,-26.15 57.415,-45.137 90.328,-56.958 7.054,-1.984 15.07,-1.394 23.894,1.899 z"
             style="fill:#db4f84;fill-opacity:1;fill-rule:nonzero;stroke:none"
             id="path2651" /></g><g
           id="g2653"
           transform="translate(359.4824,302.3301)"><path
             d="m 0,0 -57.153,57.154 c -96.837,-23.801 -199.395,-73.587 -250.761,-124.952 -24.814,-24.814 -34.023,-46.343 -29.423,-62.705 12.002,-33.414 31.37,-64.773 58.138,-91.542 0.4,-0.4 0.811,-0.782 1.213,-1.179 31.578,-31.037 71.522,-49.273 114.221,-55.059 11.644,4.346 24.696,13.406 38.813,27.523 C -73.586,-199.395 -23.802,-96.836 0,0"
             style="fill:#f25e91;fill-opacity:1;fill-rule:nonzero;stroke:none"
             id="path2655" /></g><g
           id="g2657"
           transform="translate(409.0635,409.0654)"><path
             d="m 0,0 -84.853,-84.853 c 29.29,-29.289 72.029,-34.038 95.46,-10.606 C 34.038,-72.028 29.29,-29.29 0,0"
             style="fill:#fbf0a8;fill-opacity:1;fill-rule:nonzero;stroke:none"
             id="path2659" /></g><g
           id="g2661"
           transform="translate(398.457,334.8193)"><path
             d="m 0,0 c 23.432,23.431 28.181,56.672 10.606,74.246 -29.289,29.29 -72.027,34.038 -95.459,10.607 -23.431,-23.432 -18.682,-66.17 10.607,-95.46 C -56.673,-28.18 -23.432,-23.432 0,0"
             style="fill:#fffbdb;fill-opacity:1;fill-rule:nonzero;stroke:none"
             id="path2663" /></g><g
           id="g2665"
           transform="translate(256,7.5)"><path
             d="M 0,0 C -137.243,0 -248.5,111.257 -248.5,248.5 -248.5,385.743 -137.243,497 0,497 137.243,497 248.5,385.743 248.5,248.5 248.5,111.257 137.243,0 0,0 Z"
             style="fill:none;stroke:#000000;stroke-width:15;stroke-linecap:round;stroke-linejoin:round;stroke-miterlimit:10;stroke-dasharray:none;stroke-opacity:1"
             id="path2667" /></g><g
           id="g2669"
           transform="translate(419.6709,313.605)"><path
             d="m 0,0 c -23.432,-23.432 -66.17,-18.683 -95.459,10.606 -29.289,29.29 -34.038,72.029 -10.606,95.46 23.43,23.432 66.169,18.683 95.459,-10.607 C 18.683,66.17 23.432,23.432 0,0 Z"
             style="fill:none;stroke:#000000;stroke-width:15;stroke-linecap:round;stroke-linejoin:round;stroke-miterlimit:10;stroke-dasharray:none;stroke-opacity:1"
             id="path2671" /></g><g
           id="g2673"
           transform="translate(485.6455,351.0791)"><path
             d="M 0,0 C -6.732,13.552 -25.569,21.98 -55.054,23.816"
             style="fill:none;stroke:#000000;stroke-width:15;stroke-linecap:round;stroke-linejoin:round;stroke-miterlimit:10;stroke-dasharray:none;stroke-opacity:1"
             id="path2675" /></g><g
           id="g2677"
           transform="translate(351.0791,485.646)"><path
             d="M 0,0 C 13.552,-6.733 21.98,-25.57 23.816,-55.055"
             style="fill:none;stroke:#000000;stroke-width:15;stroke-linecap:round;stroke-linejoin:round;stroke-miterlimit:10;stroke-dasharray:none;stroke-opacity:1"
             id="path2679" /></g><g
           id="g2681"
           transform="translate(442.251,91.5093)"><path
             d="M 0,0 C 42.608,53.293 31.573,141.783 -22.58,222.096"
             style="fill:none;stroke:#000000;stroke-width:15;stroke-linecap:round;stroke-linejoin:round;stroke-miterlimit:10;stroke-dasharray:none;stroke-opacity:1"
             id="path2683" /></g><g
           id="g2685"
           transform="translate(91.5093,442.251)"><path
             d="M 0,0 C 53.293,42.608 141.783,31.574 222.096,-22.58"
             style="fill:none;stroke:#000000;stroke-width:15;stroke-linecap:round;stroke-linejoin:round;stroke-miterlimit:10;stroke-dasharray:none;stroke-opacity:1"
             id="path2687" /></g><g
           id="g2689"
           transform="translate(171.8257,22.1465)"><path
             d="m 0,0 c 16.363,-4.601 37.892,4.608 62.706,29.423 51.365,51.365 101.15,153.924 124.952,250.76"
             style="fill:none;stroke:#000000;stroke-width:15;stroke-linecap:round;stroke-linejoin:round;stroke-miterlimit:10;stroke-dasharray:none;stroke-opacity:1"
             id="path2691" /></g><g
           id="g2693"
           transform="translate(302.3291,359.4834)"><path
             d="M 0,0 C -50.492,-12.411 -102.526,-31.895 -148.061,-54.975"
             style="fill:none;stroke:#000000;stroke-width:15;stroke-linecap:round;stroke-linejoin:round;stroke-miterlimit:10;stroke-dasharray:none;stroke-opacity:1"
             id="path2695" /></g><g
           id="g2697"
           transform="translate(127.7236,290.2314)"><path
             d="m 0,0 c -30.561,-17.495 -56.94,-36.486 -76.154,-55.7 -24.815,-24.814 -34.024,-46.343 -29.423,-62.706"
             style="fill:none;stroke:#000000;stroke-width:15;stroke-linecap:round;stroke-linejoin:round;stroke-miterlimit:10;stroke-dasharray:none;stroke-opacity:1"
             id="path2699" /></g></g></g></g></svg>
