<?xml version="1.0" encoding="UTF-8"?>
<svg id="Layer_2" xmlns="http://www.w3.org/2000/svg" viewBox="0 0 1590.29 3526.91">
  <defs>
    <style>
      .cls-1 {
        fill: #461d14;
      }

      .cls-2 {
        fill: #ed3b66;
      }

      .cls-3 {
        fill: #963378;
      }

      .cls-4 {
        fill: #18b29c;
      }

      .cls-5 {
        opacity: .11;
      }

      .cls-6 {
        fill: #f9feff;
      }

      .cls-7 {
        opacity: .36;
      }

      .cls-7, .cls-8, .cls-9 {
        fill: #fff;
      }

      .cls-10 {
        fill: #fff8b3;
      }

      .cls-11 {
        fill: #541000;
        opacity: .21;
      }

      .cls-12 {
        fill: #c4735b;
      }

      .cls-13 {
        fill: #e0956c;
      }

      .cls-14 {
        fill: #ed94d6;
      }

      .cls-15 {
        fill: #ffc19f;
      }

      .cls-16 {
        fill: #d844b5;
      }

      .cls-17 {
        fill: #330a02;
      }

      .cls-18 {
        fill: #752912;
      }

      .cls-19 {
        fill: #ffbbf2;
      }

      .cls-20 {
        fill: #960c0c;
        opacity: .19;
      }

      .cls-21 {
        fill: #701608;
      }

      .cls-22 {
        fill: #7c3929;
      }

      .cls-9, .cls-23 {
        opacity: .35;
      }

      .cls-24 {
        fill: #ed457d;
      }

      .cls-25 {
        fill: #b52652;
      }

      .cls-26 {
        fill: #ff9797;
      }

      .cls-27 {
        fill: #6d261d;
        opacity: .2;
      }

      .cls-28 {
        fill: #150028;
        opacity: .5;
      }

      .cls-29 {
        fill: #ffc19f;
      }

      .cls-30 {
        fill: #fefffe;
      }

      .cls-31 {
        fill: #f93d77;
      }

      .cls-32 {
        fill: #677a7a;
      }

      .cls-33 {
        fill: #f78ded;
      }

      .cls-34 {
        fill: #dd6b5b;
      }
    </style>
  </defs>
  <g id="background">
    <g id="DONE">
      <path class="cls-18" d="M1408.16,1198.29c7.12-23.84,122.93-76.62,108.64-309.81-39.4-37.24-1236.92-37.24-1276.31,0-14.3,233.19,105.93,285.07,108.63,309.81,2.6,23.91-25.96,33.1-43.54,14.21-10.11,23.79,1.58,59.68,21.57,74.56,33.84,25.2,74.61,29.57,114.27,10.44-8.49,66.24,254.1,118.09,432.96,120.08,193.76,2.16,449.95-53.84,441.46-120.08,39.67,19.13,81.56,13.02,114.27-10.44,21.7-15.55,33.24-61.93,24.13-70.93-17.57,18.89-55.51,13.75-46.09-17.84Z"/>
      <g>
        <ellipse class="cls-5" cx="893.98" cy="3471.8" rx="658.4" ry="55.11"/>
        <path class="cls-15" d="M1006.06,3338.74c.55,5.81,189.68-1.36,189.94-8.43,2.26-61.51-.39-874.32.26-909.98l-269.91,84.27c7.38,60.87,75.77,792.16,79.71,834.15Z"/>
        <path class="cls-15" d="M781.6,3338.74c-.55,5.81-189.68-1.36-189.94-8.43-2.26-61.51.39-874.32-.26-909.98l269.91,84.27c-7.37,60.87-75.76,792.16-79.71,834.15Z"/>
        <g>
          <path class="cls-3" d="M315.39,2591.11c11.23,10.71,98.03,52.87,105.04,56.87-1.76,3.53-5.33,21.13-8.84,28.88,113.14,60.02,289.4,86.51,450.28,85.25,238.81-1.87,349.56-37.9,527.04-125.68-1.97-3.64-11.92-26.08-12.39-28.31,4.38-1.08,82.94-40.45,93.75-47.03,0,0-180.36-317.23-208.14-359.36-197.76,32.47-601.28,43.02-759.6,5.18-34.12,74.46-152.84,317.36-187.14,384.19Z"/>
          <polygon class="cls-28" points="383.05 2629.09 420.43 2647.98 490.63 2416.08 383.05 2629.09"/>
          <polygon class="cls-28" points="1376.3 2609.41 1406.86 2593.65 1266.65 2355.98 1376.3 2609.41"/>
          <path class="cls-23" d="M471.33,2270.07c228.97,87.07,586.86,87.64,817.53-20.92-5.25-11.39-12.57-23.43-19.02-37.73-143.5-16.58-614.81-14.38-769.54,1-5.33,15.24-16.32,31.07-28.97,57.64Z"/>
        </g>
        <g>
          <path class="cls-24" d="M820.05,3101.79c-1.16,7.87-2.15,14.76-2.77,19.35l-27.31-1.17c.4-12.15,10.59-21.9,22.75-21.49,2.9.09,4.83,2.22,7.33,3.32ZM657.92,3115.47l-44.01-1.5c.4-12.15,10.58-21.72,22.74-21.32,12.15.4,21.68,10.66,21.28,22.82ZM613.9,3113.96l-36.36-1.24-.61-15.64c4.11-3.81,9.65-6.09,15.69-5.9,12.15.4,21.68,10.62,21.28,22.78ZM701.93,3116.97l-44.01-1.5c.4-12.16,10.58-21.77,22.74-21.37,12.16.41,21.68,10.71,21.28,22.87ZM745.95,3118.47l-44.02-1.5c.4-12.16,10.59-21.81,22.75-21.41,12.15.4,21.67,10.75,21.27,22.91ZM789.97,3119.97l-44.01-1.5c.4-12.15,10.59-21.85,22.75-21.45,12.15.4,21.67,10.8,21.27,22.95Z"/>
          <path class="cls-10" d="M787.81,3351.49c-1,6.36-207.85-8.53-208.51-16.3-5.45-64.83-1.59-198.12-1.76-222.47l239.73,8.42c-9.08,67.07-23.03,189.61-29.47,230.35Z"/>
          <path class="cls-10" d="M612.67,3216c3.35-15.27,146.07,10.42,172.06,5.85.69,35.31,21.05,92.22,20.06,140.2-.69,33.4-28.46,57.82-58.99,63.35-117.87,21.37-429.45,85.73-443.12-.82-11.21-71.03,174.73-124.99,309.98-208.58Z"/>
          <path class="cls-31" d="M804.32,3277.65c-2.12-2.64-8-2.89-12.37,1.38-28.77,16.75-74.48,33.96-112.18,45.61-12.84,3.97-25.58,7-38.09,9.24-12.24-37.06-43.96-81.39-73.13-99.57-6.11-3.82-13.89-1.62-17.45,4.81-3.56,6.44-1.5,14.76,4.58,18.53,22.49,13.99,48.31,49.45,59.9,79.3-78.46,9.74-138.46,8.86-167.51-41.47-91.05,53.2-186.18,71.22-183.68,132.06,3.07,74.73,541.89,3.86,541.89,3.86-1.06-44.94-.67-113.33-1.96-153.76Z"/>
          <path class="cls-25" d="M807.16,3404.23c-.12,9.98-.16,19.62.03,28.17,0,0-466.01,84.49-538.39,17.71-2.59-2.39-5.54-14.31-4.23-18.15,130.38,29.38,424.51-9.75,542.59-27.73Z"/>
          <path class="cls-24" d="M577.13,3147.66c97.44,7.71,139,8.02,235.64,8.07l1.29-10.14c-97.51-.05-138.8-.32-236.79-8.06l-.15,10.13Z"/>
        </g>
        <g>
          <path class="cls-24" d="M967.08,3101.79c1.15,7.87,2.15,14.76,2.76,19.35l27.31-1.17c-.4-12.15-10.58-21.9-22.75-21.49-2.9.09-4.83,2.22-7.33,3.32ZM1129.2,3115.47l44.02-1.5c-.4-12.15-10.59-21.72-22.74-21.32-12.15.4-21.68,10.66-21.28,22.82ZM1173.22,3113.96l36.36-1.24.61-15.64c-4.11-3.81-9.64-6.09-15.69-5.9-12.15.4-21.67,10.62-21.28,22.78ZM1085.19,3116.97l44.01-1.5c-.4-12.16-10.58-21.77-22.74-21.37-12.15.41-21.68,10.71-21.28,22.87ZM1041.17,3118.47l44.01-1.5c-.4-12.16-10.58-21.81-22.75-21.41-12.15.4-21.67,10.75-21.27,22.91ZM997.15,3119.97l44.02-1.5c-.4-12.15-10.59-21.85-22.75-21.45-12.15.4-21.67,10.8-21.28,22.95Z"/>
          <path class="cls-10" d="M999.32,3351.49c1,6.36,207.85-8.53,208.5-16.3,5.45-64.83,1.6-198.12,1.76-222.47l-239.73,8.42c9.09,67.07,23.03,189.61,29.47,230.35Z"/>
          <path class="cls-10" d="M1174.45,3216c-3.35-15.27-146.07,10.42-172.05,5.85-.7,35.31-21.05,92.22-20.06,140.2.68,33.4,28.45,57.82,58.98,63.35,117.87,21.37,429.46,85.73,443.12-.82,11.22-71.03-174.73-124.99-309.98-208.58Z"/>
          <path class="cls-31" d="M982.8,3277.65c2.12-2.64,8-2.89,12.36,1.38,28.77,16.75,74.49,33.96,112.19,45.61,12.84,3.97,25.57,7,38.08,9.24,12.25-37.06,43.97-81.39,73.14-99.57,6.1-3.82,13.89-1.62,17.45,4.81,3.56,6.44,1.5,14.76-4.59,18.53-22.49,13.99-48.31,49.45-59.9,79.3,78.46,9.74,138.47,8.86,167.52-41.47,91.04,53.2,186.17,71.22,183.68,132.06-3.07,74.73-541.89,3.86-541.89,3.86,1.06-44.94.66-113.33,1.96-153.76Z"/>
          <path class="cls-25" d="M979.96,3404.23c.13,9.98.17,19.62-.03,28.17,0,0,466.01,84.49,538.39,17.71,2.59-2.39,5.54-14.31,4.23-18.15-130.38,29.38-424.51-9.75-542.59-27.73Z"/>
          <path class="cls-24" d="M1209.99,3147.66c-97.44,7.71-138.99,8.02-235.64,8.07l-1.3-10.14c97.51-.05,138.8-.32,236.79-8.06l.15,10.13Z"/>
        </g>
      </g>
      <path class="cls-16" d="M248.93,1583.06c69.56-42.11,245.73-161.76,278.51-175.74,12.28-5.24,89.61-20.01,175.21-23.51-24.57,67.81-38.16,273.69-71.68,334.6-3.54,6.42-160.07,87.16-213.03,112.6-43.39-40.19-143.75-196.29-169.01-247.96Z"/>
      <path class="cls-15" d="M1356.77,2079.01c-6.95,8.71-112.88-66.25-106.65-75.51,93.18-138.28,215.43-374.98,235.9-417.86,0,0,103.1,72.19,104.25,162.35.92,71.79-141.68,215.96-233.51,331.02Z"/>
      <path class="cls-16" d="M1515.59,1596.34c-37.76,54.38-107.17,167.44-151.6,213.66-48.25-19.76-142.86-59.93-151.52-64.12-79.21-104.36-123.99-354.67-126.12-360.86,90.7,10.66,136.15,22.25,162.5,31.01,58.54,38.51,166.83,109.11,266.74,180.32Z"/>
      <path class="cls-16" d="M465.8,2231.68c201.56,118.96,630.67,108.16,839.99-9.86,0,0-79.32-659.96-110.71-816.32-76.14-21.01-179.52-37.83-286.91-38.93-131.62-1.36-271.87,20.99-357.31,35.53-22.5,199.49-58.7,534.96-85.05,829.59Z"/>
      <path class="cls-33" d="M1299.14,2167.07c-207.35,115.13-624.58,126.47-828.6,13.04-1.58,17.18-3.22,34.62-4.74,51.56,201.57,118.96,630.67,108.16,839.99-9.86l-6.65-54.75Z"/>
      <g>
        <path class="cls-19" d="M854.7,1695.12c-51.81,40.78-96.02,53.03-113.48,41.94-27.59-17.52-30.05-100.02-1.98-123.53,28.12-23.56,94.23,15.05,117.62,38.51,15.77,15.82,14.48,29.97-2.16,43.08Z"/>
        <path class="cls-14" d="M850.97,1668.95c-13.95-9.05-63.25-34.93-64.03,0-.83,37.48,51.48,10.16,64.03,0Z"/>
        <path class="cls-19" d="M892.49,1695.68c50.59,42.29,94.42,55.83,112.2,45.25,28.09-16.7,32.97-99.09,5.61-123.41-27.42-24.38-94.63,12.27-118.7,35.04-16.22,15.34-15.36,29.53.9,43.12Z"/>
        <path class="cls-14" d="M896.98,1669.63c14.21-8.64,64.25-33.05,64,1.89-.27,37.49-51.75,8.64-64-1.89Z"/>
        <path class="cls-19" d="M842.28,1668.1c-.3,20.05,13.18,36.5,30.09,36.75,16.91.25,30.86-15.8,31.16-35.85.3-20.05-13.18-36.5-30.09-36.75s-30.87,15.8-31.16,35.85Z"/>
      </g>
      <path class="cls-15" d="M1065.48,1405.11c.3-10.11-1.49-17.86-4.06-27.4-116.39-17.27-259.59-7.42-370.53,3.06-.78,4.37-2.58,8.47-2.71,13-2.35,78.15,80.2,144.04,184.39,147.17,104.19,3.13,190.56-57.68,192.9-135.83Z"/>
      <path class="cls-15" d="M1014.21,1188.12l-2.39,220.62c-.51,47.44-61.22,85.25-135.6,84.45-74.38-.81-134.25-39.93-133.73-87.37l2.18-220.87,269.55,3.18Z"/>
      <path class="cls-20" d="M1057.6,1369.17c-54.21,78.46-180.35,85.27-281.75,15.22-101.41-70.06-139.67-190.45-85.47-268.91,54.2-78.46,180.34-85.27,281.75-15.22,101.41,70.06,139.67,190.45,85.47,268.9Z"/>
      <g>
        <path class="cls-15" d="M214.8,980c32.7,122.24,152.28,198.33,241.72,185.75,89.44-12.59,105.94-113.19,89.37-231.08-16.59-117.88-102.59-203.53-191.99-190.66-122.19,17.62-169.82,121.09-139.11,235.99Z"/>
        <path class="cls-13" d="M326.83,1009.14c7.28,51.69,50.14,88.39,95.73,81.98,45.56-6.42,76.62-53.52,69.33-105.2-7.27-51.69-50.11-88.38-95.69-81.97-45.58,6.41-76.63,53.52-69.37,105.2Z"/>
        <path class="cls-15" d="M1546.43,981.7c-32.37,122.32-151.79,198.71-241.26,186.35-89.47-12.36-106.22-112.92-89.95-230.85,16.29-117.92,102.08-203.8,191.52-191.14,122.24,17.31,170.12,120.66,139.69,235.64Z"/>
        <path class="cls-13" d="M1432.05,1007.75c-7.14,51.71-49.9,88.51-95.49,82.22-45.59-6.3-76.77-53.32-69.63-105.03,7.15-51.71,49.9-88.51,95.49-82.21,45.6,6.29,76.78,53.32,69.63,105.02Z"/>
        <path class="cls-18" d="M1465.44,565.44c-1.94,361.29-240.03,522.53-572.23,520.75-332.2-1.78-596.08-165.55-594.14-526.85,1.93-361.29,284.91-463.18,577.32-466.83,300.43-3.74,590.99,111.62,589.05,472.92Z"/>
        <path class="cls-15" d="M1354.98,546.59c-56.57-195.61-247.06-251.25-479.22-252.65l-2.56-.09c-232.16,1.4-422.65,57.14-479.22,252.74-47.38,163.83,8.7,517.63,73.7,621.89,54.93,88.1,251.73,180.59,402.11,178.97,1.5-.02,3.12-.25,4.69-.38,1.56.13,3.19.36,4.69.38,150.37,1.61,347.18-90.87,402.11-178.97,64.99-104.26,121.07-458.06,73.7-621.89Z"/>
        <path class="cls-26" d="M481.37,1015.76c-1.57,23.32,29.57,44.42,69.56,47.11,39.98,2.7,73.67-14.03,75.24-37.35,1.57-23.32-29.57-44.41-69.55-47.1-39.99-2.7-73.68,14.03-75.25,37.35Z"/>
        <path class="cls-26" d="M1147.94,1027.63c1.7,23.32,35.48,39.85,75.46,36.94,39.96-2.91,70.99-24.17,69.29-47.49s-35.49-39.85-75.44-36.94c-39.98,2.91-71,24.17-69.3,47.49Z"/>
        <g>
          <path class="cls-21" d="M1057.57,1064.92c-7.68-40.04-69.23-29.67-169.77-30.34-5.27-.04-25.72-.04-30.98,0-100.53.67-162.09-9.7-169.76,30.34-14.8,77.15,82.26,161.41,184.37,161.71h1.77c102.1-.3,199.16-84.56,184.37-161.71Z"/>
          <path class="cls-34" d="M873.19,1228.24h-1.77c-33.11-.12-67.45-9.51-99.41-27.08l-1.95-1.03,1.64-1.47c26.53-23.78,62.27-36.9,100.63-36.9s74.03,13.11,100.63,36.9l1.64,1.47-1.95,1.03c-32.02,17.57-66.42,26.96-99.47,27.08Z"/>
          <path class="cls-8" d="M872.33,1086.02c-70.26,0-128.74-21.77-136.06-50.67l-.42-1.77h272.97l-.42,1.77c-7.38,28.91-65.86,50.67-136.06,50.67Z"/>
        </g>
        <path class="cls-12" d="M912.91,983.11c-2.66,0-5.01-1.92-5.47-4.63-3.2-19.27-18.44-31.72-38.82-31.72-20.5,0-36.09,12.71-38.78,31.62-.44,3.03-3.26,5.14-6.28,4.7-3.03-.43-5.14-3.24-4.71-6.27,3.46-24.21,23.92-41.13,49.76-41.14,25.69-.01,45.69,16.46,49.77,40.98.5,3.03-1.54,5.88-4.56,6.38l-.92.07Z"/>
        <path class="cls-17" d="M1244.92,604.13c-3.71-.48-7.25-2.27-9.88-5.31-33.53-38.71-104.27-57.38-164.68-43.31-8.38,1.99-16.86-3.26-18.86-11.75-1.96-8.44,3.28-16.87,11.75-18.86,72.07-16.73,154.34,5.72,195.54,53.39,5.68,6.56,4.95,16.47-1.61,22.14-3.51,3.05-7.99,4.25-12.27,3.7Z"/>
        <path class="cls-17" d="M497.02,612.79c-4.3.39-8.74-.96-12.13-4.15-6.36-5.91-6.71-15.84-.8-22.19,42.96-46.14,125.97-65.55,197.36-46.22,8.39,2.29,13.33,10.91,11.05,19.28-2.29,8.4-10.93,13.34-19.27,11.05-59.84-16.28-131.27-.26-166.15,37.27-2.72,2.94-6.33,4.6-10.06,4.95Z"/>
        <g>
          <path class="cls-6" d="M1010.12,794.26c-38.73,56.09-34.02,118.05-.25,141.7,50.89,35.63,171.38,46.17,216.4-4.93,43.61-49.51,22.68-140.08-48.25-179.26-62.09-34.3-130.41-11.8-167.9,42.49Z"/>
          <path class="cls-22" d="M1234.59,779.31c-55.16-87.35-188.16-58.27-225.77,16.85,38.7-56.07,110.07-72.95,167.47-41.27,35.48,19.6,60.66,54.36,67.38,92.98,5.35,30.79-1.79,65.28-19.9,85.84,20.83-13.39,51.37-90.17,10.81-154.4Z"/>
          <path class="cls-1" d="M1024.27,831.64c-15.9,38.9,2.75,83.32,41.65,99.2,38.9,15.9,83.32-2.75,99.21-41.65,15.9-38.9-2.75-83.31-41.65-99.2-38.9-15.9-83.32,2.75-99.21,41.65Z"/>
          <path class="cls-30" d="M1030.48,824.95c-4.41,10.79.76,23.12,11.55,27.52,10.79,4.42,23.12-.76,27.52-11.55,4.41-10.79-.76-23.12-11.55-27.52-10.79-4.41-23.12.76-27.52,11.55Z"/>
        </g>
        <g>
          <path class="cls-6" d="M744.34,791.77c37.7,56.79,31.86,118.66-2.34,141.69-51.53,34.7-172.2,43.03-216.27-8.89-42.7-50.29-20.12-140.48,51.52-178.35,62.71-33.16,130.61-9.41,167.1,45.55Z"/>
          <path class="cls-22" d="M520.19,772.72c56.74-86.32,189.19-54.82,225.42,20.98-37.67-56.76-108.71-74.95-166.69-44.32-35.84,18.95-61.65,53.25-69.06,91.74-5.91,30.69.59,65.3,18.32,86.19-20.58-13.77-49.71-91.1-7.98-154.58Z"/>
          <circle class="cls-1" cx="658.57" cy="856.37" r="76.08" transform="translate(-280.14 321.66) rotate(-22.77)"/>
          <path class="cls-30" d="M594.35,820.91c-4.41,10.79.77,23.12,11.55,27.52,10.79,4.41,23.12-.76,27.52-11.55,4.42-10.79-.76-23.12-11.55-27.52-10.79-4.42-23.12.76-27.52,11.55Z"/>
        </g>
        <path class="cls-18" d="M1517.83,746.75c39.5,1.74,31.33,46.8-8.33,36.88-36.26-9.07-48.55-107.63-47.98-110.24,23.79,47.98,66.34,37.27,78.08,31.48,16.54-8.15,21.62-26.22,16.7-42.07-3.53-11.45-14.51-20.79-26.47-19.32-18.3,2.26-19.54,22.1-14.67,26.39,3.66-15.12,23.51-13.68,26.52-2.33,7.02,26.52-24.41,29.67-35.76,24.9-13.73-5.75-32.68-25.39-41.26-108.38,10.79-174.92-86.28-350.03-326.5-356.91-41.48-1.19-110.83,30.25-158.1,35.82,222.66,42.67,315.81,108.41,362.34,228.93,54.77,141.84-106.63,439.12,110.36,461.86-30.09.62-47.26-47.19-46.43-68.59,95.91,42.26,155.86,4.04,172.52-37.95,19.34-48.75-17.8-127.67-61.04-100.48Z"/>
        <path class="cls-18" d="M259.12,464.92c-21.37,44.92-51.23,60.81-83.08,58.29-23.65-1.87-47.3-36.23-7.38-66.58-48.83,19.63-37.85,64.96-12.14,79.7,23.26,13.33,69.54,11.28,99.85-27.41-.33,19.16.04,39.02,1.89,60.33,9.34,107.64-13.81,142.83-39.91,147.35-29.74,5.16-40.12-42.77-.58-43.63-42.63-28.14-104.48,25.29-81.4,97,15.65,48.62,101.5,89.78,164.31,20.29,61.64,54.09,13.81,106.51-45.27,92.38,56.89,53.26,149.59,38.72,172.02-75.35,19.95-101.46-35.17-145.94-25.22-281.44,9.69-131.9,239.82-336.44,368.96-371.73-304.41-10.53-492.59,79.88-512.05,310.79Z"/>
        <path class="cls-18" d="M1244.5,89.3c-4.66,23.38-20.39,48.15-46.46,42.52,27.44-77.07-12.76-114.77-52.87-127.84-50.26-16.37-113.48,20.3-88.76,61.47,4.28-40.56,62.32-25.99,47.55,13.02-10.35,27.33-90.43,17.01-176.6,9.61-110.25-9.46-452.19-20.32-520.23,173.28,27.04,2.38,93.04,51.73,113.16,67.88,18.59,14.92,163.95,182.23,403.57,180.94-50.36-14.97-203.03-46.35-327.44-162.09,34.54,20.47,83.13,53.13,140.16,66.24,464.41,106.78,548.47-238.22,507.92-325.04Z"/>
        <path class="cls-2" d="M1381.34,500.8c35.99-3.96,64.04-17.51,62.63-30.24s-31.72-19.84-67.72-15.88c-35.99,3.96-64.04,17.51-62.63,30.24s31.72,19.85,67.72,15.88ZM1389.82,524.38c-35.99,3.96-64.04,17.51-62.63,30.24s31.72,19.84,67.72,15.88c35.99-3.96,64.04-17.51,62.63-30.24-1.4-12.73-31.72-19.85-67.71-15.88Z"/>
      </g>
      <path class="cls-15" d="M127.25,1351.63c-.96-11.48,134.29-62.32,136.87-51.1,47.01,205.09,118.86,446.97,121.76,491.31-44.87,51.75-146.89,73.22-203.86-32.45-35.3-65.46-42.7-263.63-54.77-407.75Z"/>
      <g>
        <path class="cls-29" d="M333.26,1175.48c4.72,87.85-4.99,123.4-32.11,164-36.5,54.66-106.91,66.01-160.4,44.07-29.26-12-68.4-48.56-116.27-139.81,51.97-18.44,143.5-122.23,230.61-140.62.4,42.62,56.05,59.21,78.17,72.36Z"/>
        <path class="cls-27" d="M223.02,1308.29c-67.98,47.9-146.43,10.71-174.5-51.75,16-5.43,100.36-121.58,158.27-133.81,59.95,5.24,47.26,79.39,67.27,75.17-39.24,18.26-65.67,60.35-51.04,110.39Z"/>
      </g>
      <g>
        <path class="cls-7" d="M751.68,1006.53c-97.84,78-240.38,61.93-318.38-35.91-78-97.84-61.93-240.39,35.91-318.39,97.84-78,240.39-61.92,318.39,35.92,78,97.84,61.93,240.39-35.92,318.38Z"/>
        <path class="cls-9" d="M808.9,743.74l-195.05,294.7c24.34-.18,48.46-4.54,71.79-13.11l139.71-211.08c-1.23-24.03-6.99-47.72-16.45-70.51ZM779.45,692.03c-10.73-13.46-23.03-24.77-36.03-34.91l-235.1,355.21c15.92,8.84,32.87,14.95,50.26,19.44l222.85-336.69c-.76-.98-1.2-2.09-1.97-3.05ZM620.59,612.53l-201.38,304.26c6.92,14.61,15.13,28.8,25.65,41.98,12.44,15.61,27.08,28.17,42.51,39.32l235.1-355.21c-31.19-18.84-66.15-28.91-101.88-30.35Z"/>
        <path class="cls-32" d="M801.82,673.82c-83.61-104.87-236.4-122.11-341.27-38.5-104.87,83.61-122.1,236.4-38.49,341.27,83.61,104.87,236.4,122.1,341.26,38.49,104.87-83.61,122.11-236.4,38.5-341.26ZM445.72,957.72c-73.19-91.8-58.1-225.55,33.69-298.73,91.8-73.19,225.55-58.1,298.73,33.7,73.19,91.8,58.1,225.54-33.7,298.73-91.8,73.19-225.54,58.1-298.73-33.69Z"/>
        <polygon class="cls-32" points="369.25 1064.22 336.52 1023.18 416.89 959.1 449.61 1000.15 369.25 1064.22"/>
        <path class="cls-4" d="M58.71,1333.74s-22.99,11.79-46.66-19.66c-22.11-29.39-7.04-47.69-7.04-47.69l325.98-259.89,53.69,67.35L58.71,1333.74Z"/>
      </g>
      <g>
        <path class="cls-29" d="M198.62,1141.19c17.39,40.85,16.4,79.72-2.2,86.83-18.61,7.11-47.79-20.24-65.18-61.09-17.39-40.85-16.41-79.72,2.2-86.83,18.61-7.11,47.79,20.24,65.18,61.09Z"/>
        <path class="cls-29" d="M257.33,1116.11c12.02,42.42,5.79,80.03-13.91,84.02-19.7,3.99-45.42-27.16-57.44-69.58-12.01-42.42-5.78-80.03,13.91-84.02,19.7-3.99,45.42,27.16,57.44,69.58Z"/>
        <path class="cls-29" d="M142.19,1174.43c22.15,38.8,25.23,78.64,6.9,88.99-18.33,10.35-51.15-12.71-73.28-51.52-22.15-38.8-25.23-78.64-6.9-88.99,18.34-10.35,51.15,12.71,73.29,51.52Z"/>
        <path class="cls-29" d="M95.55,1218.83c27.78,30.34,38.98,66.56,25.03,80.89-13.96,14.33-47.8,1.36-75.58-28.98-27.78-30.34-38.98-66.56-25.02-80.89,13.95-14.33,47.8-1.36,75.58,28.98Z"/>
        <path class="cls-11" d="M184.84,1153.53c-3.58,24.06,5.24,61.12,44.4,66.06,36.23,4.58,84.7-13.26,88.28-37.32,3.58-24.07-25.01-49.87-63.86-57.65-38.85-7.77-65.24,4.84-68.82,28.91Z"/>
        <path class="cls-29" d="M184.84,1153.53c-3.4,22.89,27.09,48.1,68.11,56.31,41.03,8.21,77.04-3.69,80.44-26.57,3.4-22.89-27.09-48.11-68.11-56.32-41.02-8.21-77.04,3.69-80.44,26.58Z"/>
      </g>
      <path class="cls-15" d="M1063.38,1953.06c24.44,5.96,75.25-8.36,100.9,1.03,0,0,1.5.95,2.34,1.83-52.22,5.17-94.78,28.88-135.73,41.39-10.6,57.79,63.73,18.4,142.36,3.74-46.3,15.92-75.47,32.13-107.62,41.56-23.86,24.81-12.03,41.75,20.78,35.68,25.35-4.69,69.19-20.77,114.86-30.38,4.12.95-92.81,46.18-101.27,68.65,3.55,11.4,24.07,18.18,53.76,4.38,16.06-7.47,32.61-19.17,69.68-31.04,32.39,2.34,60.86,19.76,73.91,24.31,48.91,10.76,70.84-56.3,70.69-70.29-.4-36.37-67.24-103.82-107.54-115.94-67.55-20.34-100.96-32.39-207.65-3.42-18.52,12.46-1.37,25.58,10.53,28.49Z"/>
    </g>
  </g>
</svg>