<svg height="512" viewBox="0 0 60 60" width="512" xmlns="http://www.w3.org/2000/svg"><g id="Page-1" fill="none" fill-rule="evenodd"><g id="098---RC-Truck"><g id="Icons_copy" transform="translate(1 1)"><path id="Path" d="m15.24 22.625 7.638-6.786c.3666747-.3233799.8390999-.5012508 1.328-.5h11.794c1.1032019.0032948 1.9967052.8967981 2 2v5.279" fill="#00bcd4"/><path id="Path" d="m58 38.59v2c-.0032948 1.1032019-.8967981 1.9967052-2 2h-54c-1.10320187-.0032948-1.9967052-.8967981-2-2v-2l2.17-4.34c.507189-1.015933 1.54450093-1.6584471 2.68-1.66h12.3c1.1354991.0015529 2.172811.644067 2.68 1.66l1.34 2.68c.507189 1.015933 1.5445009 1.6584471 2.68 1.66h10.3c1.1354991-.0015529 2.172811-.644067 2.68-1.66l1.34-2.68c.507189-1.015933 1.5445009-1.6584471 2.68-1.66h12.3c.6263356-.0028881 1.236773.1970828 1.74.57.4014311.2769243.725086.6522262.94 1.09z" fill="#0377bc"/><path id="Path" d="m55 24.62v8.38l-.11.16c-.503227-.3729172-1.1136644-.5728881-1.74-.57h-12.3c-1.1354991.0015529-2.172811.644067-2.68 1.66l-1.34 2.68c-.507189 1.015933-1.5445009 1.6584471-2.68 1.66h-10.3c-1.1354991-.0015529-2.172811-.644067-2.68-1.66l-1.34-2.68c-.507189-1.015933-1.5445009-1.6584471-2.68-1.66h-12.3c-1.13549907.0015529-2.172811.644067-2.68 1.66l-2.17012076 4.34.00012076-8c-.00418593-.6789475.10047476-1.3541777.31-2h5.69c1.10320187-.0032948 1.9967052-.8967981 2-2v-3.01l-.05-.24c2.651671-.514513 5.3491107-.7557747 8.05-.72h37c.530433 0 1.0391408.2107137 1.4142136.5857864.3750727.3750728.5857864.8837806.5857864 1.4142136z" fill="#02a9f4"/><path id="Path" d="m53 22.62h-3c1.1045695 0 2 .8954305 2 2v7.97h1.15c.6263356-.0028881 1.236773.1970828 1.74.57l.11-.16v-8.38c0-1.1045695-.8954305-2-2-2z" fill="#0377bc"/><path id="Path" d="m40 11.585c1.1045695 0 2 .8954305 2 2v9h-4v-9c0-1.1045695.8954305-2 2-2z" fill="#9e9e9e"/><path id="Path" d="m8 23.58v3.01c-.0032948 1.1032019-.89679813 1.9967052-2 2h-5.69c.94-2.94 4.03-4.48 7.64-5.25z" fill="#ffdf00"/><path id="Path" d="m51 28.585h4v4h-5v-3c0-.5522847.4477153-1 1-1z" fill="#f5f5f5"/><path id="Rectangle" d="m52 28.585h3v4h-3z" fill="#cfd8dc"/><rect id="Rectangle" fill="#7f8e94" height="12" rx="1" width="7" x="26" y="36.585"/><path id="Path" d="m32 36.585h-3c.5522847 0 1 .4477153 1 1v10c0 .5522847-.4477153 1-1 1h3c.5522847 0 1-.4477153 1-1v-10c0-.5522847-.4477153-1-1-1z" fill="#545c60"/><circle id="Oval" cx="55.5" cy="2.5" fill="#ef314c" r="2.5"/><path id="Path" d="m9.2 38.31.194-.286c.36115204-.5326237.9624801-.8520091 1.606-.853.644582-.0000027 1.2472516.3194984 1.609.853l.194.286 2.19.712.325-.118c.6054321-.2174252 1.2791939-.1216013 1.8.256.5212654.3790948.8208764.9917992.8 1.636l-.011.346 1.357 1.858.332.1c.6193721.1792513 1.1096524.6538007 1.309 1.267.1989783.613237.0809862 1.28523-.315 1.794l-.212.273v2.3l.212.272c.3976967.510329.515754 1.1849422.315 1.8-.1994307.6112855-.6878042 1.0846896-1.305 1.265l-.332.1-1.353 1.862.011.346c.0208764.6442008-.2787346 1.2569052-.8 1.636-.520779.3777648-1.1947857.473249-1.8.255l-.325-.117-2.19.711-.194.287c-.3642411.5343319-.9703398.8525618-1.617.849-.644582.0000027-1.24725158-.3194984-1.609-.853l-.191-.287-2.19-.711-.325.117c-.60521426.218249-1.27922102.1227648-1.8-.255-.52126539-.3790948-.82087637-.9917992-.8-1.636l.011-.346-1.36-1.862-.332-.1c-.61727869-.1809891-1.1053227-.6551852-1.304-1.267-.20075403-.6150578-.08269672-1.289671.315-1.8l.212-.272v-2.3l-.212-.273c-.39395087-.5073555-.51184778-1.1765608-.315-1.788.19758909-.6110527.68406986-1.0851844 1.3-1.267l.332-.1 1.353-1.862-.007-.338c-.02087637-.6442008.27873461-1.2569052.8-1.636.52080611-.3776013 1.1945679-.4734252 1.8-.256l.325.118z" fill="#607d8b"/><path id="Path" d="m20.378 48.737v-2.3l.212-.273c.3977891-.5082332.517255-1.1808169.3188236-1.7949521-.1984315-.6141353-.6888587-1.0896582-1.3088236-1.2690479l-.332-.1-1.353-1.862.011-.346c.020661-.6434759-.2785951-1.2554435-.7991616-1.6342557-.5205664-.3788122-1.1949131-.4753278-1.8008384-.2577443l-.325.118-2.201-.708-.194-.286c-.3429303-.5093191-.9080518-.8247237-1.5215721-.8492171s-1.20198691.2448568-1.5844279.7252171c.035.043.078.079.109.125l.194.286 2.19.712.325-.118c.6059253-.2175835 1.280272-.1210679 1.8008384.2577443.5205665.3788122.8198226.9907798.7991616 1.6342557l-.011.346 1.357 1.857.332.1c.6196024.1787985 1.1101207.653367 1.309296 1.2667227s.0810519 1.2855688-.315296 1.7942773l-.212.273v2.3l.212.273c.3963479.5087085.5144713 1.1809216.315296 1.7942773s-.6896936 1.0879242-1.309296 1.2667227l-.332.1-1.353 1.862.011.346c.0208133.6434754-.2784656 1.2554781-.7991309 1.634162-.5206653.3786838-1.1951007.4748711-1.8008691.256838l-.325-.117-2.19.711-.194.286c-.031.047-.074.082-.109.126.38265277.4813652.9720654.7512 1.5864883.726299.6144229-.0249011 1.1800669-.3415474 1.5225117-.852299l.194-.286 2.19-.711.325.117c.6057684.2180331 1.2802038.1218458 1.8008691-.256838.5206653-.3786839.8199442-.9906866.7991309-1.634162l-.011-.346 1.353-1.862.332-.1c.6196024-.1787985 1.1101207-.653367 1.309296-1.2667227s.0810519-1.2855688-.315296-1.7942773z" fill="#37474f"/><circle id="Oval" cx="11" cy="47.585" fill="#f5f5f5" r="5"/><path id="Path" d="m45.2 38.31.194-.286c.361152-.5326237.9624801-.8520091 1.606-.853.644582-.0000027 1.2472516.3194984 1.609.853l.194.286 2.19.712.325-.118c.6054321-.2174252 1.2791939-.1216013 1.8.256.5212654.3790948.8208764.9917992.8 1.636l-.011.346 1.357 1.858.332.1c.6193721.1792513 1.1096524.6538007 1.309 1.267.1989783.613237.0809862 1.28523-.315 1.794l-.212.273v2.3l.212.272c.3976967.510329.515754 1.1849422.315 1.8-.1994307.6112855-.6878042 1.0846896-1.305 1.265l-.332.1-1.353 1.862.011.346c.0208764.6442008-.2787346 1.2569052-.8 1.636-.520779.3777648-1.1947857.473249-1.8.255l-.325-.117-2.19.711-.194.287c-.3642411.5343319-.9703398.8525618-1.617.849-.644582.0000027-1.2472516-.3194984-1.609-.853l-.191-.287-2.19-.711-.325.117c-.6052143.218249-1.279221.1227648-1.8-.255-.5212654-.3790948-.8208764-.9917992-.8-1.636l.011-.346-1.353-1.862-.332-.1c-.6199554-.1789927-1.1109556-.6535138-1.311-1.267-.200754-.6150578-.0826967-1.289671.315-1.8l.212-.272v-2.3l-.212-.273c-.3959862-.50877-.5139783-1.180763-.315-1.794.1992599-.6087506.6854643-1.0803688 1.3-1.261l.332-.1 1.353-1.862-.011-.346c-.0208764-.6442008.2787346-1.2569052.8-1.636.5208061-.3776013 1.1945679-.4734252 1.8-.256l.325.118z" fill="#607d8b"/><path id="Path" d="m56.378 48.737v-2.3l.212-.273c.3977891-.5082332.517255-1.1808169.3188236-1.7949521-.1984315-.6141353-.6888587-1.0896582-1.3088236-1.2690479l-.332-.1-1.353-1.862.011-.346c.020661-.6434759-.2785951-1.2554435-.7991616-1.6342557-.5205664-.3788122-1.1949131-.4753278-1.8008384-.2577443l-.325.118-2.201-.708-.194-.286c-.3429303-.5093191-.9080518-.8247237-1.5215721-.8492171s-1.2019869.2448568-1.5844279.7252171c.035.043.078.079.109.125l.194.286 2.19.712.325-.118c.6059253-.2175835 1.280272-.1210679 1.8008384.2577443.5205665.3788122.8198226.9907798.7991616 1.6342557l-.011.346 1.357 1.857.332.1c.6196024.1787985 1.1101207.653367 1.309296 1.2667227s.0810519 1.2855688-.315296 1.7942773l-.212.273v2.3l.212.273c.3963479.5087085.5144713 1.1809216.315296 1.7942773s-.6896936 1.0879242-1.309296 1.2667227l-.332.1-1.353 1.862.011.346c.0208133.6434754-.2784656 1.2554781-.7991309 1.634162-.5206653.3786838-1.1951007.4748711-1.8008691.256838l-.325-.117-2.19.711-.194.286c-.031.047-.074.082-.109.126.3826528.4813652.9720654.7512 1.5864883.726299.6144229-.0249011 1.1800669-.3415474 1.5225117-.852299l.194-.286 2.19-.711.325.117c.6057684.2180331 1.2802038.1218458 1.8008691-.256838.5206653-.3786839.8199442-.9906866.7991309-1.634162l-.011-.346 1.353-1.862.332-.1c.6196024-.1787985 1.1101207-.653367 1.309296-1.2667227s.0810519-1.2855688-.315296-1.7942773z" fill="#37474f"/><circle id="Oval" cx="47" cy="47.585" fill="#f5f5f5" r="5"/></g><g id="Icons" fill="#000"><path id="Shape" d="m12 42.585c-3.3137085 0-6 2.6862915-6 6s2.6862915 6 6 6 6-2.6862915 6-6c-.0033074-3.3123376-2.6876624-5.9966926-6-6zm0 10c-2.209139 0-4-1.790861-4-4s1.790861-4 4-4 4 1.790861 4 4-1.790861 4-4 4z" fill-rule="nonzero"/><path id="Shape" d="m48 42.585c-3.3137085 0-6 2.6862915-6 6s2.6862915 6 6 6 6-2.6862915 6-6c-.0033074-3.3123376-2.6876624-5.9966926-6-6zm0 10c-2.209139 0-4-1.790861-4-4s1.790861-4 4-4 4 1.790861 4 4-1.790861 4-4 4z" fill-rule="nonzero"/><path id="Path" d="m28 28.585h3c.5522847 0 1-.4477153 1-1s-.4477153-1-1-1h-3c-.5522847 0-1 .4477153-1 1s.4477153 1 1 1z"/><path id="Shape" d="m54.457 6.329c.5926396.43460514 1.3080841.66958469 2.043.671 1.9329966 0 3.5-1.56700338 3.5-3.5s-1.5670034-3.5-3.5-3.5-3.5 1.56700338-3.5 3.5c.0027812.41982227.0820777.83562028.234 1.227-3.426 2.95-7.116 9.146-7.223 17.888h-2.011v-8.03c0-1.6568542-1.3431458-3-3-3s-3 1.3431458-3 3v.933c-.320257-.1184378-.6585603-.1806856-1-.184h-11.794c-.7343962.0003301-1.4431613.2700308-1.992.758l-7.356 6.536c-13.067.259-15.858 4.979-15.858 8.957v10c.0046193 1.1069993.62008803 2.1209841 1.6 2.636-.1961596.2524536-.34922418.5356062-.453.838-.30204814.9282163-.12370471 1.9458229.476 2.716v1.618c-.6006752.7700465-.78022661 1.787915-.47927845 2.7170073.30094815.9290922 1.04319167 1.6483764 1.98127845 1.9199927l.954 1.309c-.03129586.9754053.42264115 1.9029672 1.21207435 2.4767181.78943319.5737509 1.81182452.7191674 2.72992565.3882819l1.539.5c.547785.808221 1.4606345 1.2922836 2.437 1.2922836s1.889215-.4840626 2.437-1.2922836l1.54-.5c.9182847.3314835 1.9411715.1861774 2.7308132-.3879254.7896418-.5741028 1.2433187-1.5023207 1.2111868-2.4780746l.95-1.31c.936694-.2702512 1.6788561-.9866828 1.9819765-1.9132622s.127884-1.943128-.4679765-2.7147378v-1.618c.5996965-.7697944.7780543-1.7871086.476-2.715-.0586052-.1644275-.1322504-.3230995-.22-.474h3.364v4c0 1.1045695.8954305 2 2 2h5c1.1045695 0 2-.8954305 2-2v-4h2.364c-.0877496.1509005-.1613948.3095725-.22.474-.3020481.9282163-.1237047 1.9458229.476 2.716v1.618c-.5992541.7703821-.7775961 1.7877417-.4761154 2.7160216.3014806.9282799 1.0435611 1.6467108 1.9811154 1.9179784l.954 1.309c-.0312959.9754053.4226412 1.9029672 1.2120743 2.4767181.7894332.5737509 1.8118246.7191674 2.7299257.3882819l1.539.5c.547785.808221 1.4606345 1.2922836 2.437 1.2922836s1.889215-.4840626 2.437-1.2922836l1.54-.5c.9182847.3314835 1.9411715.1861774 2.7308132-.3879254.7896418-.5741028 1.2433187-1.5023207 1.2111868-2.4780746l.95-1.31c.9384349-.2696171 1.6821418-.9869661 1.9854318-1.9150656.30329-.9280994.1267001-1.9461886-.4714318-2.7179344v-1.618c.5996965-.7697944.7780543-1.7871086.476-2.715-.1037758-.3023938-.2568404-.5855464-.453-.838.9812841-.5171686 1.5959275-1.5347748 1.597-2.644v-2c.0016999-.1547301-.0325313-.3077438-.1-.447l-2.17-4.34c-.1954164-.3861282-.4516921-.7382962-.759-1.043.0165019-.0555092.0278828-.1124138.034-.17v-7.97c0-1.6568542-1.3431458-3-3-3h-5.992c.122-9.64 4.666-14.683 6.444-16.286zm-14.457 8.256c0-.5522847.4477153-1 1-1s1 .4477153 1 1v8h-2zm-2 3.749v4.281h-5.279v-5.281h4.279c.5522847 0 1 .4477153 1 1zm-13.458-.747c.1828973-.1627773.4191576-.2527981.664-.253h5.515v5.281h-11.839zm-16.542 8.02v1.978c0 .5522847-.44771525 1-1 1h-4.03c1.30354244-1.5188185 3.0714587-2.5655093 5.03-2.978zm12.589 24.744.213.272c.1924292.2475728.2493687.5745374.1519571.8725848-.0974116.2980475-.3364593.5282738-.6379571.6144152l-.332.1c-.2129028.0614979-.3991161.1924456-.529.372l-1.355 1.859c-.1312248.1802442-.1984518.3991719-.191.622l.012.345c.0104402.3131211-.1358058.610863-.39.794-.2538259.1829126-.5813799.2292787-.876.124l-.325-.117c-.2084871-.0752721-.4360746-.0791414-.647-.011l-2.19.711c-.2111901.0688595-.3934416.2060759-.518.39l-.2.287c-.1847597.2455615-.4741946.3900019-.7815.3900019s-.5967403-.1444404-.7815-.3900019l-.2-.286c-.1245584-.1839241-.3068099-.3211405-.518-.39l-2.179-.71c-.09951804-.0321499-.2034182-.0486795-.308-.049-.11564604-.0000556-.23039839.0202546-.339.06l-.326.117c-.29472799.1055262-.62254971.058748-.876-.125-.25349578-.182723-.3993521-.479685-.389-.792l.012-.346c.00745179-.2228281-.05977521-.4417558-.191-.622l-1.353-1.864c-.12988392-.1795544-.3160972-.3105021-.529-.372l-.334-.1c-.29973328-.0872086-.53688577-.3170958-.63337536-.6139714-.09648958-.2968756-.03981064-.6222629.15137536-.8690286l.213-.273c.13687474-.1757736.21113513-.3922198.211-.615v-2.3c.00013513-.2227802-.07412526-.4392264-.211-.615l-.213-.273c-.19242916-.2475728-.24936871-.5745374-.1519571-.8725848.0974116-.2980475.33645925-.5282738.6379571-.6144152l.332-.1c.2126685-.0619859.39873613-.1928312.529-.372l1.353-1.86c.13122479-.1802442.19845179-.3991719.191-.622l-.012-.344c-.00923574-.3128555.13687014-.6100272.39025726-.7937629.25338713-.1837356.58125075-.230248.87574274-.1242371l.325.117c.20861037.0745985.43597435.0784641.647.011l2.19-.711c.2111901-.0688595.3934416-.2060759.518-.39l.2-.287c.1845175-.2459359.4740408-.3906667.7815-.3906667s.5969825.1447308.7815.3906667l.2.286c.1245584.1839241.3068099.3211405.518.39l2.19.711c.2110366.0673896.4383762.0635245.647-.011l.326-.117c.2942159-.106039.6218384-.0596488.8750491.123904.2532107.1835527.3992101.4804916.3899509.793096l-.012.345c-.0074518.2228281.0597752.4417558.191.622l1.353 1.863c.1302639.1791688.3163315.3100141.529.372l.334.1c.3007746.0864678.5390566.3165217.6360364.6140733s.0400215.623832-.1520364.8709267l-.213.273c-.1368747.1757736-.2111351.3922198-.211.615v2.3c-.0032902.2214934.0670567.4378102.2.615zm-.119-7.766-.549-.753c.0312959-.9754053-.4226412-1.9029672-1.2120743-2.4767181-.7894332-.5737509-1.8118246-.7191674-2.7299257-.3882819l-1.539-.5c-.5480153-.8082157-1.4610096-1.2922391-2.4375-1.2922391s-1.8894847.4840234-2.4375 1.2922391l-1.54.5c-.91824804-.3329514-1.94184665-.1888005-2.73242705.384801-.7905804.5736016-1.24519879 1.5019634-1.21357295 2.478199l-.548.755h-.531c-.55228475 0-1-.4477153-1-1v-1.764l2.064-4.129c.33611786-.6788496 1.02849687-1.1080005 1.786-1.107h12.3c.7575031-.0010005 1.4498821.4281504 1.786 1.107l1.339 2.681c.6729121 1.3582248 2.0592265 2.2159947 3.575 2.212h1.15v2zm7.53 0h5v2h-5zm5-3v1h-5v-2h5zm-5 9v-2h5v2zm28.589 1.766.213.272c.1924292.2475728.2493687.5745374.1519571.8725848-.0974116.2980475-.3364593.5282738-.6379571.6144152l-.332.1c-.2129028.0614979-.3991161.1924456-.529.372l-1.355 1.859c-.1312248.1802442-.1984518.3991719-.191.622l.012.345c.0104402.3131211-.1358058.610863-.39.794-.2538259.1829126-.5813799.2292787-.876.124l-.325-.117c-.2084871-.0752721-.4360746-.0791414-.647-.011l-2.19.711c-.2111901.0688595-.3934416.2060759-.518.39l-.2.287c-.1847597.2455615-.4741946.3900019-.7815.3900019s-.5967403-.1444404-.7815-.3900019l-.2-.286c-.1245584-.1839241-.3068099-.3211405-.518-.39l-2.19-.711c-.099518-.0321499-.2034182-.0486795-.308-.049-.115646-.0000556-.2303984.0202546-.339.06l-.326.117c-.2942159.106039-.6218384.0596488-.8750491-.123904-.2532107-.1835527-.3992101-.4804916-.3899509-.793096l.012-.346c.0074518-.2228281-.0597752-.4417558-.191-.622l-1.353-1.862c-.1298839-.1795544-.3160972-.3105021-.529-.372l-.334-.1c-.3007746-.0864678-.5390566-.3165217-.6360364-.6140733s-.0400215-.623832.1520364-.8709267l.213-.273c.1368747-.1757736.2111351-.3922198.211-.615v-2.3c.0001351-.2227802-.0741253-.4392264-.211-.615l-.213-.272c-.1924292-.2475728-.2493687-.5745374-.1519571-.8725848.0974116-.2980475.3364593-.5282738.6379571-.6144152l.332-.1c.2126685-.0619859.3987361-.1928312.529-.372l1.366-1.86c.1312248-.1802442.1984518-.3991719.191-.622l-.012-.344c-.0092357-.3128555.1368701-.6100272.3902573-.7937629.2533871-.1837356.5812507-.230248.8757427-.1242371l.325.117c.2086104.0745985.4359744.0784641.647.011l2.19-.711c.2111901-.0688595.3934416-.2060759.518-.39l.2-.287c.1845175-.2459359.4740408-.3906667.7815-.3906667s.5969825.1447308.7815.3906667l.2.286c.1245584.1839241.3068099.3211405.518.39l2.19.711c.2110256.0674641.4383896.0635985.647-.011l.326-.117c.2942159-.106039.6218384-.0596488.8750491.123904.2532107.1835527.3992101.4804916.3899509.793096l-.012.345c-.0074518.2228281.0597752.4417558.191.622l1.353 1.863c.1302639.1791688.3163315.3100141.529.372l.334.1c.3007746.0864678.5390566.3165217.6360364.6140733s.0400215.623832-.1520364.8709267l-.213.273c-.1368747.1757736-.2111351.3922198-.211.615v2.3c-.0032902.2214934.0670567.4378102.2.615zm1.411-10.53v1.764c0 .5522847-.4477153 1-1 1h-.53l-.549-.753c.0312959-.9754053-.4226412-1.9029672-1.2120743-2.4767181-.7894332-.5737509-1.8118246-.7191674-2.7299257-.3882819l-1.539-.5c-.5480153-.8082157-1.4610096-1.2922391-2.4375-1.2922391s-1.8894847.4840234-2.4375 1.2922391l-1.54.5c-.9182847-.3314835-1.9411715-.1861774-2.7308132.3879254-.7896418.5741028-1.2433187 1.5023207-1.2111868 2.4780746l-.548.755h-4.535v-2h.15c1.5157735.0039947 2.9020879-.8537752 3.575-2.212l1.339-2.681c.3361179-.6788496 1.0284969-1.1080005 1.786-1.107h12.3c.7575031-.0010005 1.4498821.4281504 1.786 1.107zm-6-7.236v-2h3v2zm3-6.97v2.97h-3c-1.1045695 0-2 .8954305-2 2v2h-8.15c-1.516513-.0036688-2.9031152.8554428-3.575 2.215l-1.339 2.681c-.3360346.6787923-1.0285863 1.1076625-1.786 1.106h-.15c0-1.1045695-.8954305-2-2-2h-5c-1.1045695 0-2 .8954305-2 2h-1.15c-.7574137.0016625-1.4499654-.4272077-1.786-1.106l-1.339-2.681c-.6724481-1.3587796-2.0589353-2.2170443-3.575-2.213h-12.3c-1.51606469-.0040443-2.90255188.8542204-3.575 2.213l-.275.549v-3.764c.00000548-.3354005.03046384-.6701078.091-1h4.909c1.65685425 0 3-1.3431458 3-3v-2.423c2.0607988-.3468787 4.1462414-.5267966 6.236-.538h.01c.252 0 .505-.009.754-.009h37c.2652165 0 .5195704.1053568.7071068.2928932s.2928932.4418903.2928932.7071068zm1.5-23.615c.7073735-.00280585 1.3205664.48896478 1.4714364 1.18006775s-.2015931 1.39367943-.8457812 1.68592383c-.6441881.29224439-1.4049949.09471748-1.8256552-.47399158-.1939975-.25697935-.2992793-.57001724-.3-.892 0-.39782473.1580353-.7793556.4393398-1.06066017.2813046-.28130457.6628355-.43933983 1.0606602-.43933983z" fill-rule="nonzero"/></g></g></g></svg>