<?xml version="1.0" encoding="UTF-8" standalone="no"?>
<!-- Created with Inkscape (http://www.inkscape.org/) -->

<svg
   version="1.1"
   id="svg828"
   xml:space="preserve"
   width="682.66669"
   height="682.66669"
   viewBox="0 0 682.66669 682.66669"
   xmlns="http://www.w3.org/2000/svg"
   xmlns:svg="http://www.w3.org/2000/svg"><defs
     id="defs832"><clipPath
       clipPathUnits="userSpaceOnUse"
       id="clipPath842"><path
         d="M 0,512 H 512 V 0 H 0 Z"
         id="path840" /></clipPath></defs><g
     id="g834"
     transform="matrix(1.3333333,0,0,-1.3333333,0,682.66667)"><g
       id="g836"><g
         id="g838"
         clip-path="url(#clipPath842)"><g
           id="g844"
           transform="translate(80.6777,19.6055)"><path
             d="m 0,0 c 27.751,-6.237 59.982,3.628 85.041,26.25 48.644,43.882 16.923,73.619 100.689,151.462 38.155,35.492 64.66,65.937 67.579,115.121 C 261.275,426.436 151.855,517.348 23.613,469.412 -3.232,459.376 -27.61,443.133 -45.157,420.427 -82.207,372.49 -76.169,320.047 -44.675,259.638 -30.19,231.857 -17.32,200.164 -24.577,151.973 -27.213,134.482 -34.64,118.806 -41.16,104.858 -58.48,67.808 -44.335,9.978 0,0"
             style="fill:#ffdcd5;fill-opacity:1;fill-rule:evenodd;stroke:none"
             id="path846" /></g><g
           id="g848"
           transform="translate(358.564,10.0234)"><path
             d="m 0,0 c 22.224,19.815 53.944,38.383 90.229,38.383 v 90.543 C 53.944,128.926 22.224,147.494 0,167.309 V 83.655 Z"
             style="fill:#c1b0b5;fill-opacity:1;fill-rule:evenodd;stroke:none"
             id="path850" /></g><g
           id="g852"
           transform="translate(456.73,48.4067)"><path
             d="M 0,0 C 24.917,0 45.27,20.382 45.27,45.271 45.27,70.189 24.917,90.543 0,90.543 H -7.937 V 0 Z"
             style="fill:#dad0d3;fill-opacity:1;fill-rule:evenodd;stroke:none"
             id="path854" /></g><g
           id="g856"
           transform="translate(281.4316,459.0532)"><path
             d="m 0,0 c -42.748,40.935 -107.152,56.129 -177.141,29.964 -26.845,-10.035 -51.223,-26.278 -68.77,-48.985 -37.049,-47.937 -31.012,-100.38 0.482,-160.789 14.485,-27.781 27.355,-59.474 20.098,-107.665 -2.636,-17.491 -10.063,-33.167 -16.583,-47.114 -17.32,-37.051 -3.175,-94.881 41.16,-104.859 27.752,-6.237 59.983,3.629 85.041,26.25 48.644,43.883 16.923,73.619 100.689,151.463 38.155,35.491 64.66,65.937 67.579,115.12 1.503,25.116 -1.162,48.759 -7.313,70.246"
             style="fill:none;stroke:#000000;stroke-width:20;stroke-linecap:round;stroke-linejoin:round;stroke-miterlimit:10;stroke-dasharray:none;stroke-opacity:1"
             id="path858" /></g><g
           id="g860"
           transform="translate(78.0127,106.4912)"><path
             d="M 0,0 C -25.909,-55.448 52.726,-63.556 77.331,-3.458"
             style="fill:none;stroke:#000000;stroke-width:20;stroke-linecap:round;stroke-linejoin:round;stroke-miterlimit:10;stroke-dasharray:none;stroke-opacity:1"
             id="path862" /></g><g
           id="g864"
           transform="translate(177.6245,178.2964)"><path
             d="m 0,0 c 62.193,56.752 96.182,100.862 98.903,140.18 1.417,20.127 -0.652,37.703 -5.329,52.812 -26.363,84.76 -135.726,92.414 -184.795,39.631 -17.178,-18.483 -28.46,-45.3 -19.106,-70.048 10.432,-27.639 39.488,-42.437 61.258,-39.886 47.708,5.585 49.353,-59.076 0.34,-86.035"
             style="fill:none;stroke:#000000;stroke-width:20;stroke-linecap:round;stroke-linejoin:round;stroke-miterlimit:10;stroke-dasharray:none;stroke-opacity:1"
             id="path866" /></g><g
           id="g868"
           transform="translate(456.73,48.4067)"><path
             d="m 0,0 h -7.937 c -36.285,0 -68.005,-18.568 -90.229,-38.383 v 83.654 83.655 C -75.942,109.111 -44.222,90.543 -7.937,90.543 H 0 c 24.917,0 45.27,-20.354 45.27,-45.272 C 45.27,20.382 24.917,0 0,0 Z"
             style="fill:none;stroke:#000000;stroke-width:20;stroke-linecap:round;stroke-linejoin:round;stroke-miterlimit:10;stroke-dasharray:none;stroke-opacity:1"
             id="path870" /></g><g
           id="g872"
           transform="translate(448.7925,138.9497)"><path
             d="M 0,0 V -90.543"
             style="fill:none;stroke:#000000;stroke-width:20;stroke-linecap:round;stroke-linejoin:round;stroke-miterlimit:10;stroke-dasharray:none;stroke-opacity:1"
             id="path874" /></g><g
           id="g876"
           transform="translate(286.6191,155.9868)"><path
             d="M 0,0 C -34.385,-34.415 -34.385,-90.203 0,-124.589"
             style="fill:none;stroke:#000000;stroke-width:20;stroke-linecap:round;stroke-linejoin:round;stroke-miterlimit:10;stroke-dasharray:none;stroke-opacity:1"
             id="path878" /></g><g
           id="g880"
           transform="translate(314.6543,127.9507)"><path
             d="M 0,0 C -18.936,-18.937 -18.936,-49.609 0,-68.545"
             style="fill:none;stroke:#000000;stroke-width:20;stroke-linecap:round;stroke-linejoin:round;stroke-miterlimit:10;stroke-dasharray:none;stroke-opacity:1"
             id="path882" /></g><g
           id="g884"
           transform="translate(309.2681,423.647)"><path
             d="M 0,0 -0.028,0.028"
             style="fill:none;stroke:#000000;stroke-width:20;stroke-linecap:round;stroke-linejoin:round;stroke-miterlimit:10;stroke-dasharray:none;stroke-opacity:1"
             id="path886" /></g></g></g></g></svg>
