<?xml version="1.0" encoding="UTF-8"?>
<svg id="Layer_2" xmlns="http://www.w3.org/2000/svg" xmlns:xlink="http://www.w3.org/1999/xlink" viewBox="0 0 3055.67 2009">
  <defs>
    <style>
      .cls-1 {
        fill: #461d14;
      }

      .cls-2 {
        fill: #fc8181;
      }

      .cls-3 {
        fill: #ed3b66;
      }

      .cls-4 {
        fill: #963378;
      }

      .cls-5 {
        fill: #18b29c;
      }

      .cls-6 {
        fill: #fc954c;
      }

      .cls-7 {
        fill: #f25e91;
      }

      .cls-8 {
        fill: #9ac470;
      }

      .cls-9 {
        opacity: .11;
      }

      .cls-10 {
        fill: #f9feff;
      }

      .cls-11 {
        fill: #00bcd4;
      }

      .cls-11, .cls-12, .cls-13, .cls-14, .cls-15, .cls-16, .cls-17, .cls-18, .cls-19, .cls-20, .cls-21 {
        fill-rule: evenodd;
      }

      .cls-22 {
        fill: #ffb820;
      }

      .cls-23 {
        fill: #fffbdb;
      }

      .cls-24 {
        fill: #e2d6d1;
      }

      .cls-25 {
        fill: #ffd06a;
      }

      .cls-26 {
        opacity: .36;
      }

      .cls-26, .cls-27, .cls-28 {
        fill: #fff;
      }

      .cls-29 {
        fill: #f94848;
      }

      .cls-12 {
        fill: #607d8b;
      }

      .cls-30 {
        fill: #67e9e7;
      }

      .cls-31 {
        fill: #fc8d94;
      }

      .cls-32 {
        fill: #fff8b3;
      }

      .cls-33 {
        fill: #f6d190;
      }

      .cls-34 {
        fill: #fce06f;
      }

      .cls-35 {
        fill: #541000;
        opacity: .21;
      }

      .cls-36, .cls-37, .cls-38 {
        fill: none;
      }

      .cls-39 {
        fill: #d19a6e;
      }

      .cls-40 {
        fill: #c4735b;
      }

      .cls-37 {
        stroke-linecap: round;
        stroke-linejoin: round;
        stroke-width: 20px;
      }

      .cls-37, .cls-38 {
        stroke: #000;
      }

      .cls-41 {
        fill: #e0956c;
      }

      .cls-42 {
        fill: #ed94d6;
      }

      .cls-13 {
        fill: #ffdf00;
      }

      .cls-43 {
        fill: #60b5d6;
      }

      .cls-44 {
        fill: #ffc19f;
      }

      .cls-45 {
        clip-path: url(#clippath-1);
      }

      .cls-46 {
        fill: #d844b5;
      }

      .cls-47 {
        fill: #330a02;
      }

      .cls-48 {
        fill: #752912;
      }

      .cls-49 {
        fill: #b3e59f;
      }

      .cls-50 {
        fill: #23b75f;
      }

      .cls-51 {
        fill: #ffbbf2;
      }

      .cls-14 {
        fill: #37474f;
      }

      .cls-15 {
        fill: #02a9f4;
      }

      .cls-52 {
        fill: #ecbd83;
      }

      .cls-16 {
        fill: #545c60;
      }

      .cls-53 {
        fill: #960c0c;
        opacity: .19;
      }

      .cls-54 {
        fill: #ccf49f;
      }

      .cls-55 {
        fill: #701608;
      }

      .cls-56 {
        fill: #7c3929;
      }

      .cls-57 {
        fill: #ef314c;
      }

      .cls-17 {
        fill: #0377bc;
      }

      .cls-58 {
        fill: #bc845e;
      }

      .cls-28, .cls-59 {
        opacity: .35;
      }

      .cls-60 {
        fill: #78ad63;
      }

      .cls-61 {
        fill: #ed457d;
      }

      .cls-62 {
        fill: #b52652;
      }

      .cls-63 {
        fill: #a3e261;
      }

      .cls-18 {
        fill: #cfd8dc;
      }

      .cls-64 {
        fill: #ff9797;
      }

      .cls-65 {
        fill: #6d261d;
        opacity: .2;
      }

      .cls-66 {
        fill: #6f6571;
      }

      .cls-67 {
        fill: #150028;
        opacity: .5;
      }

      .cls-68 {
        fill: #ffc19f;
      }

      .cls-69 {
        fill: #7f8e94;
      }

      .cls-70, .cls-20 {
        fill: #f5f5f5;
      }

      .cls-71 {
        fill: #fefffe;
      }

      .cls-72 {
        fill: #db4f84;
      }

      .cls-73 {
        fill: #dd2c2c;
      }

      .cls-74 {
        clip-path: url(#clippath-2);
      }

      .cls-75 {
        fill: #fbf0a8;
      }

      .cls-76 {
        fill: #fc7585;
      }

      .cls-77 {
        fill: #f93d77;
      }

      .cls-78 {
        fill: #fac75a;
      }

      .cls-79 {
        fill: #677a7a;
      }

      .cls-38 {
        stroke-miterlimit: 10;
        stroke-width: 9px;
      }

      .cls-80 {
        fill: #f78ded;
      }

      .cls-81 {
        clip-path: url(#clippath);
      }

      .cls-82 {
        fill: #cfc6c3;
      }

      .cls-83 {
        fill: #dd6b5b;
      }

      .cls-84 {
        fill: #fc7c49;
      }

      .cls-21 {
        fill: #9e9e9e;
      }
    </style>
    <clipPath id="clippath">
      <rect class="cls-36" x="2245.89" y="106.26" width="511.5" height="511.5"/>
    </clipPath>
    <clipPath id="clippath-1">
      <rect class="cls-36" x="1707.23" y="1490.09" width="340.69" height="340.69"/>
    </clipPath>
    <clipPath id="clippath-2">
      <rect class="cls-36" x="1014.92" y="1512.43" width="306.83" height="306.83"/>
    </clipPath>
  </defs>
  <g id="background">
    <g id="DONE">
      <path class="cls-48" d="M747.3,754.14c3.4-11.37,58.63-36.54,51.82-147.76-18.79-17.76-589.95-17.76-608.74,0-6.82,111.22,50.52,135.96,51.81,147.76,1.24,11.4-12.38,15.79-20.76,6.78-4.82,11.35.76,28.46,10.29,35.56,16.14,12.02,35.58,14.1,54.5,4.98-4.05,31.59,121.19,56.32,206.5,57.27,92.42,1.03,214.6-25.68,210.56-57.27,18.92,9.12,38.9,6.21,54.5-4.98,10.35-7.42,15.85-29.54,11.51-33.83-8.38,9.01-26.48,6.56-21.98-8.51Z"/>
      <g>
        <ellipse class="cls-9" cx="502.06" cy="1838.5" rx="314.02" ry="26.28"/>
        <path class="cls-44" d="M555.51,1775.04c.26,2.77,90.47-.65,90.59-4.02,1.08-29.34-.19-417.01.12-434.02l-128.73,40.19c3.52,29.03,36.14,377.82,38.02,397.85Z"/>
        <path class="cls-44" d="M448.46,1775.04c-.26,2.77-90.47-.65-90.59-4.02-1.08-29.34.19-417.01-.12-434.02l128.73,40.19c-3.52,29.03-36.13,377.82-38.02,397.85Z"/>
        <g>
          <path class="cls-4" d="M226.09,1418.45c5.36,5.11,46.75,25.22,50.1,27.12-.84,1.68-2.54,10.08-4.22,13.77,53.96,28.63,138.03,41.26,214.76,40.66,113.9-.89,166.72-18.08,251.37-59.95-.94-1.74-5.68-12.44-5.91-13.5,2.09-.51,39.56-19.29,44.71-22.43,0,0-86.02-151.3-99.27-171.4-94.32,15.49-286.78,20.52-362.29,2.47-16.28,35.51-72.9,151.37-89.26,183.24Z"/>
          <polygon class="cls-67" points="258.37 1436.57 276.2 1445.58 309.68 1334.97 258.37 1436.57"/>
          <polygon class="cls-67" points="732.1 1427.18 746.68 1419.66 679.8 1306.31 732.1 1427.18"/>
          <path class="cls-59" d="M300.47,1265.33c109.21,41.53,279.9,41.8,389.92-9.98-2.5-5.43-5.99-11.17-9.07-18-68.44-7.91-293.24-6.86-367.03.48-2.54,7.27-7.78,14.82-13.82,27.49Z"/>
        </g>
        <g>
          <path class="cls-61" d="M466.79,1662.02c-.55,3.76-1.03,7.04-1.32,9.23l-13.03-.56c.19-5.8,5.05-10.44,10.85-10.25,1.38.04,2.3,1.06,3.5,1.58ZM389.47,1668.55l-20.99-.72c.19-5.8,5.05-10.36,10.85-10.17,5.8.19,10.34,5.08,10.15,10.88ZM368.47,1667.83l-17.34-.59-.29-7.46c1.96-1.82,4.6-2.91,7.48-2.81,5.8.19,10.34,5.07,10.15,10.86ZM410.46,1669.26l-20.99-.72c.19-5.8,5.05-10.38,10.85-10.19,5.8.2,10.34,5.11,10.15,10.91ZM431.45,1669.98l-21-.71c.19-5.8,5.05-10.4,10.85-10.21,5.79.19,10.34,5.13,10.14,10.93ZM452.45,1670.69l-20.99-.72c.19-5.8,5.05-10.42,10.85-10.23,5.8.19,10.34,5.15,10.14,10.95Z"/>
          <path class="cls-32" d="M451.42,1781.12c-.48,3.04-99.14-4.07-99.45-7.77-2.6-30.92-.76-94.49-.84-106.11l114.34,4.02c-4.33,31.99-10.98,90.44-14.05,109.87Z"/>
          <path class="cls-32" d="M367.89,1716.5c1.6-7.28,69.67,4.97,82.06,2.79.33,16.84,10.04,43.99,9.57,66.87-.33,15.93-13.57,27.58-28.13,30.21-56.22,10.19-204.83,40.89-211.35-.39-5.35-33.88,83.34-59.61,147.85-99.48Z"/>
          <path class="cls-77" d="M459.3,1745.9c-1.01-1.26-3.82-1.38-5.9.66-13.72,7.99-35.53,16.2-53.51,21.75-6.13,1.89-12.2,3.34-18.17,4.4-5.84-17.67-20.97-38.82-34.88-47.49-2.91-1.82-6.62-.77-8.32,2.3-1.7,3.07-.72,7.04,2.19,8.84,10.73,6.67,23.04,23.59,28.57,37.82-37.42,4.65-66.04,4.23-79.9-19.78-43.43,25.38-88.8,33.97-87.61,62.99,1.47,35.64,258.45,1.84,258.45,1.84-.5-21.43-.32-54.05-.94-73.33Z"/>
          <path class="cls-62" d="M460.65,1806.27c-.06,4.76-.08,9.36.02,13.44,0,0-222.27,40.3-256.79,8.45-1.23-1.14-2.64-6.83-2.02-8.66,62.18,14.01,202.47-4.65,258.79-13.23Z"/>
          <path class="cls-61" d="M350.93,1683.9c46.47,3.68,66.3,3.82,112.39,3.85l.62-4.84c-46.51-.03-66.2-.15-112.94-3.84l-.07,4.83Z"/>
        </g>
        <g>
          <path class="cls-61" d="M536.92,1662.02c.55,3.76,1.03,7.04,1.32,9.23l13.03-.56c-.19-5.8-5.05-10.44-10.85-10.25-1.38.04-2.3,1.06-3.5,1.58ZM614.25,1668.55l21-.72c-.19-5.8-5.05-10.36-10.85-10.17-5.8.19-10.34,5.08-10.15,10.88ZM635.24,1667.83l17.34-.59.29-7.46c-1.96-1.82-4.6-2.91-7.48-2.81-5.8.19-10.34,5.07-10.15,10.86ZM593.25,1669.26l20.99-.72c-.19-5.8-5.05-10.38-10.85-10.19-5.8.2-10.34,5.11-10.15,10.91ZM572.26,1669.98l20.99-.71c-.19-5.8-5.05-10.4-10.85-10.21-5.8.19-10.34,5.13-10.14,10.93ZM551.27,1670.69l21-.72c-.19-5.8-5.05-10.42-10.85-10.23-5.8.19-10.34,5.15-10.15,10.95Z"/>
          <path class="cls-32" d="M552.3,1781.12c.48,3.04,99.13-4.07,99.45-7.77,2.6-30.92.76-94.49.84-106.11l-114.34,4.02c4.33,31.99,10.99,90.44,14.06,109.87Z"/>
          <path class="cls-32" d="M635.83,1716.5c-1.6-7.28-69.67,4.97-82.06,2.79-.33,16.84-10.04,43.99-9.57,66.87.32,15.93,13.57,27.58,28.13,30.21,56.22,10.19,204.83,40.89,211.35-.39,5.35-33.88-83.34-59.61-147.85-99.48Z"/>
          <path class="cls-77" d="M544.42,1745.9c1.01-1.26,3.81-1.38,5.9.66,13.72,7.99,35.53,16.2,53.51,21.75,6.13,1.89,12.2,3.34,18.16,4.4,5.84-17.67,20.97-38.82,34.88-47.49,2.91-1.82,6.62-.77,8.32,2.3,1.7,3.07.71,7.04-2.19,8.84-10.73,6.67-23.04,23.59-28.57,37.82,37.42,4.65,66.04,4.23,79.9-19.78,43.42,25.38,88.8,33.97,87.61,62.99-1.47,35.64-258.45,1.84-258.45,1.84.5-21.43.32-54.05.94-73.33Z"/>
          <path class="cls-62" d="M543.07,1806.27c.06,4.76.08,9.36-.02,13.44,0,0,222.27,40.3,256.79,8.45,1.23-1.14,2.64-6.83,2.02-8.66-62.18,14.01-202.47-4.65-258.79-13.23Z"/>
          <path class="cls-61" d="M652.78,1683.9c-46.47,3.68-66.29,3.82-112.39,3.85l-.62-4.84c46.51-.03,66.2-.15,112.94-3.84l.07,4.83Z"/>
        </g>
      </g>
      <path class="cls-46" d="M194.4,937.66c33.18-20.08,117.2-77.15,132.84-83.82,5.86-2.5,42.74-9.55,83.57-11.21-11.72,32.34-18.2,130.54-34.19,159.59-1.69,3.06-76.34,41.57-101.61,53.7-20.7-19.17-68.56-93.62-80.61-118.26Z"/>
      <path class="cls-44" d="M722.79,1174.2c-3.31,4.15-53.84-31.6-50.87-36.01,44.44-65.96,102.75-178.85,112.52-199.3,0,0,49.17,34.43,49.72,77.43.44,34.24-67.58,103-111.37,157.88Z"/>
      <path class="cls-46" d="M798.53,943.99c-18.01,25.93-51.11,79.86-72.31,101.91-23.01-9.42-68.14-28.58-72.27-30.58-37.78-49.78-59.14-169.16-60.15-172.11,43.26,5.08,64.94,10.61,77.5,14.79,27.92,18.37,79.57,52.04,127.22,86Z"/>
      <path class="cls-46" d="M297.84,1247.02c96.14,56.74,300.8,51.59,400.63-4.7,0,0-37.83-314.77-52.8-389.35-36.31-10.02-85.62-18.04-136.84-18.57-62.78-.65-129.67,10.01-170.42,16.94-10.73,95.15-28,255.15-40.57,395.68Z"/>
      <path class="cls-80" d="M695.3,1216.21c-98.9,54.91-297.9,60.32-395.2,6.22-.75,8.2-1.54,16.51-2.26,24.59,96.14,56.74,300.8,51.59,400.63-4.7l-3.17-26.11Z"/>
      <g>
        <path class="cls-51" d="M483.32,991.11c-24.71,19.45-45.8,25.29-54.12,20-13.16-8.36-14.33-47.71-.95-58.92,13.41-11.24,44.94,7.18,56.1,18.37,7.52,7.54,6.91,14.3-1.03,20.55Z"/>
        <path class="cls-42" d="M481.54,978.63c-6.66-4.31-30.17-16.66-30.54,0-.4,17.88,24.56,4.85,30.54,0Z"/>
        <path class="cls-51" d="M501.35,991.37c24.13,20.17,45.03,26.63,53.51,21.58,13.4-7.96,15.73-47.26,2.68-58.86-13.08-11.63-45.14,5.85-56.61,16.71-7.74,7.32-7.32,14.09.43,20.56Z"/>
        <path class="cls-42" d="M503.49,978.95c6.78-4.12,30.64-15.76,30.52.9-.13,17.88-24.68,4.12-30.52-.9Z"/>
        <path class="cls-51" d="M477.4,978.22c-.14,9.56,6.29,17.41,14.35,17.53,8.07.12,14.72-7.54,14.86-17.1.14-9.56-6.29-17.41-14.35-17.53-8.07-.12-14.72,7.54-14.86,17.1Z"/>
      </g>
      <path class="cls-44" d="M583.85,852.79c.14-4.82-.71-8.52-1.94-13.07-55.51-8.24-123.81-3.54-176.72,1.46-.37,2.08-1.23,4.04-1.29,6.2-1.12,37.27,38.25,68.7,87.95,70.19,49.69,1.5,90.89-27.51,92.01-64.78Z"/>
      <path class="cls-44" d="M559.4,749.29l-1.14,105.22c-.24,22.63-29.2,40.66-64.68,40.28-35.47-.39-64.03-19.04-63.78-41.67l1.04-105.35,128.56,1.51Z"/>
      <path class="cls-53" d="M580.1,835.64c-25.85,37.42-86.02,40.67-134.38,7.26-48.37-33.41-66.62-90.83-40.76-128.26,25.85-37.42,86.02-40.67,134.38-7.26,48.37,33.41,66.62,90.83,40.77,128.25Z"/>
      <g>
        <path class="cls-44" d="M178.12,650.03c15.59,58.3,72.63,94.59,115.29,88.59,42.66-6.01,50.53-53.99,42.63-110.21-7.91-56.22-48.93-97.08-91.57-90.93-58.28,8.4-81,57.75-66.35,112.55Z"/>
        <path class="cls-41" d="M231.55,663.92c3.47,24.65,23.91,42.16,45.66,39.1,21.73-3.06,36.54-25.53,33.07-50.18-3.47-24.65-23.9-42.15-45.64-39.1-21.74,3.06-36.55,25.53-33.09,50.17Z"/>
        <path class="cls-44" d="M813.25,650.84c-15.44,58.34-72.4,94.77-115.07,88.88-42.67-5.9-50.66-53.86-42.9-110.1,7.77-56.24,48.69-97.2,91.35-91.16,58.3,8.26,81.14,57.55,66.62,112.39Z"/>
        <path class="cls-41" d="M758.69,663.26c-3.41,24.66-23.8,42.21-45.54,39.21-21.74-3.01-36.62-25.43-33.21-50.09,3.41-24.66,23.8-42.21,45.54-39.21,21.75,3,36.62,25.43,33.21,50.09Z"/>
        <path class="cls-48" d="M774.62,452.3c-.93,172.32-114.48,249.22-272.93,248.37-158.45-.85-284.3-78.96-283.38-251.28.92-172.32,135.89-220.92,275.35-222.66,143.29-1.78,281.87,53.24,280.95,225.56Z"/>
        <path class="cls-44" d="M721.93,443.31c-26.98-93.29-117.84-119.84-228.56-120.5l-1.22-.05c-110.73.67-201.59,27.25-228.56,120.55-22.6,78.14,4.15,246.89,35.15,296.61,26.2,42.02,120.07,86.13,191.79,85.36.72,0,1.49-.12,2.24-.18.75.06,1.52.17,2.24.18,71.72.77,165.59-43.34,191.79-85.36,31-49.73,57.75-218.47,35.15-296.61Z"/>
        <path class="cls-64" d="M305.26,667.08c-.75,11.12,14.1,21.19,33.18,22.47,19.07,1.29,35.14-6.69,35.89-17.82.75-11.12-14.11-21.18-33.17-22.47-19.07-1.29-35.14,6.69-35.89,17.81Z"/>
        <path class="cls-64" d="M623.18,672.75c.81,11.12,16.92,19.01,35.99,17.62,19.06-1.39,33.86-11.53,33.05-22.65-.81-11.12-16.93-19.01-35.98-17.62-19.07,1.39-33.86,11.53-33.05,22.65Z"/>
        <g>
          <path class="cls-55" d="M580.08,690.53c-3.67-19.1-33.02-14.15-80.97-14.47-2.51-.02-12.27-.02-14.78,0-47.95.32-77.31-4.63-80.97,14.47-7.06,36.8,39.23,76.98,87.93,77.13h.84c48.7-.14,94.99-40.33,87.94-77.13Z"/>
          <path class="cls-83" d="M492.14,768.43h-.85c-15.79-.06-32.17-4.54-47.41-12.92l-.93-.49.78-.7c12.65-11.34,29.7-17.6,47.99-17.6s35.31,6.25,47.99,17.6l.78.7-.93.49c-15.27,8.38-31.68,12.86-47.44,12.92Z"/>
          <path class="cls-27" d="M491.73,700.59c-33.51,0-61.4-10.38-64.89-24.17l-.2-.85h130.19l-.2.85c-3.52,13.79-31.41,24.17-64.89,24.17Z"/>
        </g>
        <path class="cls-40" d="M511.09,651.51c-1.27,0-2.39-.92-2.61-2.21-1.52-9.19-8.79-15.13-18.52-15.13-9.78,0-17.21,6.06-18.5,15.08-.21,1.44-1.56,2.45-2.99,2.24-1.45-.21-2.45-1.54-2.24-2.99,1.65-11.55,11.41-19.62,23.74-19.62,12.25,0,21.79,7.85,23.74,19.55.24,1.44-.74,2.8-2.18,3.04l-.44.04Z"/>
        <path class="cls-47" d="M669.44,470.75c-1.77-.23-3.46-1.08-4.71-2.53-15.99-18.46-49.73-27.37-78.54-20.65-4,.95-8.04-1.56-9-5.6-.94-4.03,1.57-8.05,5.6-9,34.37-7.98,73.61,2.73,93.27,25.47,2.71,3.13,2.36,7.85-.77,10.56-1.67,1.46-3.81,2.03-5.85,1.77Z"/>
        <path class="cls-47" d="M312.73,474.89c-2.05.19-4.17-.46-5.78-1.98-3.03-2.82-3.2-7.55-.38-10.58,20.49-22.01,60.08-31.26,94.13-22.04,4,1.09,6.36,5.21,5.27,9.2-1.09,4.01-5.21,6.36-9.19,5.27-28.54-7.76-62.61-.13-79.25,17.78-1.3,1.4-3.02,2.2-4.8,2.36Z"/>
        <g>
          <path class="cls-10" d="M557.45,561.44c-18.47,26.75-16.23,56.31-.12,67.59,24.27,17,81.74,22.02,103.21-2.35,20.8-23.61,10.82-66.81-23.02-85.5-29.62-16.36-62.2-5.63-80.08,20.27Z"/>
          <path class="cls-56" d="M664.51,554.31c-26.31-41.66-89.75-27.79-107.68,8.04,18.46-26.74,52.5-34.79,79.88-19.68,16.92,9.35,28.93,25.93,32.14,44.35,2.55,14.69-.86,31.14-9.49,40.94,9.94-6.39,24.5-43.01,5.16-73.64Z"/>
          <path class="cls-1" d="M564.2,579.27c-7.58,18.55,1.31,39.74,19.86,47.32,18.55,7.58,39.74-1.31,47.32-19.86,7.58-18.55-1.31-39.73-19.86-47.32-18.55-7.58-39.74,1.31-47.32,19.86Z"/>
          <path class="cls-71" d="M567.16,576.08c-2.1,5.15.36,11.03,5.51,13.13,5.15,2.11,11.03-.36,13.13-5.51s-.36-11.03-5.51-13.13-11.03.36-13.13,5.51Z"/>
        </g>
        <g>
          <path class="cls-10" d="M430.69,560.25c17.98,27.09,15.2,56.6-1.12,67.58-24.58,16.55-82.13,20.52-103.15-4.24-20.37-23.99-9.6-67,24.57-85.06,29.91-15.82,62.29-4.49,79.7,21.73Z"/>
          <path class="cls-56" d="M323.77,551.16c27.06-41.17,90.24-26.15,107.51,10.01-17.97-27.07-51.85-35.75-79.5-21.14-17.09,9.04-29.4,25.4-32.94,43.75-2.82,14.64.28,31.15,8.74,41.11-9.82-6.57-23.71-43.45-3.81-73.73Z"/>
          <circle class="cls-1" cx="389.78" cy="591.06" r="36.29" transform="translate(-198.4 196.94) rotate(-22.77)"/>
          <path class="cls-71" d="M359.15,574.15c-2.1,5.15.37,11.03,5.51,13.13,5.15,2.1,11.03-.36,13.13-5.51,2.11-5.15-.36-11.03-5.51-13.13-5.14-2.11-11.03.36-13.13,5.51Z"/>
        </g>
        <path class="cls-48" d="M799.6,538.78c18.84.83,14.94,22.32-3.97,17.59-17.3-4.32-23.16-51.34-22.88-52.58,11.35,22.89,31.64,17.77,37.24,15.02,7.89-3.89,10.31-12.5,7.97-20.06-1.68-5.46-6.92-9.92-12.63-9.21-8.73,1.08-9.32,10.54-7,12.59,1.75-7.21,11.21-6.52,12.65-1.11,3.35,12.65-11.64,14.15-17.05,11.88-6.55-2.74-15.59-12.11-19.68-51.69,5.14-83.43-41.15-166.95-155.73-170.23-19.78-.57-52.86,14.43-75.4,17.08,106.2,20.35,150.63,51.71,172.82,109.19,26.12,67.65-50.86,209.44,52.64,220.29-14.35.3-22.54-22.51-22.15-32.72,45.74,20.16,74.34,1.93,82.28-18.1,9.22-23.25-8.49-60.89-29.11-47.92Z"/>
        <path class="cls-48" d="M199.26,404.36c-10.19,21.43-24.44,29-39.63,27.8-11.28-.89-22.56-17.28-3.52-31.75-23.29,9.36-18.05,30.98-5.79,38.01,11.1,6.36,33.17,5.38,47.62-13.07-.16,9.14.02,18.61.9,28.78,4.46,51.34-6.59,68.12-19.03,70.28-14.19,2.46-19.13-20.4-.28-20.81-20.33-13.42-49.83,12.06-38.82,46.26,7.47,23.19,48.41,42.82,78.37,9.68,29.4,25.8,6.59,50.8-21.59,44.06,27.13,25.4,71.35,18.47,82.05-35.94,9.52-48.39-16.77-69.6-12.03-134.23,4.62-62.91,114.38-160.47,175.98-177.3-145.19-5.02-234.94,38.1-244.22,148.23Z"/>
        <path class="cls-48" d="M669.24,225.2c-2.22,11.15-9.73,22.96-22.16,20.28,13.09-36.76-6.09-54.74-25.22-60.97-23.97-7.81-54.12,9.68-42.33,29.32,2.04-19.34,29.73-12.39,22.68,6.21-4.94,13.03-43.13,8.11-84.23,4.58-52.58-4.51-215.67-9.69-248.13,82.65,12.9,1.14,44.38,24.67,53.97,32.37,8.87,7.12,78.2,86.92,192.49,86.3-24.02-7.14-96.84-22.11-156.18-77.31,16.48,9.76,39.65,25.34,66.85,31.59,221.5,50.93,261.6-113.62,242.26-155.03Z"/>
        <path class="cls-3" d="M734.5,421.47c17.17-1.89,30.54-8.35,29.87-14.42s-15.13-9.46-32.3-7.57c-17.17,1.89-30.54,8.35-29.87,14.42s15.13,9.47,32.3,7.57ZM738.55,432.72c-17.17,1.89-30.54,8.35-29.87,14.42.67,6.07,15.13,9.46,32.3,7.57,17.17-1.89,30.54-8.35,29.87-14.42-.67-6.07-15.13-9.47-32.29-7.57Z"/>
      </g>
      <path class="cls-44" d="M136.36,827.28c-.46-5.48,64.05-29.73,65.28-24.37,22.42,97.82,56.69,213.18,58.07,234.33-21.4,24.68-70.06,34.92-97.23-15.48-16.84-31.22-20.37-125.74-26.12-194.48Z"/>
      <g>
        <path class="cls-68" d="M234.62,743.26c2.25,41.9-2.38,58.86-15.31,78.22-17.41,26.07-50.99,31.48-76.5,21.02-13.95-5.72-32.62-23.16-55.46-66.68,24.79-8.8,68.44-58.3,109.99-67.07.19,20.33,26.73,28.24,37.28,34.51Z"/>
        <path class="cls-65" d="M182.04,806.61c-32.42,22.85-69.84,5.11-83.23-24.68,7.63-2.59,47.87-57.99,75.49-63.82,28.59,2.5,22.54,37.87,32.09,35.85-18.72,8.71-31.32,28.79-24.34,52.65Z"/>
      </g>
      <g>
        <path class="cls-26" d="M434.18,662.68c-46.66,37.2-114.65,29.54-151.85-17.13-37.2-46.67-29.54-114.65,17.13-151.86,46.67-37.2,114.65-29.53,151.86,17.13,37.2,46.66,29.54,114.65-17.13,151.85Z"/>
        <path class="cls-28" d="M461.48,537.34l-93.03,140.56c11.61-.08,23.11-2.16,34.24-6.25l66.63-100.67c-.59-11.46-3.33-22.76-7.85-33.63ZM447.43,512.68c-5.12-6.42-10.99-11.81-17.19-16.65l-112.13,169.42c7.59,4.22,15.68,7.13,23.97,9.27l106.29-160.58c-.36-.47-.57-1-.94-1.46ZM371.66,474.76l-96.05,145.12c3.3,6.97,7.22,13.74,12.23,20.02,5.94,7.45,12.92,13.44,20.28,18.75l112.13-169.42c-14.88-8.99-31.55-13.79-48.59-14.48Z"/>
        <path class="cls-79" d="M458.1,503.99c-39.88-50.02-112.75-58.24-162.77-18.36-50.02,39.88-58.24,112.75-18.36,162.77,39.88,50.02,112.75,58.24,162.77,18.36,50.02-39.88,58.24-112.75,18.36-162.77ZM288.26,639.4c-34.91-43.79-27.71-107.58,16.07-142.48,43.79-34.91,107.58-27.71,142.48,16.07,34.91,43.78,27.71,107.57-16.07,142.48-43.78,34.91-107.57,27.71-142.48-16.07Z"/>
        <rect class="cls-79" x="238.63" y="652.61" width="49.02" height="25.04" transform="translate(-357.29 309.18) rotate(-38.57)"/>
        <path class="cls-5" d="M103.67,818.74s-10.97,5.62-22.25-9.38c-10.55-14.02-3.36-22.74-3.36-22.74l155.48-123.96,25.61,32.12-155.48,123.96Z"/>
      </g>
      <g>
        <path class="cls-68" d="M170.4,726.91c8.29,19.48,7.82,38.02-1.05,41.41-8.87,3.39-22.79-9.66-31.09-29.14-8.3-19.48-7.83-38.02,1.05-41.41,8.87-3.39,22.79,9.66,31.09,29.14Z"/>
        <path class="cls-68" d="M198.4,714.95c5.73,20.23,2.76,38.17-6.64,40.08-9.4,1.9-21.66-12.95-27.39-33.18-5.73-20.23-2.76-38.17,6.64-40.08,9.4-1.9,21.66,12.95,27.39,33.18Z"/>
        <path class="cls-68" d="M143.49,742.76c10.56,18.5,12.03,37.51,3.29,42.44-8.74,4.94-24.39-6.06-34.95-24.57-10.56-18.5-12.03-37.51-3.29-42.44,8.75-4.94,24.39,6.06,34.96,24.57Z"/>
        <path class="cls-68" d="M121.24,763.94c13.25,14.47,18.59,31.74,11.94,38.58-6.66,6.84-22.8.65-36.05-13.82-13.25-14.47-18.59-31.74-11.94-38.58,6.66-6.84,22.8-.65,36.05,13.82Z"/>
        <path class="cls-35" d="M163.83,732.79c-1.71,11.48,2.5,29.15,21.18,31.51,17.28,2.19,40.4-6.32,42.11-17.8,1.71-11.48-11.93-23.79-30.46-27.5-18.53-3.71-31.12,2.31-32.82,13.79Z"/>
        <path class="cls-68" d="M163.83,732.79c-1.62,10.92,12.92,22.94,32.49,26.86,19.57,3.92,36.74-1.76,38.37-12.67,1.62-10.92-12.92-22.94-32.49-26.86-19.57-3.92-36.74,1.76-38.37,12.68Z"/>
      </g>
      <path class="cls-44" d="M582.85,1114.13c11.66,2.84,35.89-3.99,48.12.49,0,0,.72.45,1.12.87-24.91,2.47-45.21,13.77-64.74,19.74-5.06,27.56,30.39,8.78,67.9,1.78-22.08,7.59-36,15.32-51.33,19.82-11.38,11.83-5.74,19.91,9.91,17.02,12.09-2.23,33-9.91,54.78-14.49,1.96.45-44.26,22.03-48.3,32.74,1.69,5.44,11.48,8.67,25.64,2.09,7.66-3.56,15.55-9.14,33.24-14.8,15.45,1.12,29.03,9.42,35.25,11.59,23.33,5.13,33.79-26.85,33.72-33.53-.19-17.35-32.07-49.52-51.29-55.3-32.22-9.7-48.16-15.45-99.04-1.63-8.83,5.95-.65,12.2,5.02,13.59Z"/>
    </g>
    <rect class="cls-38" x="4.5" y="4.5" width="3046.67" height="2000"/>
    <g>
      <path d="M1124.6,899.04h-57.56v-38.47c0-11.19-.62-18.17-1.85-20.94-1.23-2.77-3.94-4.16-8.13-4.16-4.74,0-7.75,1.69-9.02,5.06-1.28,3.37-1.91,10.66-1.91,21.88v102.81c0,10.76.64,17.77,1.91,21.05,1.28,3.28,4.15,4.92,8.61,4.92s7.09-1.64,8.41-4.93c1.32-3.29,1.98-11.01,1.98-23.16v-27.82h57.56v8.63c0,22.91-1.62,39.16-4.85,48.74-3.24,9.58-10.39,17.98-21.46,25.19-11.07,7.21-24.72,10.82-40.95,10.82s-30.76-3.05-41.7-9.16-18.18-14.56-21.74-25.36-5.33-27.05-5.33-48.74v-64.67c0-15.95.55-27.91,1.64-35.89,1.09-7.97,4.35-15.65,9.78-23.04,5.42-7.38,12.94-13.19,22.56-17.43,9.62-4.24,20.67-6.36,33.15-6.36,16.95,0,30.94,3.28,41.97,9.83,11.03,6.55,18.27,14.73,21.74,24.51,3.46,9.78,5.2,25.01,5.2,45.67v21.03Z"/>
      <path d="M1192.96,912.85h-51.82v-12.17c0-14.04,1.62-24.86,4.85-32.47,3.23-7.61,9.73-14.33,19.48-20.17,9.75-5.83,22.42-8.75,38.01-8.75,18.68,0,32.77,3.3,42.25,9.91,9.48,6.61,15.18,14.72,17.09,24.34,1.91,9.62,2.87,29.42,2.87,59.4v91.05h-53.73v-16.17c-3.37,6.48-7.72,11.35-13.06,14.59-5.33,3.24-11.69,4.86-19.07,4.86-9.66,0-18.53-2.71-26.59-8.13s-12.1-17.29-12.1-35.62v-14.9c0-13.58,2.14-22.83,6.43-27.75,4.28-4.92,14.9-10.66,31.86-17.23,18.14-7.11,27.84-11.89,29.12-14.36,1.28-2.46,1.91-7.47,1.91-15.04,0-9.48-.71-15.65-2.12-18.53-1.41-2.87-3.76-4.31-7.04-4.31-3.74,0-6.06,1.21-6.97,3.62-.91,2.42-1.37,8.68-1.37,18.8v19ZM1210.46,937.74c-8.84,6.47-13.97,11.89-15.38,16.27-1.41,4.38-2.12,10.66-2.12,18.87,0,9.39.62,15.45,1.85,18.18s3.67,4.1,7.31,4.1,5.72-1.07,6.77-3.21c1.05-2.14,1.57-7.77,1.57-16.88v-37.32Z"/>
      <path d="M1340.89,842.58l-.96,16.71c4.01-6.67,8.91-11.66,14.7-15,5.79-3.33,12.46-5,20.03-5,9.48,0,17.23,2.23,23.24,6.7,6.02,4.47,9.89,10.1,11.62,16.88,1.73,6.79,2.6,18.12,2.6,33.97v127.15h-55.23v-125.64c0-12.49-.41-20.1-1.23-22.83s-3.1-4.1-6.84-4.1c-3.92,0-6.38,1.57-7.38,4.72-1,3.14-1.5,11.55-1.5,25.22v122.64h-55.23v-181.43h56.19Z"/>
      <path d="M1604.75,802.66l-41.97,141.23v80.12h-53.32v-80.12l-40.47-141.23h52.88c8.26,43.21,12.92,72.28,13.98,87.23,3.19-23.62,8.53-52.69,16.03-87.23h52.88Z"/>
      <path d="M1725.34,906.29v44.43c0,16.32-.82,28.28-2.46,35.89-1.64,7.61-5.15,14.72-10.53,21.33-5.38,6.61-12.28,11.48-20.71,14.63-8.43,3.14-18.12,4.72-29.05,4.72-12.21,0-22.56-1.35-31.04-4.03s-15.06-6.74-19.76-12.17c-4.7-5.42-8.04-11.98-10.05-19.69-2.01-7.7-3.01-19.25-3.01-34.66v-46.48c0-16.86,1.82-30.03,5.47-39.51,3.64-9.48,10.21-17.09,19.69-22.83,9.48-5.74,21.6-8.61,36.37-8.61,12.39,0,23.04,1.85,31.92,5.54s15.74,8.5,20.58,14.42c4.83,5.93,8.13,12.03,9.91,18.32s2.67,15.86,2.67,28.71ZM1670.11,892.62c0-9.3-.5-15.15-1.5-17.57-1-2.41-3.14-3.62-6.43-3.62s-5.47,1.21-6.56,3.62c-1.09,2.42-1.64,8.27-1.64,17.57v81.89c0,8.57.55,14.15,1.64,16.75s3.23,3.9,6.43,3.9,5.45-1.18,6.49-3.55c1.05-2.37,1.57-7.47,1.57-15.31v-83.67Z"/>
      <path d="M1869.99,842.58v181.43h-56.19l.96-15.07c-3.83,6.12-8.54,10.71-14.15,13.77-5.61,3.06-12.05,4.59-19.35,4.59-8.29,0-15.18-1.46-20.64-4.38s-9.5-6.79-12.1-11.62c-2.6-4.83-4.22-9.87-4.85-15.11-.64-5.24-.96-15.65-.96-31.24v-122.36h55.23v123.46c0,14.13.43,22.51,1.3,25.16.87,2.64,3.21,3.96,7.04,3.96,4.1,0,6.54-1.37,7.31-4.1.77-2.73,1.16-11.53,1.16-26.39v-122.09h55.23Z"/>
      <path d="M1940.81,802.66h97.48v44.3h-39.92v41.97h35.55v42.11h-35.55v92.97h-57.56v-221.35Z"/>
      <path d="M2107.47,802.66v28.85h-56.88v-28.85h56.88ZM2107.47,842.58v181.43h-56.88v-181.43h56.88Z"/>
      <path d="M2183.48,842.58l-.96,16.71c4.01-6.67,8.91-11.66,14.7-15,5.79-3.33,12.46-5,20.03-5,9.48,0,17.23,2.23,23.24,6.7,6.02,4.47,9.89,10.1,11.62,16.88,1.73,6.79,2.6,18.12,2.6,33.97v127.15h-55.23v-125.64c0-12.49-.41-20.1-1.23-22.83s-3.1-4.1-6.84-4.1c-3.92,0-6.38,1.57-7.38,4.72-1,3.14-1.5,11.55-1.5,25.22v122.64h-55.23v-181.43h56.19Z"/>
      <path d="M2399.36,802.66v221.35h-55.23v-13.16c-5.29,5.48-10.85,9.59-16.68,12.33-5.83,2.74-11.94,4.11-18.32,4.11-8.57,0-16-2.26-22.29-6.77s-10.32-9.73-12.1-15.65c-1.78-5.92-2.67-15.59-2.67-28.98v-84.9c0-13.95.89-23.83,2.67-29.67,1.78-5.83,5.86-10.96,12.24-15.38,6.38-4.42,13.99-6.63,22.83-6.63,6.84,0,13.1,1.23,18.8,3.7,5.7,2.47,10.87,6.17,15.52,11.1v-51.44h55.23ZM2344.13,888.24c0-6.65-.57-11.12-1.71-13.4-1.14-2.28-3.4-3.42-6.77-3.42s-5.49,1.03-6.63,3.08c-1.14,2.05-1.71,6.63-1.71,13.74v88.87c0,7.38.55,12.24,1.64,14.56s3.19,3.49,6.29,3.49c3.55,0,5.92-1.3,7.11-3.9,1.18-2.6,1.78-8.96,1.78-19.07v-83.95Z"/>
      <path d="M2527.74,802.66v221.35h-57.56v-221.35h57.56Z"/>
      <path d="M2607.45,818.38v28.57h14.9v28.71h-14.9v97.07c0,11.94.62,18.59,1.85,19.96s6.36,2.05,15.38,2.05v29.26h-22.29c-12.58,0-21.56-.52-26.93-1.57-5.38-1.05-10.12-3.46-14.22-7.25-4.1-3.78-6.65-8.11-7.66-12.99-1-4.88-1.5-16.34-1.5-34.38v-92.15h-11.89v-28.71h11.89v-28.57h55.37Z"/>
      <path d="M2691.39,874.02h-55.23c.18-19.41,1.82-33.59,4.92-42.52,3.1-8.93,9.82-16.75,20.17-23.45,10.34-6.7,23.54-10.05,39.58-10.05,11.57,0,21.69,1.82,30.35,5.47,8.66,3.65,15.54,8.73,20.64,15.24,5.1,6.52,8.84,13.56,11.21,21.12,2.37,7.57,3.55,19.41,3.55,35.55v27.07c0,12.3-1.14,22.2-3.42,29.67-2.28,7.47-7.25,14.04-14.9,19.69-7.66,5.65-16.63,8.48-26.93,8.48-13.4,0-23.38-5.24-29.94-15.72v23.79h-51.54v-60.84h50.31c.18,8.39,3.19,12.58,9.02,12.58,4.56,0,7.45-1.85,8.68-5.54s1.85-12.74,1.85-27.14v-36.78c0-8.11-.57-13.56-1.71-16.34-1.14-2.78-3.4-4.17-6.77-4.17-4.19,0-6.88,1.85-8.07,5.54-1.19,3.69-1.78,12.01-1.78,24.95v13.4ZM2691.39,979.71v44.3h-51.54v-44.3h51.54Z"/>
    </g>
    <g id="g6849">
      <g id="g6851">
        <g class="cls-81">
          <g id="g6853">
            <g id="g6859">
              <path id="path6861" class="cls-24" d="M2529.12,153.21c0-15.17-12.3-27.47-27.47-27.47h0c-15.17,0-27.47,12.3-27.47,27.47h0c0,15.17,12.3,27.47,27.47,27.47h0c15.17,0,27.47-12.3,27.47-27.47Z"/>
            </g>
            <g id="g6863">
              <path id="path6865" class="cls-82" d="M2529.12,153.21c0,7.59-3.08,14.46-8.04,19.43-4.98,4.97-11.84,8.04-19.43,8.04-5.53,0-10.68-1.64-14.99-4.46,1.61-1.03,3.1-2.24,4.45-3.59,4.97-4.98,8.04-11.84,8.04-19.43,0-9.64-4.97-18.13-12.49-23.02,4.31-2.82,9.45-4.46,14.99-4.46,15.18,0,27.47,12.3,27.47,27.47"/>
            </g>
            <g id="g6867">
              <path id="path6869" class="cls-58" d="M2734.92,598.28h-466.54c-8.28,0-14.99-6.71-14.99-14.99V238.63c0-8.28,6.71-14.99,14.99-14.99h466.54c8.28,0,14.99,6.71,14.99,14.99v344.66c0,8.28-6.71,14.99-14.99,14.99"/>
            </g>
            <g id="g6871">
              <path id="path6873" class="cls-39" d="M2745.51,593.88c-2.71,2.72-6.45,4.4-10.59,4.4h-466.54c-4.14,0-7.88-1.68-10.59-4.4l27.03-27.03c.91.9,2.16,1.46,3.54,1.46h426.58c1.38,0,2.63-.56,3.54-1.46l27.03,27.03Z"/>
            </g>
            <g id="g6875">
              <path id="path6877" class="cls-39" d="M2745.51,228.04l-27.03,27.03c-.91-.9-2.16-1.46-3.54-1.46h-426.58c-1.38,0-2.63.56-3.54,1.46l-27.03-27.03c2.71-2.72,6.45-4.4,10.59-4.4h466.54c4.14,0,7.88,1.68,10.59,4.4"/>
            </g>
            <g id="g6879">
              <path id="path6881" class="cls-27" d="M2714.94,568.31h-426.58c-2.76,0-5-2.24-5-5v-304.7c0-2.76,2.24-5,5-5h426.58c2.76,0,5,2.24,5,5v304.7c0,2.76-2.24,5-5,5"/>
            </g>
            <g id="g6883">
              <path id="path6885" class="cls-39" d="M2667.9,491.3l-138.78,4.58v-84.87h142.15c3.28,2.77,5.39,5.02,5.39,5.02,4,4.27,6.45,10.01,6.45,16.32,0,5.72-2.01,10.96-5.37,15.07-1.07,1.31-1.07,3.15,0,4.46,3.35,4.11,5.37,9.36,5.37,15.07,0,7.36-3.33,13.95-8.57,18.33,0,0-1.86,1.88-3.93,3.73l-2.71,2.28Z"/>
            </g>
            <g id="g6887">
              <path id="path6889" class="cls-58" d="M2677.74,451.88c3.35,4.12,5.36,9.36,5.36,15.08,0,3.69-.84,7.16-2.32,10.28-1.5,3.12-3.64,5.85-6.25,8.05,0,0-1.87,1.88-3.93,3.73l-2.71,2.29h-29.97l2.71-2.29c2.06-1.85,3.93-3.73,3.93-3.73,2.62-2.2,4.76-4.94,6.25-8.05,1.48-3.12,2.32-6.59,2.32-10.28,0-5.71-2.02-10.96-5.36-15.08-1.07-1.31-1.07-3.16,0-4.47,1.67-2.05,3.02-4.39,3.94-6.93.93-2.54,1.43-5.27,1.43-8.13,0-6.31-2.45-12.06-6.45-16.32,0,0-2.11-2.26-5.38-5.03h29.97c3.28,2.77,5.38,5.03,5.38,5.03,4.01,4.27,6.45,10.01,6.45,16.32,0,2.86-.5,5.59-1.43,8.13-.92,2.55-2.27,4.89-3.94,6.93-1.07,1.31-1.07,3.16,0,4.47"/>
            </g>
            <g id="g6891">
              <path id="path6893" class="cls-66" d="M2322.32,512.81c0-16.17,12.74-29.42,28.91-29.42h136.43v84.92h-165.34v-55.5Z"/>
            </g>
            <g id="g6895">
              <path id="path6897" class="cls-31" d="M2505.97,483.39h146.09c15.97,0,28.91,12.94,28.91,28.91v56.01h-182.82l7.82-84.92Z"/>
            </g>
            <g id="g6899">
              <path id="path6901" class="cls-31" d="M2505.97,483.39h146.09c15.97,0,28.91,12.94,28.91,28.91v56.01h-182.82l7.82-84.92Z"/>
            </g>
            <g id="g6903">
              <path id="path6905" class="cls-76" d="M2680.97,512.29v56.02h-18.98v-56.02c0-15.96-12.94-28.9-28.9-28.9h18.98c15.96,0,28.9,12.94,28.9,28.9"/>
            </g>
            <g id="g6907">
              <path id="path6909" class="cls-52" d="M2578.87,442.93v40.83c0,11.12,8.91,20.13,20.03,20.13h-.1c11.12,0,20.03-9.01,20.03-20.13v-40.83h-39.96Z"/>
            </g>
            <g id="g6911">
              <path id="path6913" class="cls-52" d="M2424.22,442.93v40.83c0,11.12-8.91,20.13-20.03,20.13h.1c-11.12,0-20.03-9.01-20.03-20.13v-40.83h39.96Z"/>
            </g>
            <g id="g6915">
              <path id="path6917" class="cls-52" d="M2361.78,377.49h-27.39c-9.18,0-17.07,7.43-17.07,16.61v.13c0,9.18,7.89,17.23,17.07,17.23h27.39v-33.97Z"/>
            </g>
            <g id="g6919">
              <path id="path6921" class="cls-33" d="M2344.3,337.03v66.87c0,33.35,26.86,60.37,60.22,60.37s60.22-27.02,60.22-60.37v-66.87h-120.43Z"/>
            </g>
            <g id="g6923">
              <path id="path6925" class="cls-52" d="M2651.5,377.49h17.4c9.18,0,17.07,7.43,17.07,16.61v.13c0,9.18-7.89,17.23-17.07,17.23h-17.4v-33.97Z"/>
            </g>
            <g id="g6927">
              <path id="path6929" class="cls-33" d="M2658.99,337.03v66.87c0,33.35-26.86,60.37-60.22,60.37s-60.22-27.02-60.22-60.37v-66.87h120.43Z"/>
            </g>
            <g id="g6931">
              <path id="path6933" class="cls-52" d="M2658.99,337.03v66.87c0,33.35-26.86,60.36-60.21,60.36-3.23,0-6.4-.25-9.49-.75,28.81-4.55,50.72-29.49,50.72-59.61v-66.87h18.98Z"/>
            </g>
            <g id="g6935">
              <path id="path6937" class="cls-66" d="M2476.42,336.15l-14.83,41.34h-11.5c-9.08,0-16.61-6.45-18.05-15.13-.29-1.75-1.83-2.86-3.6-2.86h-48.25c-1.77,0-3.31,1.11-3.6,2.86-1.44,8.67-8.97,15.13-18.05,15.13h-24.15c-.36,0-.73,0-1.09.04v-39.01c0-26.27,20.92-47.94,47.19-47.94h47.58c23.11,0,42.56,16.54,46.86,38.39l1.47,7.18Z"/>
            </g>
            <g id="g6939">
              <path id="path6941" class="cls-39" d="M2681.72,367.57c0,4.64-1.32,8.96-3.62,12.62-2.69-1.71-5.86-2.7-9.21-2.7h-20.49c-6.06,0-11.39-5.09-11.39-11.15v-4.4c0-2.02-1.23-3.44-3.25-3.44h-69.54c-.42,0-.76.05-1.14.18,0,0-4.67.49-10.16,3.32s-29.36-27.28-29.36-27.28c-.63-3.81.28-7.32.28-7.32,1.26-5.25,4.25-9.84,8.33-13.11,4.09-3.27,9.27-5.22,14.91-5.22.56,0,1.12.02,1.68.06,3.26.23,6.31-1.81,7.21-4.96,1.44-4.99,4.46-9.29,8.47-12.36,4.02-3.08,9.03-4.9,14.48-4.9,5.96,0,11.42,2.19,15.6,5.81,2.55,2.2,6.39,2.2,8.94,0,2.1-1.82,4.51-3.27,7.13-4.27,2.64-1,5.49-1.55,8.47-1.55,10.89,0,20.07,7.29,22.95,17.25.9,3.15,3.96,5.18,7.22,4.96.55-.04,1.11-.06,1.68-.06,6.59,0,12.57,2.68,16.88,7,4.32,4.32,6.99,10.29,6.99,16.88,0,3.41-.71,6.64-2,9.57-1.15,2.62-.68,5.68,1.4,7.64,2.32,2.18,4.2,4.82,5.49,7.76,1.3,2.95,2.03,6.21,2.03,9.64"/>
            </g>
            <g id="g6943">
              <path id="path6945" class="cls-58" d="M2681.72,367.57c0,4.64-1.32,8.96-3.62,12.62-2.69-1.71-5.86-2.7-9.21-2.7h-19.31c1.4-3.02,2.17-6.37,2.17-9.92s-.73-6.69-2.03-9.64c-1.3-2.95-3.18-5.58-5.49-7.76-2.08-1.96-2.55-5.03-1.4-7.64,1.29-2.93,2-6.16,2-9.57,0-6.59-2.68-12.57-6.99-16.88-4.32-4.33-10.29-7-16.88-7-.57,0-1.13.02-1.68.06-3.27.23-6.32-1.81-7.22-4.96-1.38-4.78-4.2-8.92-7.96-11.95,1.95-1.59,4.14-2.86,6.51-3.76,2.64-1,5.49-1.55,8.47-1.55,10.89,0,20.07,7.29,22.95,17.25.9,3.15,3.96,5.18,7.22,4.96.55-.04,1.11-.06,1.68-.06,6.59,0,12.57,2.68,16.88,7,4.32,4.32,6.99,10.29,6.99,16.88,0,3.41-.71,6.64-2,9.57-1.15,2.62-.68,5.68,1.4,7.64,2.32,2.18,4.2,4.82,5.49,7.76,1.3,2.95,2.03,6.21,2.03,9.64"/>
            </g>
            <g id="g6947">
              <path id="path6949" class="cls-54" d="M2421.22,568.31v-18.05c0-15.81,12.82-28.9,28.63-28.9h103.75c15.81,0,28.46,13.09,28.46,28.9v18.05h-160.84Z"/>
            </g>
            <g id="g6951">
              <path id="path6953" class="cls-49" d="M2582.07,550.25v18.05h-18.98v-18.05c0-15.8-12.65-28.9-28.46-28.9h18.98c15.81,0,28.46,13.1,28.46,28.9"/>
            </g>
            <g id="g6955">
              <path id="path6957" class="cls-52" d="M2542.6,416.45h28.13c8.97,0,16.32,7.45,16.32,16.42v.13c0,8.97-7.35,16.42-16.32,16.42h-28.13v-32.97Z"/>
            </g>
            <g id="g6959">
              <path id="path6961" class="cls-52" d="M2450.69,449.42h-18.14c-8.97,0-16.32-7.44-16.32-16.42v-.13c0-8.97,7.35-16.42,16.32-16.42h18.14v32.97Z"/>
            </g>
            <g id="g6963">
              <path id="path6965" class="cls-52" d="M2482.16,489.88v31.47c0,10.87,8.62,20.02,19.49,20.02h.06c10.87,0,19.41-9.15,19.41-20.02v-31.47h-38.96Z"/>
            </g>
            <g id="g6967">
              <path id="path6969" class="cls-33" d="M2443.2,395.97v46.48c0,32.6,25.93,58.91,58.53,58.91h-.08c32.6,0,58.44-26.31,58.44-58.91v-45.48l-116.89-1Z"/>
            </g>
            <g id="g6971">
              <path id="path6973" class="cls-52" d="M2560.09,396.97v45.49c0,32.57-25.79,58.87-58.36,58.91h-.08c-3.23,0-6.38-.27-9.45-.77,27.97-4.54,48.91-28.79,48.91-58.14v-45.49h18.98Z"/>
            </g>
            <g id="g6975">
              <path id="path6977" class="cls-39" d="M2571.08,398.07v18.39c-.11,0-.23,0-.34,0h-24.29c-8.8,0-16.12-6.37-17.61-14.79-.3-1.74-1.83-3.2-3.59-3.2h-47.03c-1.77,0-3.29,1.46-3.6,3.2-1.49,8.41-8.81,14.79-17.61,14.79h-24.46c-.11,0-.23,0-.34,0v-18.39c0-38.53,30.74-69.53,69.27-69.53h.08c38.53,0,69.51,31,69.51,69.53"/>
            </g>
            <g id="g6979">
              <path id="path6981" class="cls-58" d="M2571.08,398.07v18.39c-.11,0-.23,0-.34,0h-24.29c-1.86,0-3.66-.29-5.34-.82v-17.56c0-33.4-23.27-61.13-54.56-67.92,4.81-1.06,9.8-1.61,14.94-1.61h.08c38.53,0,69.51,31,69.51,69.53"/>
            </g>
            <g id="g6983">
              <path id="path6985" class="cls-37" d="M2749.9,323.8v259.5c0,8.28-6.71,14.99-14.99,14.99h-466.54c-8.28,0-14.99-6.71-14.99-14.99V238.63c0-8.28,6.71-14.99,14.99-14.99h466.54c8.28,0,14.99,6.71,14.99,14.99v50.2"/>
            </g>
            <g id="g6987">
              <path id="path6989" class="cls-37" d="M2322.32,568.31h-33.97c-2.76,0-5-2.24-5-5v-304.7c0-2.76,2.24-5,5-5h426.58c2.76,0,5,2.24,5,5v304.7c0,2.76-2.24,5-5,5h-357.65"/>
            </g>
            <g id="g6991">
              <path id="path6993" class="cls-37" d="M2283.36,253.61l-24.72-24.72"/>
            </g>
            <g id="g6995">
              <path id="path6997" class="cls-37" d="M2719.93,253.61l23.79-23.79"/>
            </g>
            <g id="g6999">
              <path id="path7001" class="cls-37" d="M2744.78,593.16l-24.85-24.85"/>
            </g>
            <g id="g7003">
              <path id="path7005" class="cls-37" d="M2258.38,593.28l24.98-24.98"/>
            </g>
            <g id="g7007">
              <path id="path7009" class="cls-37" d="M2457.69,483.39h-32.97"/>
            </g>
            <g id="g7011">
              <path id="path7013" class="cls-37" d="M2383.76,483.39h-32.53c-16.17,0-28.91,13.25-28.91,29.42v55.5"/>
            </g>
            <g id="g7015">
              <path id="path7017" class="cls-37" d="M2424.22,462.91v20.85c0,11.12-8.91,20.13-20.03,20.13h.1c-11.12,0-20.03-9.01-20.03-20.13v-20.85"/>
            </g>
            <g id="g7019">
              <path id="path7021" class="cls-37" d="M2343.8,377.49h-9.41c-9.18,0-17.07,7.43-17.07,16.61v.13c0,9.18,7.89,17.23,17.07,17.23h7.41"/>
            </g>
            <g id="g7023">
              <path id="path7025" class="cls-37" d="M2333.31,376.99v-38.47c0-26.28,20.92-47.95,47.2-47.95h47.58c23.11,0,42.56,16.54,46.87,38.39"/>
            </g>
            <g id="g7027">
              <path id="path7029" class="cls-37" d="M2343.8,377.49h14.75c9.08,0,16.61-6.45,18.05-15.12.29-1.75,1.83-2.86,3.6-2.86h48.2c1.78,0,3.31,1.03,3.6,2.79.5,3,1.68,5.72,3.45,8.03"/>
            </g>
            <g id="g7031">
              <path id="path7033" class="cls-37" d="M2658.99,377.49h9.91c9.18,0,17.07,7.43,17.07,16.61v.13c0,9.18-7.89,17.23-17.07,17.23h-9.72"/>
            </g>
            <g id="g7035">
              <path id="path7037" class="cls-37" d="M2619.03,483.39h33.03c15.96,0,28.91,12.94,28.91,28.91v54.18"/>
            </g>
            <g id="g7039">
              <path id="path7041" class="cls-37" d="M2577.57,483.39h-31.64c-.43,0-1.48.06-1.91.08"/>
            </g>
            <g id="g7043">
              <path id="path7045" class="cls-37" d="M2670.61,489.01c2.06-1.85,3.92-3.73,3.92-3.73,5.24-4.38,8.57-10.97,8.57-18.33,0-5.72-2.01-10.96-5.37-15.07-1.07-1.31-1.07-3.16,0-4.46,3.35-4.11,5.37-9.36,5.37-15.07,0-6.31-2.45-12.05-6.45-16.32,0,0-1.73-1.85-4.49-4.25"/>
            </g>
            <g id="g7047">
              <path id="path7049" class="cls-37" d="M2670.04,489.51c.19-.17.38-.33.56-.5"/>
            </g>
            <g id="g7051">
              <path id="path7053" class="cls-37" d="M2678.41,379.71c2.1-3.56,3.31-7.71,3.31-12.14,0-6.86-2.89-13.04-7.52-17.4-2.08-1.95-2.54-5.03-1.4-7.64,1.28-2.93,2-6.17,2-9.57,0-13.19-10.69-23.88-23.88-23.88h0c-.56,0-1.12.02-1.68.06-3.26.23-6.31-1.81-7.22-4.96-2.87-9.97-12.06-17.26-22.94-17.26h0c-5.97,0-11.42,2.19-15.6,5.81-2.55,2.2-6.39,2.2-8.94,0-4.18-3.62-9.64-5.81-15.6-5.81h0c-10.89,0-20.07,7.29-22.94,17.26-.91,3.14-3.96,5.18-7.22,4.96-.55-.04-1.11-.06-1.68-.06h0c-11.28,0-20.73,7.82-23.23,18.33"/>
            </g>
            <g id="g7055">
              <path id="path7057" class="cls-37" d="M2563.08,358.69c.37-.13.72-.17,1.14-.17h69.54c2.02,0,3.25,1.41,3.25,3.44v4.39c0,6.06,5.33,11.15,11.39,11.15h10.59"/>
            </g>
            <g id="g7059">
              <path id="path7061" class="cls-37" d="M2582.07,565.81v-15.55c0-15.81-12.65-28.9-28.46-28.9h-31.98"/>
            </g>
            <g id="g7063">
              <path id="path7065" class="cls-37" d="M2481.66,521.35h-31.81c-15.81,0-28.63,13.09-28.63,28.9v15.55"/>
            </g>
            <g id="g7067">
              <path id="path7069" class="cls-37" d="M2443.2,416.45v26c0,32.6,25.93,58.91,58.53,58.91h-.08c32.6,0,58.44-26.31,58.44-58.91v-26"/>
            </g>
            <g id="g7071">
              <path id="path7073" class="cls-37" d="M2521.13,499.87v21.48c0,10.87-8.54,20.02-19.41,20.02h-.06c-10.87,0-19.49-9.15-19.49-20.02v-21.48"/>
            </g>
            <g id="g7075">
              <path id="path7077" class="cls-37" d="M2560.09,416.45h10.65c8.97,0,16.32,7.45,16.32,16.42v.13c0,8.97-7.35,16.42-16.32,16.42h-10.15"/>
            </g>
            <g id="g7079">
              <path id="path7081" class="cls-37" d="M2443.2,416.45h-10.65c-8.97,0-16.32,7.45-16.32,16.42v.13c0,8.97,7.35,16.42,16.32,16.42h10.65"/>
            </g>
            <g id="g7083">
              <path id="path7085" class="cls-37" d="M2432.21,415.96v-17.88c0-38.53,30.74-69.53,69.27-69.53h.09c38.53,0,69.51,31,69.51,69.53v17.88"/>
            </g>
            <g id="g7087">
              <path id="path7089" class="cls-37" d="M2443.2,416.45h13.81c8.8,0,16.12-6.37,17.61-14.79.31-1.73,1.83-3.2,3.59-3.2h47.03c1.76,0,3.29,1.46,3.59,3.2,1.49,8.42,8.81,14.79,17.61,14.79h13.63"/>
            </g>
            <g id="g7091">
              <path id="path7093" class="cls-37" d="M2658.99,377.49v26.41c0,33.35-26.86,60.37-60.22,60.37-14.7,0-28.14-5.25-38.58-13.98"/>
            </g>
            <g id="g7095">
              <path id="path7097" class="cls-37" d="M2529.12,153.21c0-15.17-12.3-27.47-27.47-27.47h0c-15.17,0-27.47,12.3-27.47,27.47h0c0,15.17,12.3,27.47,27.47,27.47h0c15.17,0,27.47-12.3,27.47-27.47Z"/>
            </g>
            <g id="g7099">
              <path id="path7101" class="cls-37" d="M2527.8,165.92l120.7,57.73"/>
            </g>
            <g id="g7103">
              <path id="path7105" class="cls-37" d="M2476.19,165.58l-121.41,58.07"/>
            </g>
            <g id="g7107">
              <path id="path7109" class="cls-37" d="M2618.83,462.91v20.85c0,11.12-8.91,20.13-20.03,20.13h.1c-11.12,0-20.03-9.01-20.03-20.13v-20.85"/>
            </g>
            <g id="g7111">
              <path id="path7113" class="cls-37" d="M2443.2,450.2c-10.45,8.78-23.93,14.07-38.69,14.07-33.35,0-60.22-27.02-60.22-60.37v-26.41"/>
            </g>
          </g>
        </g>
      </g>
    </g>
    <g>
      <path class="cls-29" d="M2772.67,1690.6c0,40.86-26.57,97.33-58.7,128.18-14.25,13.7-29.59,22.34-44.2,22.34-9.23,0-18.44-1.48-26.37-3.88-10.86-3.29-22.4-3.29-33.26,0-7.92,2.39-17.13,3.88-26.37,3.88-15.31,0-31.43-9.5-46.25-24.35-31.2-31.24-56.65-86.19-56.65-126.17,0-58.99,35.29-94.63,68.47-103.24,15.89-4.12,34.34-1.47,49.23,2.41,15.4,4.01,31.41,4.69,47.01,2.02,3.15-.54,6.27-1.21,9.37-2.02,14.9-3.88,33.33-6.53,49.23-2.41,33.18,8.6,68.47,44.24,68.47,103.24Z"/>
      <path class="cls-73" d="M2713.97,1818.78c-39.43,6.97-69.79,5.04-92.67-.5-37.36-9.05-65.16-40.56-69.79-78.72-11.6-95.58,50.85-123.41,50.85-123.41,18.3,8.32,38.89,3.88,38.89,3.88-13.13-13.13,4.36-28.23,4.36-28.23-15.6,2.67-31.61,2-47.01-2.02-14.9-3.88-33.34-6.53-49.23-2.41-33.18,8.6-68.47,44.24-68.47,103.24s55.38,150.52,102.9,150.52c9.23,0,18.44-1.48,26.37-3.88,10.86-3.29,22.4-3.29,33.26,0,7.92,2.39,17.13,3.88,26.37,3.88,14.61,0,29.95-8.64,44.2-22.34,0,0,0,0,0,0Z"/>
      <path class="cls-50" d="M2791.34,1497s-8.19,57.12-51.35,73.74c-41.25,15.89-78.02-27.08-93.11-23.7-.68.14-1.31.39-1.9.74-.02,0-.03.02-.03.02v-.03c.52-1.54,17.06-50.81,59.54-54.04,43.15-3.28,66.64,16.39,86.85,3.28Z"/>
      <path class="cls-63" d="M2791.34,1497s-26.22,31.95-63.09,31.95c-32.42,0-72.23,14.57-81.37,18.09-1.1.42-1.75.68-1.9.74-.02,0-.03.02-.03.02v-.03c.52-1.54,17.06-50.81,59.54-54.04,43.15-3.28,66.64,16.39,86.85,3.28Z"/>
      <ellipse class="cls-2" cx="2725.37" cy="1665.67" rx="19.08" ry="29.49" transform="translate(-151.37 277.7) rotate(-5.68)"/>
      <path d="M2757.75,1630.23c-3.04,1.51-4.27,5.2-2.76,8.24,7.65,15.35,11.53,32.89,11.53,52.13,0,27.21-12.5,63.24-32.63,94.02-20.62,31.53-44.59,50.36-64.13,50.36-8.14,0-16.87-1.28-24.59-3.62-12.04-3.64-24.77-3.64-36.81,0-7.72,2.33-16.45,3.62-24.59,3.62-19.54,0-43.51-18.83-64.13-50.36-20.12-30.78-32.63-66.8-32.63-94.02,0-25.71,7.11-48.82,20.57-66.83,11.32-15.15,27.1-26.25,43.3-30.45,12.1-3.14,28.05-2.3,46.14,2.4,1.98.51,4,.99,6.01,1.4,3.32.68,6.57-1.46,7.26-4.78.68-3.32-1.46-6.57-4.78-7.26-1.8-.37-3.61-.79-5.38-1.25-20.4-5.31-38-6.12-52.32-2.41-19.13,4.96-36.9,17.39-50.06,34.99-15.06,20.15-23.01,45.8-23.01,74.19s13.27,68.08,34.63,100.74c23.24,35.54,50.36,55.92,74.41,55.92,9.44,0,19.18-1.43,28.14-4.14,9.72-2.93,19.99-2.93,29.7,0,8.97,2.71,18.7,4.14,28.14,4.14,24.05,0,51.17-20.38,74.41-55.92,21.36-32.67,34.63-71.27,34.63-100.74,0-21.15-4.31-40.54-12.82-57.61-1.51-3.04-5.2-4.27-8.24-2.76Z"/>
      <path d="M2743.63,1620.78c1.21,1.49,2.99,2.27,4.77,2.27,1.36,0,2.73-.45,3.87-1.38,2.63-2.14,3.03-6.01.89-8.64-12.83-15.78-29.67-27-47.42-31.61-14.32-3.71-31.93-2.9-52.32,2.41-4.42,1.15-8.96,2.02-13.49,2.59-3.37.42-5.75,3.5-5.33,6.86.42,3.37,3.5,5.76,6.86,5.33,5.06-.64,10.12-1.61,15.05-2.89,18.09-4.71,34.04-5.54,46.14-2.4,15.23,3.95,29.78,13.7,40.97,27.46Z"/>
      <path d="M2794.65,1491.83c-2.03-1.3-4.63-1.29-6.65.02-8.82,5.72-18.74,3.62-33.75.45-1.3-.28-2.63-.56-3.99-.84-3.32-.69-6.58,1.44-7.27,4.77-.69,3.32,1.44,6.58,4.77,7.27,1.34.28,2.65.56,3.94.83,11.27,2.39,21.47,4.55,31.07,2.67-4.62,16.51-16.77,47.15-44.99,58.02-23.87,9.2-46.3-3.7-64.32-14.06-7.23-4.16-13.62-7.83-19.29-9.42,6.39-13.57,22.26-39.51,50.78-41.67,8.3-.63,16.56-.43,25.23.62,3.37.41,6.43-1.99,6.84-5.36.41-3.37-1.99-6.43-5.36-6.84-9.49-1.15-18.53-1.37-27.64-.68-19.5,1.48-36.95,12.13-50.46,30.79-8.65,11.95-13.05,23.51-14.17,26.68l-16.17,24.56c-4.55-13.77-9.07-22.4-9.43-23.08-1.59-3-5.31-4.14-8.31-2.55-3,1.59-4.14,5.31-2.55,8.31.15.29,14.33,27.36,17.19,62.83-4.71-.53-9.04-1.61-12.41-3.14-4.07-1.84-5.34-3.72-5.34-4.19,0-3.39-2.75-6.14-6.14-6.14s-6.14,2.75-6.14,6.14c0,3.62,1.63,10.43,12.56,15.38,6.55,2.97,15.12,4.6,24.13,4.6s17.59-1.63,24.14-4.6c10.92-4.95,12.56-11.76,12.56-15.38,0-3.39-2.75-6.14-6.14-6.14s-6.14,2.75-6.14,6.14c0,.47-1.27,2.34-5.34,4.19-3.6,1.63-8.3,2.75-13.39,3.24-.81-10.92-2.6-21.07-4.78-30.04l21.21-32.21c.72.03,2.03.26,4.24,1.13,3.87,1.53,8.67,4.29,14.22,7.48,14.41,8.29,32.82,18.87,53.5,18.87,6.89,0,14.03-1.18,21.36-4,45.99-17.72,54.86-76.12,55.22-78.6.34-2.38-.74-4.75-2.77-6.05Z"/>
    </g>
    <g id="Page-1">
      <g id="_x30_98---RC-Truck">
        <g id="Icons_copy">
          <path id="Path" class="cls-11" d="M1149.51,316.57l54.44-48.37c2.61-2.3,5.98-3.57,9.47-3.56h84.06c7.86.02,14.23,6.39,14.25,14.25v37.63"/>
          <path id="Path-2" data-name="Path" class="cls-17" d="M1454.28,430.36v14.25c-.02,7.86-6.39,14.23-14.25,14.25h-384.88c-7.86-.02-14.23-6.39-14.25-14.25v-14.25l15.47-30.93c3.61-7.24,11.01-11.82,19.1-11.83h87.67c8.09.01,15.49,4.59,19.1,11.83l9.55,19.1c3.61,7.24,11.01,11.82,19.1,11.83h73.41c8.09-.01,15.49-4.59,19.1-11.83l9.55-19.1c3.61-7.24,11.01-11.82,19.1-11.83h87.67c4.46-.02,8.82,1.4,12.4,4.06,2.86,1.97,5.17,4.65,6.7,7.77l15.47,30.93Z"/>
          <path id="Path-3" data-name="Path" class="cls-15" d="M1432.9,330.79v59.73l-.78,1.14c-3.59-2.66-7.94-4.08-12.4-4.06h-87.67c-8.09.01-15.49,4.59-19.1,11.83l-9.55,19.1c-3.61,7.24-11.01,11.82-19.1,11.83h-73.41c-8.09-.01-15.49-4.59-19.1-11.83l-9.55-19.1c-3.61-7.24-11.01-11.82-19.1-11.83h-87.67c-8.09.01-15.49,4.59-19.1,11.83l-15.47,30.93v-57.02c-.03-4.84.72-9.65,2.21-14.25h40.56c7.86-.02,14.23-6.39,14.25-14.25v-21.45l-.36-1.71c18.9-3.67,38.13-5.39,57.38-5.13h263.72c3.78,0,7.41,1.5,10.08,4.18s4.18,6.3,4.18,10.08Z"/>
          <path id="Path-4" data-name="Path" class="cls-17" d="M1418.64,316.53h-21.38c7.87,0,14.25,6.38,14.25,14.25v56.81h8.2c4.46-.02,8.82,1.4,12.4,4.06l.78-1.14v-59.73c0-7.87-6.38-14.25-14.25-14.25h0Z"/>
          <path id="Path-5" data-name="Path" class="cls-21" d="M1325.98,237.88c7.87,0,14.25,6.38,14.25,14.25v64.15h-28.51v-64.15c0-7.87,6.38-14.25,14.25-14.25Z"/>
          <path id="Path-6" data-name="Path" class="cls-13" d="M1097.9,323.37v21.45c-.02,7.86-6.39,14.23-14.25,14.25h-40.56c6.7-20.95,28.72-31.93,54.45-37.42l.36,1.71Z"/>
          <path id="Path-7" data-name="Path" class="cls-20" d="M1404.39,359.05h28.51v28.51h-35.64v-21.38c0-3.94,3.19-7.13,7.13-7.13Z"/>
          <path id="Rectangle" class="cls-18" d="M1411.51,359.05h21.38v28.51h-21.38v-28.51Z"/>
          <rect id="Rectangle-2" data-name="Rectangle" class="cls-69" x="1226.2" y="416.07" width="49.89" height="85.53" rx="7.13" ry="7.13"/>
          <path id="Path-8" data-name="Path" class="cls-16" d="M1268.96,416.07h-21.38c3.94,0,7.13,3.19,7.13,7.13v71.27c0,3.94-3.19,7.13-7.13,7.13h21.38c3.94,0,7.13-3.19,7.13-7.13v-71.27c0-3.94-3.19-7.13-7.13-7.13Z"/>
          <circle id="Oval" class="cls-57" cx="1436.46" cy="173.12" r="17.82"/>
          <path id="Path-9" data-name="Path" class="cls-12" d="M1106.46,428.36l1.38-2.04c2.57-3.8,6.86-6.07,11.45-6.08,4.59,0,8.89,2.28,11.47,6.08l1.38,2.04,15.61,5.07,2.32-.84c4.32-1.55,9.12-.87,12.83,1.82,3.72,2.7,5.85,7.07,5.7,11.66l-.08,2.47,9.67,13.24,2.37.71c4.41,1.28,7.91,4.66,9.33,9.03,1.42,4.37.58,9.16-2.25,12.79l-1.51,1.95v16.39l1.51,1.94c2.83,3.64,3.68,8.45,2.25,12.83-1.42,4.36-4.9,7.73-9.3,9.02l-2.37.71-9.64,13.27.08,2.47c.15,4.59-1.99,8.96-5.7,11.66-3.71,2.69-8.52,3.37-12.83,1.82l-2.32-.83-15.61,5.07-1.38,2.05c-2.6,3.81-6.92,6.08-11.53,6.05-4.59,0-8.89-2.28-11.47-6.08l-1.36-2.05-15.61-5.07-2.32.83c-4.31,1.56-9.12.88-12.83-1.82-3.72-2.7-5.85-7.07-5.7-11.66l.08-2.47-9.69-13.27-2.37-.71c-4.4-1.29-7.88-4.67-9.29-9.03-1.43-4.38-.59-9.19,2.25-12.83l1.51-1.94v-16.39l-1.51-1.95c-2.81-3.62-3.65-8.39-2.25-12.74,1.41-4.36,4.88-7.73,9.27-9.03l2.37-.71,9.64-13.27-.05-2.41c-.15-4.59,1.99-8.96,5.7-11.66,3.71-2.69,8.51-3.37,12.83-1.82l2.32.84,15.66-5.1Z"/>
          <path id="Path-10" data-name="Path" class="cls-14" d="M1186.13,502.68v-16.39l1.51-1.95c2.84-3.62,3.69-8.42,2.27-12.79-1.41-4.38-4.91-7.77-9.33-9.05l-2.37-.71-9.64-13.27.08-2.47c.15-4.59-1.99-8.95-5.7-11.65-3.71-2.7-8.52-3.39-12.84-1.84l-2.32.84-15.69-5.05-1.38-2.04c-2.44-3.63-6.47-5.88-10.84-6.05s-8.57,1.75-11.29,5.17c.25.31.56.56.78.89l1.38,2.04,15.61,5.07,2.32-.84c4.32-1.55,9.13-.86,12.84,1.84,3.71,2.7,5.84,7.06,5.7,11.65l-.08,2.47,9.67,13.24,2.37.71c4.42,1.27,7.91,4.66,9.33,9.03,1.42,4.37.58,9.16-2.25,12.79l-1.51,1.95v16.39l1.51,1.95c2.82,3.63,3.67,8.42,2.25,12.79s-4.92,7.75-9.33,9.03l-2.37.71-9.64,13.27.08,2.47c.15,4.59-1.98,8.95-5.7,11.65s-8.52,3.38-12.84,1.83l-2.32-.83-15.61,5.07-1.38,2.04c-.22.33-.53.58-.78.9,2.73,3.43,6.93,5.35,11.31,5.18s8.41-2.43,10.85-6.07l1.38-2.04,15.61-5.07,2.32.83c4.32,1.55,9.12.87,12.84-1.83s5.84-7.06,5.7-11.65l-.08-2.47,9.64-13.27,2.37-.71c4.42-1.27,7.91-4.66,9.33-9.03s.58-9.16-2.25-12.79l-1.51-1.92Z"/>
          <circle id="Oval-2" data-name="Oval" class="cls-70" cx="1119.29" cy="494.47" r="35.64"/>
          <path id="Path-11" data-name="Path" class="cls-12" d="M1363.05,428.36l1.38-2.04c2.57-3.8,6.86-6.07,11.45-6.08,4.59,0,8.89,2.28,11.47,6.08l1.38,2.04,15.61,5.07,2.32-.84c4.32-1.55,9.12-.87,12.83,1.82,3.72,2.7,5.85,7.07,5.7,11.66l-.08,2.47,9.67,13.24,2.37.71c4.41,1.28,7.91,4.66,9.33,9.03,1.42,4.37.58,9.16-2.25,12.79l-1.51,1.95v16.39l1.51,1.94c2.83,3.64,3.68,8.45,2.25,12.83-1.42,4.36-4.9,7.73-9.3,9.02l-2.37.71-9.64,13.27.08,2.47c.15,4.59-1.99,8.96-5.7,11.66-3.71,2.69-8.52,3.37-12.83,1.82l-2.32-.83-15.61,5.07-1.38,2.05c-2.6,3.81-6.92,6.08-11.53,6.05-4.59,0-8.89-2.28-11.47-6.08l-1.36-2.05-15.61-5.07-2.32.83c-4.31,1.56-9.12.88-12.83-1.82-3.72-2.7-5.85-7.07-5.7-11.66l.08-2.47-9.64-13.27-2.37-.71c-4.42-1.28-7.92-4.66-9.34-9.03-1.43-4.38-.59-9.19,2.25-12.83l1.51-1.94v-16.39l-1.51-1.95c-2.82-3.63-3.66-8.42-2.25-12.79,1.42-4.34,4.89-7.7,9.27-8.99l2.37-.71,9.64-13.27-.08-2.47c-.15-4.59,1.99-8.96,5.7-11.66,3.71-2.69,8.51-3.37,12.83-1.82l2.32.84,15.69-5.05Z"/>
          <path id="Path-12" data-name="Path" class="cls-14" d="M1442.72,502.68v-16.39l1.51-1.95c2.84-3.62,3.69-8.42,2.27-12.79-1.41-4.38-4.91-7.77-9.33-9.05l-2.37-.71-9.64-13.27.08-2.47c.15-4.59-1.99-8.95-5.7-11.65-3.71-2.7-8.52-3.39-12.84-1.84l-2.32.84-15.69-5.05-1.38-2.04c-2.44-3.63-6.47-5.88-10.84-6.05s-8.57,1.75-11.29,5.17c.25.31.56.56.78.89l1.38,2.04,15.61,5.07,2.32-.84c4.32-1.55,9.13-.86,12.84,1.84s5.84,7.06,5.7,11.65l-.08,2.47,9.67,13.24,2.37.71c4.42,1.27,7.91,4.66,9.33,9.03s.58,9.16-2.25,12.79l-1.51,1.95v16.39l1.51,1.95c2.82,3.63,3.67,8.42,2.25,12.79s-4.92,7.75-9.33,9.03l-2.37.71-9.64,13.27.08,2.47c.15,4.59-1.98,8.95-5.7,11.65s-8.52,3.38-12.84,1.83l-2.32-.83-15.61,5.07-1.38,2.04c-.22.33-.53.58-.78.9,2.73,3.43,6.93,5.35,11.31,5.18s8.41-2.43,10.85-6.07l1.38-2.04,15.61-5.07,2.32.83c4.32,1.55,9.12.87,12.84-1.83s5.84-7.06,5.7-11.65l-.08-2.47,9.64-13.27,2.37-.71c4.42-1.27,7.91-4.66,9.33-9.03s.58-9.16-2.25-12.79l-1.51-1.92Z"/>
          <circle id="Oval-3" data-name="Oval" class="cls-70" cx="1375.88" cy="494.47" r="35.64"/>
        </g>
        <g id="Icons">
          <path id="Shape" d="M1119.29,451.7c-23.62,0-42.76,19.15-42.76,42.76s19.15,42.76,42.76,42.76,42.76-19.15,42.76-42.76c-.02-23.61-19.16-42.74-42.76-42.76ZM1119.29,522.98c-15.75,0-28.51-12.76-28.51-28.51s12.76-28.51,28.51-28.51,28.51,12.76,28.51,28.51-12.76,28.51-28.51,28.51Z"/>
          <path id="Shape-2" data-name="Shape" d="M1375.88,451.7c-23.62,0-42.76,19.15-42.76,42.76s19.15,42.76,42.76,42.76,42.76-19.15,42.76-42.76c-.02-23.61-19.16-42.74-42.76-42.76ZM1375.88,522.98c-15.75,0-28.51-12.76-28.51-28.51s12.76-28.51,28.51-28.51,28.51,12.76,28.51,28.51-12.76,28.51-28.51,28.51Z"/>
          <path id="Path-13" data-name="Path" class="cls-19" d="M1233.33,351.92h21.38c3.94,0,7.13-3.19,7.13-7.13s-3.19-7.13-7.13-7.13h-21.38c-3.94,0-7.13,3.19-7.13,7.13s3.19,7.13,7.13,7.13Z"/>
          <path id="Shape-3" data-name="Shape" d="M1421.9,193.29c4.22,3.1,9.32,4.77,14.56,4.78,13.78,0,24.95-11.17,24.95-24.95s-11.17-24.95-24.95-24.95-24.95,11.17-24.95,24.95c.02,2.99.59,5.96,1.67,8.75-24.42,21.03-50.72,65.19-51.48,127.5h-14.33v-57.23c0-11.81-9.57-21.38-21.38-21.38s-21.38,9.57-21.38,21.38v6.65c-2.28-.84-4.69-1.29-7.13-1.31h-84.06c-5.23,0-10.29,1.92-14.2,5.4l-52.43,46.59c-93.13,1.85-113.03,35.49-113.03,63.84v71.27c.03,7.89,4.42,15.12,11.4,18.79-1.4,1.8-2.49,3.82-3.23,5.97-2.15,6.62-.88,13.87,3.39,19.36v11.53c-4.28,5.49-5.56,12.74-3.42,19.37,2.15,6.62,7.44,11.75,14.12,13.68l6.8,9.33c-.22,6.95,3.01,13.56,8.64,17.65,5.63,4.09,12.91,5.13,19.46,2.77l10.97,3.56c3.9,5.76,10.41,9.21,17.37,9.21s13.47-3.45,17.37-9.21l10.98-3.56c6.55,2.36,13.84,1.33,19.46-2.76,5.63-4.09,8.86-10.71,8.63-17.66l6.77-9.34c6.68-1.93,11.97-7.03,14.13-13.64s.91-13.85-3.34-19.35v-11.53c4.27-5.49,5.55-12.74,3.39-19.35-.42-1.17-.94-2.3-1.57-3.38h23.98v28.51c0,7.87,6.38,14.25,14.25,14.25h35.64c7.87,0,14.25-6.38,14.25-14.25v-28.51h16.85c-.63,1.08-1.15,2.21-1.57,3.38-2.15,6.62-.88,13.87,3.39,19.36v11.53c-4.27,5.49-5.54,12.74-3.39,19.36s7.44,11.74,14.12,13.67l6.8,9.33c-.22,6.95,3.01,13.56,8.64,17.65,5.63,4.09,12.91,5.13,19.46,2.77l10.97,3.56c3.9,5.76,10.41,9.21,17.37,9.21s13.47-3.45,17.37-9.21l10.98-3.56c6.55,2.36,13.84,1.33,19.46-2.76,5.63-4.09,8.86-10.71,8.63-17.66l6.77-9.34c6.69-1.92,11.99-7.03,14.15-13.65s.9-13.87-3.36-19.37v-11.53c4.27-5.49,5.55-12.74,3.39-19.35-.74-2.16-1.83-4.17-3.23-5.97,6.99-3.69,11.37-10.94,11.38-18.85v-14.25c.01-1.1-.23-2.19-.71-3.19l-15.47-30.93c-1.39-2.75-3.22-5.26-5.41-7.43.12-.4.2-.8.24-1.21v-56.81c0-11.81-9.57-21.38-21.38-21.38h-42.71c.87-68.71,33.26-104.65,45.93-116.08h0ZM1318.86,252.13c0-3.94,3.19-7.13,7.13-7.13s7.13,3.19,7.13,7.13v57.02h-14.25v-57.02ZM1304.6,278.85v30.51h-37.63v-37.64h30.5c3.94,0,7.13,3.19,7.13,7.13ZM1208.68,273.53c1.3-1.16,2.99-1.8,4.73-1.8h39.31v37.64h-84.38l40.34-35.84ZM1090.78,330.69v14.1c0,3.94-3.19,7.13-7.13,7.13h-28.72c9.29-10.83,21.89-18.29,35.85-21.23ZM1180.5,507.06l1.52,1.94c1.37,1.76,1.78,4.1,1.08,6.22s-2.4,3.77-4.55,4.38l-2.37.71c-1.52.44-2.84,1.37-3.77,2.65l-9.66,13.25c-.94,1.28-1.41,2.85-1.36,4.43l.09,2.46c.07,2.23-.97,4.35-2.78,5.66-1.81,1.3-4.14,1.63-6.24.88l-2.32-.83c-1.49-.54-3.11-.56-4.61-.08l-15.61,5.07c-1.51.49-2.8,1.47-3.69,2.78l-1.43,2.05c-1.32,1.75-3.38,2.78-5.57,2.78s-4.25-1.03-5.57-2.78l-1.43-2.04c-.89-1.31-2.19-2.29-3.69-2.78l-15.53-5.06c-.71-.23-1.45-.35-2.2-.35-.82,0-1.64.14-2.42.43l-2.32.83c-2.1.75-4.44.42-6.24-.89-1.81-1.3-2.85-3.42-2.77-5.64l.09-2.47c.05-1.59-.43-3.15-1.36-4.43l-9.64-13.29c-.93-1.28-2.25-2.21-3.77-2.65l-2.38-.71c-2.14-.62-3.83-2.26-4.51-4.38s-.28-4.44,1.08-6.19l1.52-1.95c.98-1.25,1.5-2.8,1.5-4.38v-16.39c0-1.59-.53-3.13-1.5-4.38l-1.52-1.95c-1.37-1.76-1.78-4.1-1.08-6.22s2.4-3.77,4.55-4.38l2.37-.71c1.52-.44,2.84-1.37,3.77-2.65l9.64-13.26c.94-1.28,1.41-2.85,1.36-4.43l-.09-2.45c-.07-2.23.98-4.35,2.78-5.66,1.81-1.31,4.14-1.64,6.24-.89l2.32.83c1.49.53,3.11.56,4.61.08l15.61-5.07c1.51-.49,2.8-1.47,3.69-2.78l1.43-2.05c1.32-1.75,3.38-2.78,5.57-2.78s4.25,1.03,5.57,2.78l1.43,2.04c.89,1.31,2.19,2.29,3.69,2.78l15.61,5.07c1.5.48,3.12.45,4.61-.08l2.32-.83c2.1-.76,4.43-.43,6.24.88,1.8,1.31,2.85,3.42,2.78,5.65l-.09,2.46c-.05,1.59.43,3.15,1.36,4.43l9.64,13.28c.93,1.28,2.25,2.21,3.77,2.65l2.38.71c2.14.62,3.84,2.26,4.53,4.38s.29,4.45-1.08,6.21l-1.52,1.95c-.98,1.25-1.5,2.8-1.5,4.38v16.39c-.02,1.58.48,3.12,1.43,4.38h0ZM1179.66,451.7l-3.91-5.37c.22-6.95-3.01-13.56-8.64-17.65-5.63-4.09-12.91-5.13-19.46-2.77l-10.97-3.56c-3.91-5.76-10.41-9.21-17.37-9.21s-13.47,3.45-17.37,9.21l-10.98,3.56c-6.54-2.37-13.84-1.35-19.48,2.74-5.63,4.09-8.88,10.71-8.65,17.66l-3.91,5.38h-3.78c-3.94,0-7.13-3.19-7.13-7.13v-12.57l14.71-29.43c2.4-4.84,7.33-7.9,12.73-7.89h87.67c5.4,0,10.33,3.05,12.73,7.89l9.54,19.11c4.8,9.68,14.68,15.79,25.48,15.77h8.2v14.25h-39.42ZM1233.33,451.7h35.64v14.25h-35.64v-14.25ZM1268.96,430.32v7.13h-35.64v-14.25h35.64v7.13ZM1233.33,494.47v-14.25h35.64v14.25h-35.64ZM1437.09,507.06l1.52,1.94c1.37,1.76,1.78,4.1,1.08,6.22s-2.4,3.77-4.55,4.38l-2.37.71c-1.52.44-2.84,1.37-3.77,2.65l-9.66,13.25c-.94,1.28-1.41,2.85-1.36,4.43l.09,2.46c.07,2.23-.97,4.35-2.78,5.66-1.81,1.3-4.14,1.63-6.24.88l-2.32-.83c-1.49-.54-3.11-.56-4.61-.08l-15.61,5.07c-1.51.49-2.8,1.47-3.69,2.78l-1.43,2.05c-1.32,1.75-3.38,2.78-5.57,2.78s-4.25-1.03-5.57-2.78l-1.43-2.04c-.89-1.31-2.19-2.29-3.69-2.78l-15.61-5.07c-.71-.23-1.45-.35-2.2-.35-.82,0-1.64.14-2.42.43l-2.32.83c-2.1.76-4.43.43-6.24-.88-1.8-1.31-2.85-3.42-2.78-5.65l.09-2.47c.05-1.59-.43-3.15-1.36-4.43l-9.64-13.27c-.93-1.28-2.25-2.21-3.77-2.65l-2.38-.71c-2.14-.62-3.84-2.26-4.53-4.38s-.29-4.45,1.08-6.21l1.52-1.95c.98-1.25,1.5-2.8,1.5-4.38v-16.39c0-1.59-.53-3.13-1.5-4.38l-1.52-1.94c-1.37-1.76-1.78-4.1-1.08-6.22s2.4-3.77,4.55-4.38l2.37-.71c1.52-.44,2.84-1.37,3.77-2.65l9.74-13.26c.94-1.28,1.41-2.85,1.36-4.43l-.09-2.45c-.07-2.23.98-4.35,2.78-5.66s4.14-1.64,6.24-.89l2.32.83c1.49.53,3.11.56,4.61.08l15.61-5.07c1.51-.49,2.8-1.47,3.69-2.78l1.43-2.05c1.32-1.75,3.38-2.78,5.57-2.78s4.25,1.03,5.57,2.78l1.43,2.04c.89,1.31,2.19,2.29,3.69,2.78l15.61,5.07c1.5.48,3.12.45,4.61-.08l2.32-.83c2.1-.76,4.43-.43,6.24.88,1.8,1.31,2.85,3.42,2.78,5.65l-.09,2.46c-.05,1.59.43,3.15,1.36,4.43l9.64,13.28c.93,1.28,2.25,2.21,3.77,2.65l2.38.71c2.14.62,3.84,2.26,4.53,4.38s.29,4.45-1.08,6.21l-1.52,1.95c-.98,1.25-1.5,2.8-1.5,4.38v16.39c-.02,1.58.48,3.12,1.43,4.38h0ZM1447.15,432v12.57c0,3.94-3.19,7.13-7.13,7.13h-3.78l-3.91-5.37c.22-6.95-3.01-13.56-8.64-17.65-5.63-4.09-12.91-5.13-19.46-2.77l-10.97-3.56c-3.91-5.76-10.41-9.21-17.37-9.21s-13.47,3.45-17.37,9.21l-10.98,3.56c-6.55-2.36-13.84-1.33-19.46,2.76-5.63,4.09-8.86,10.71-8.63,17.66l-3.91,5.38h-32.32v-14.25h1.07c10.8.03,20.68-6.09,25.48-15.77l9.54-19.11c2.4-4.84,7.33-7.9,12.73-7.89h87.67c5.4,0,10.33,3.05,12.73,7.89l14.71,29.41ZM1404.39,380.43v-14.25h21.38v14.25h-21.38ZM1425.77,330.75v21.17h-21.38c-7.87,0-14.25,6.38-14.25,14.25v14.25h-58.09c-10.81-.03-20.69,6.1-25.48,15.79l-9.54,19.11c-2.4,4.84-7.33,7.89-12.73,7.88h-1.07c0-7.87-6.38-14.25-14.25-14.25h-35.64c-7.87,0-14.25,6.38-14.25,14.25h-8.2c-5.4.01-10.33-3.04-12.73-7.88l-9.54-19.11c-4.79-9.68-14.68-15.8-25.48-15.77h-87.67c-10.81-.03-20.69,6.09-25.48,15.77l-1.96,3.91v-26.83c0-2.39.22-4.78.65-7.13h34.99c11.81,0,21.38-9.57,21.38-21.38v-17.27c14.69-2.47,29.55-3.75,44.45-3.83h.07c1.8,0,3.6-.06,5.37-.06h263.72c1.89,0,3.7.75,5.04,2.09s2.09,3.15,2.09,5.04h0ZM1436.46,162.43c5.04-.02,9.41,3.49,10.49,8.41,1.08,4.93-1.44,9.93-6.03,12.02-4.59,2.08-10.01.68-13.01-3.38-1.38-1.83-2.13-4.06-2.14-6.36,0-2.84,1.13-5.55,3.13-7.56s4.72-3.13,7.56-3.13Z"/>
        </g>
      </g>
    </g>
    <g id="g3615">
      <g id="g3617">
        <g class="cls-45">
          <g id="g3619">
            <g id="g3625">
              <path id="path3627" class="cls-22" d="M2034.38,1615.67l-102.16-14.85-45.69-92.57c-1.83-3.71-5.39-5.56-8.95-5.56v266.3s91.38,48.04,91.38,48.04c7.33,3.85,15.88-2.37,14.48-10.52l-17.45-101.76,73.92-72.06c5.93-5.78,2.66-15.83-5.53-17.02"/>
            </g>
            <g id="g3629">
              <path id="path3631" class="cls-25" d="M1944.53,1697.78s15.76,91.85,15.81,92.15c-.05,0-81.48-20.63-82.75-20.95-.01,0-91.39,48.04-91.39,48.04-7.33,3.85-15.88-2.37-14.48-10.52l17.45-101.76-73.92-72.06c-5.93-5.78-2.66-15.83,5.53-17.02l102.16-14.85,45.69-92.57c1.83-3.71,5.39-5.56,8.95-5.56l41.38,116.38,92.53,13.45-66.96,65.26Z"/>
            </g>
            <g id="g3633">
              <path id="path3635" class="cls-37" d="M1778.76,1765.46l-7.04,41.04c-1.4,8.15,7.16,14.37,14.48,10.52l91.38-48.04,91.38,48.04c7.32,3.85,15.88-2.37,14.48-10.52l-17.45-101.75,73.93-72.06c5.92-5.77,2.65-15.83-5.53-17.02l-102.16-14.85-45.69-92.58c-3.66-7.42-14.24-7.42-17.9,0l-45.69,92.58-102.16,14.85c-8.18,1.19-11.45,11.25-5.53,17.02l73.93,72.06-7.04,41.04"/>
            </g>
          </g>
        </g>
      </g>
    </g>
    <g id="g2607">
      <g id="g2609">
        <g class="cls-74">
          <g id="g2611">
            <g id="g2617">
              <path id="path2619" class="cls-60" d="M1274.97,1561.89l27.54,46.28,3.45.69c-7.04-17.02-17.37-33-30.99-46.97"/>
            </g>
            <g id="g2621">
              <path id="path2623" class="cls-8" d="M1291.08,1582.84c.21.35.42.7.62,1.06,4.52,7.68,8.11,15.82,10.81,24.27l-35.91-7.22-33.38-33.38-7.92-39.35c17.57,7.27,34.04,18.04,48.32,32.32.45.45.89.9,1.33,1.35,6.25,6.46,11.61,13.48,16.11,20.95"/>
            </g>
            <g id="g2625">
              <path id="path2627" class="cls-78" d="M1305.96,1608.86c-1.18-2.38-2.99-4.49-5.4-6.33l-23.1,136.71,2.5,25.18c38.54-43.56,47.21-104.28,26.01-155.56"/>
            </g>
            <g id="g2629">
              <path id="path2631" class="cls-34" d="M1300.56,1602.54c-5.81-4.41-15.1-7.17-27.59-7.95l-6.25,36.42,10.74,108.23c30.97-41.92,39.08-93.91,23.1-136.71"/>
            </g>
            <g id="g2633">
              <path id="path2635" class="cls-84" d="M1279.95,1764.42c11.91-14.9,16.82-34.38,15.39-55.82l-177.45,97.39c52.57,18.88,113.63,7.27,155.75-34.84,2.19-2.19,4.29-4.44,6.31-6.73"/>
            </g>
            <g id="g2637">
              <path id="path2639" class="cls-6" d="M1260.93,1758.44c14.98-14.98,26.47-31.98,34.41-49.84-1.65-24.52-11.6-51.6-28.92-77.28l-36.07,6.76-110.21,164.55c46.64,10.91,100.88-4.29,140.79-44.2"/>
            </g>
            <g id="g2641">
              <path id="path2643" class="cls-30" d="M1225.32,1528.22c8.12,4.03,13.17,15.32,14.27,32.99l-36.42,6.25-133.41-13.24c43.56-38.54,104.28-47.21,155.56-26.01"/>
            </g>
            <g id="g2645">
              <path id="path2647" class="cls-43" d="M1069.76,1554.23c31.94-25.53,84.97-18.92,133.1,13.53l-6.76,36.07-167.91,112.46c-18.88-52.57-7.27-113.63,34.84-155.75,2.19-2.19,4.44-4.29,6.73-6.31"/>
            </g>
            <g id="g2649">
              <path id="path2651" class="cls-72" d="M1063.76,1771.86c15.88,15.67,34.41,27.05,54.13,34.13,4.23,1.19,9.03.84,14.32-1.14l-68.45-33Z"/>
            </g>
            <g id="g2653">
              <path id="path2655" class="cls-7" d="M1230.35,1638.08l-34.25-34.25c-58.03,14.26-119.49,44.1-150.28,74.88-14.87,14.87-20.39,27.77-17.63,37.58,7.19,20.02,18.8,38.82,34.84,54.86.24.24.49.47.73.71,18.92,18.6,42.86,29.53,68.45,33,6.98-2.6,14.8-8.03,23.26-16.49,30.78-30.78,60.62-92.24,74.88-150.28"/>
            </g>
            <g id="g2657">
              <path id="path2659" class="cls-75" d="M1260.07,1574.12l-50.85,50.85c17.55,17.55,43.17,20.4,57.21,6.36,14.04-14.04,11.2-39.65-6.36-57.21"/>
            </g>
            <g id="g2661">
              <path id="path2663" class="cls-23" d="M1253.71,1618.61c14.04-14.04,16.89-33.96,6.36-44.49-17.55-17.55-43.16-20.4-57.21-6.36-14.04,14.04-11.2,39.65,6.36,57.21,10.53,10.53,30.45,7.69,44.49-6.36"/>
            </g>
            <g id="g2665">
              <path id="path2667" class="cls-37" d="M1168.34,1814.77c-82.25,0-148.92-66.67-148.92-148.92s66.67-148.92,148.92-148.92,148.92,66.67,148.92,148.92-66.67,148.92-148.92,148.92Z"/>
            </g>
            <g id="g2669">
              <path id="path2671" class="cls-37" d="M1266.42,1631.32c-14.04,14.04-39.65,11.2-57.21-6.36-17.55-17.55-20.4-43.17-6.36-57.21,14.04-14.04,39.65-11.2,57.21,6.36,17.55,17.55,20.4,43.16,6.36,57.21Z"/>
            </g>
            <g id="g2673">
              <path id="path2675" class="cls-37" d="M1305.96,1608.87c-4.03-8.12-15.32-13.17-32.99-14.27"/>
            </g>
            <g id="g2677">
              <path id="path2679" class="cls-37" d="M1225.32,1528.22c8.12,4.03,13.17,15.32,14.27,32.99"/>
            </g>
            <g id="g2681">
              <path id="path2683" class="cls-37" d="M1279.95,1764.42c25.53-31.94,18.92-84.97-13.53-133.1"/>
            </g>
            <g id="g2685">
              <path id="path2687" class="cls-37" d="M1069.76,1554.23c31.94-25.53,84.97-18.92,133.1,13.53"/>
            </g>
            <g id="g2689">
              <path id="path2691" class="cls-37" d="M1117.89,1805.99c9.81,2.76,22.71-2.76,37.58-17.63,30.78-30.78,60.62-92.24,74.88-150.28"/>
            </g>
            <g id="g2693">
              <path id="path2695" class="cls-37" d="M1196.1,1603.83c-30.26,7.44-61.44,19.11-88.73,32.95"/>
            </g>
            <g id="g2697">
              <path id="path2699" class="cls-37" d="M1091.46,1645.33c-18.31,10.48-34.12,21.87-45.64,33.38-14.87,14.87-20.39,27.77-17.63,37.58"/>
            </g>
          </g>
        </g>
      </g>
    </g>
  </g>
</svg>