<svg version="1.1" id="Layer_1" xmlns="http://www.w3.org/2000/svg" xmlns:xlink="http://www.w3.org/1999/xlink" x="0px" y="0px" viewBox="0 0 512 512" style="enable-background:new 0 0 512 512;" xml:space="preserve">
<g>
	<path style="fill:#D4F2F6;" d="M471.661,473.438H40.339c-9.559,0-17.308-7.749-17.308-17.308V24.808&#10;&#9;&#9;c0-9.559,7.749-17.308,17.308-17.308h431.322c9.559,0,17.308,7.749,17.308,17.308V456.13&#10;&#9;&#9;C488.969,465.689,481.22,473.438,471.661,473.438z"/>
	<path style="fill:#A6E7F0;" d="M471.661,7.5h-29.286v396.306c0,27.411-22.221,49.632-49.632,49.632H23.031v2.692&#10;&#9;&#9;c0,9.559,7.749,17.308,17.308,17.308h431.322c9.559,0,17.308-7.749,17.308-17.308V24.808C488.969,15.249,481.22,7.5,471.661,7.5z"/>
	<path style="fill:#EB9C8D;" d="M340.865,275.922c-11.309-0.402-20.603,8.646-20.603,19.865v-39.28&#10;&#9;&#9;c0-10.779-8.382-19.959-19.154-20.342c-11.309-0.402-20.603,8.646-20.603,19.865v-19.878c0-11.219-9.294-20.267-20.603-19.865&#10;&#9;&#9;c-10.772,0.383-19.154,9.563-19.154,20.342v19.402c0-11.219-9.294-20.267-20.603-19.865c-10.772,0.383-19.153,9.563-19.153,20.342&#10;&#9;&#9;v121.278c0,4.455-5.386,6.685-8.536,3.536l-9.302-9.302c-12.495-12.495-32.754-12.496-45.25-0.001l-1.762,1.762&#10;&#9;&#9;c-5.915,5.915-5.849,15.526,0.147,21.359l84.106,81.815c2.903,2.824,4.541,6.702,4.541,10.752V499.5c0,2.761,2.239,5,5,5h98.719&#10;&#9;&#9;c2.761,0,5-2.239,5-5v-9.032c0-3.875,1.506-7.593,4.19-10.387c13.731-14.29,22.172-33.701,22.172-55.084V296.264&#10;&#9;&#9;C360.019,285.486,351.637,276.306,340.865,275.922z"/>
	
		<line style="fill:none;stroke:#000000;stroke-width:15;stroke-linecap:round;stroke-linejoin:round;stroke-miterlimit:10;" x1="320.262" y1="295.788" x2="320.262" y2="355.423"/>
	
		<line style="fill:none;stroke:#000000;stroke-width:15;stroke-linecap:round;stroke-linejoin:round;stroke-miterlimit:10;" x1="280.506" y1="256.031" x2="280.506" y2="355.423"/>
	
		<line style="fill:none;stroke:#000000;stroke-width:15;stroke-linecap:round;stroke-linejoin:round;stroke-miterlimit:10;" x1="240.749" y1="256.031" x2="240.749" y2="355.423"/>
	
		<line style="fill:none;stroke:#000000;stroke-width:15;stroke-linecap:round;stroke-linejoin:round;stroke-miterlimit:10;" x1="100.688" y1="54.094" x2="131.75" y2="54.094"/>
	
		<line style="fill:none;stroke:#000000;stroke-width:15;stroke-linecap:round;stroke-linejoin:round;stroke-miterlimit:10;" x1="193.875" y1="54.094" x2="224.938" y2="54.094"/>
	
		<line style="fill:none;stroke:#000000;stroke-width:15;stroke-linecap:round;stroke-linejoin:round;stroke-miterlimit:10;" x1="162.812" y1="38.562" x2="162.812" y2="69.625"/>
	
		<line style="fill:none;stroke:#000000;stroke-width:15;stroke-linecap:round;stroke-linejoin:round;stroke-miterlimit:10;" x1="287.062" y1="54.094" x2="318.125" y2="54.094"/>
	
		<line style="fill:none;stroke:#000000;stroke-width:15;stroke-linecap:round;stroke-linejoin:round;stroke-miterlimit:10;" x1="256" y1="38.562" x2="256" y2="69.625"/>
	
		<line style="fill:none;stroke:#000000;stroke-width:15;stroke-linecap:round;stroke-linejoin:round;stroke-miterlimit:10;" x1="380.25" y1="54.094" x2="411.312" y2="54.094"/>
	
		<line style="fill:none;stroke:#000000;stroke-width:15;stroke-linecap:round;stroke-linejoin:round;stroke-miterlimit:10;" x1="349.188" y1="38.562" x2="349.188" y2="69.625"/>
	
		<line style="fill:none;stroke:#000000;stroke-width:15;stroke-linecap:round;stroke-linejoin:round;stroke-miterlimit:10;" x1="147.281" y1="100.688" x2="178.344" y2="100.688"/>
	
		<line style="fill:none;stroke:#000000;stroke-width:15;stroke-linecap:round;stroke-linejoin:round;stroke-miterlimit:10;" x1="116.219" y1="85.156" x2="116.219" y2="116.219"/>
	
		<line style="fill:none;stroke:#000000;stroke-width:15;stroke-linecap:round;stroke-linejoin:round;stroke-miterlimit:10;" x1="395.781" y1="85.156" x2="395.781" y2="116.219"/>
	
		<line style="fill:none;stroke:#000000;stroke-width:15;stroke-linecap:round;stroke-linejoin:round;stroke-miterlimit:10;" x1="240.469" y1="100.688" x2="271.531" y2="100.688"/>
	
		<line style="fill:none;stroke:#000000;stroke-width:15;stroke-linecap:round;stroke-linejoin:round;stroke-miterlimit:10;" x1="209.406" y1="85.156" x2="209.406" y2="116.219"/>
	
		<line style="fill:none;stroke:#000000;stroke-width:15;stroke-linecap:round;stroke-linejoin:round;stroke-miterlimit:10;" x1="333.656" y1="100.688" x2="364.719" y2="100.688"/>
	
		<line style="fill:none;stroke:#000000;stroke-width:15;stroke-linecap:round;stroke-linejoin:round;stroke-miterlimit:10;" x1="302.594" y1="85.156" x2="302.594" y2="116.219"/>
	
		<line style="fill:none;stroke:#000000;stroke-width:15;stroke-linecap:round;stroke-linejoin:round;stroke-miterlimit:10;" x1="100.688" y1="147.281" x2="131.75" y2="147.281"/>
	
		<line style="fill:none;stroke:#000000;stroke-width:15;stroke-linecap:round;stroke-linejoin:round;stroke-miterlimit:10;" x1="193.875" y1="147.281" x2="224.938" y2="147.281"/>
	
		<line style="fill:none;stroke:#000000;stroke-width:15;stroke-linecap:round;stroke-linejoin:round;stroke-miterlimit:10;" x1="162.812" y1="131.75" x2="162.812" y2="162.812"/>
	
		<line style="fill:none;stroke:#000000;stroke-width:15;stroke-linecap:round;stroke-linejoin:round;stroke-miterlimit:10;" x1="287.062" y1="147.281" x2="318.125" y2="147.281"/>
	
		<line style="fill:none;stroke:#000000;stroke-width:15;stroke-linecap:round;stroke-linejoin:round;stroke-miterlimit:10;" x1="256" y1="131.75" x2="256" y2="162.812"/>
	
		<line style="fill:none;stroke:#000000;stroke-width:15;stroke-linecap:round;stroke-linejoin:round;stroke-miterlimit:10;" x1="380.25" y1="147.281" x2="411.312" y2="147.281"/>
	
		<line style="fill:none;stroke:#000000;stroke-width:15;stroke-linecap:round;stroke-linejoin:round;stroke-miterlimit:10;" x1="349.188" y1="131.75" x2="349.188" y2="162.812"/>
	
		<line style="fill:none;stroke:#000000;stroke-width:15;stroke-linecap:round;stroke-linejoin:round;stroke-miterlimit:10;" x1="147.281" y1="193.875" x2="178.344" y2="193.875"/>
	
		<line style="fill:none;stroke:#000000;stroke-width:15;stroke-linecap:round;stroke-linejoin:round;stroke-miterlimit:10;" x1="116.219" y1="178.344" x2="116.219" y2="209.406"/>
	
		<line style="fill:none;stroke:#000000;stroke-width:15;stroke-linecap:round;stroke-linejoin:round;stroke-miterlimit:10;" x1="395.781" y1="178.344" x2="395.781" y2="209.406"/>
	
		<line style="fill:none;stroke:#000000;stroke-width:15;stroke-linecap:round;stroke-linejoin:round;stroke-miterlimit:10;" x1="209.406" y1="178.344" x2="209.406" y2="206.381"/>
	
		<line style="fill:none;stroke:#000000;stroke-width:15;stroke-linecap:round;stroke-linejoin:round;stroke-miterlimit:10;" x1="333.656" y1="193.875" x2="364.719" y2="193.875"/>
	
		<line style="fill:none;stroke:#000000;stroke-width:15;stroke-linecap:round;stroke-linejoin:round;stroke-miterlimit:10;" x1="302.594" y1="178.344" x2="302.594" y2="205.138"/>
	
		<line style="fill:none;stroke:#000000;stroke-width:15;stroke-linecap:round;stroke-linejoin:round;stroke-miterlimit:10;" x1="100.688" y1="240.469" x2="131.75" y2="240.469"/>
	
		<line style="fill:none;stroke:#000000;stroke-width:15;stroke-linecap:round;stroke-linejoin:round;stroke-miterlimit:10;" x1="162.812" y1="224.938" x2="162.812" y2="256"/>
	
		<line style="fill:none;stroke:#000000;stroke-width:15;stroke-linecap:round;stroke-linejoin:round;stroke-miterlimit:10;" x1="380.25" y1="240.469" x2="411.312" y2="240.469"/>
	
		<line style="fill:none;stroke:#000000;stroke-width:15;stroke-linecap:round;stroke-linejoin:round;stroke-miterlimit:10;" x1="349.188" y1="224.938" x2="349.188" y2="241.634"/>
	
		<line style="fill:none;stroke:#000000;stroke-width:15;stroke-linecap:round;stroke-linejoin:round;stroke-miterlimit:10;" x1="147.281" y1="287.062" x2="169.93" y2="287.062"/>
	
		<line style="fill:none;stroke:#000000;stroke-width:15;stroke-linecap:round;stroke-linejoin:round;stroke-miterlimit:10;" x1="116.219" y1="271.531" x2="116.219" y2="302.594"/>
	
		<line style="fill:none;stroke:#000000;stroke-width:15;stroke-linecap:round;stroke-linejoin:round;stroke-miterlimit:10;" x1="395.781" y1="271.531" x2="395.781" y2="302.594"/>
	
		<line style="fill:none;stroke:#000000;stroke-width:15;stroke-linecap:round;stroke-linejoin:round;stroke-miterlimit:10;" x1="100.688" y1="333.656" x2="131.75" y2="333.656"/>
	
		<line style="fill:none;stroke:#000000;stroke-width:15;stroke-linecap:round;stroke-linejoin:round;stroke-miterlimit:10;" x1="162.812" y1="318.125" x2="162.812" y2="331.625"/>
	
		<line style="fill:none;stroke:#000000;stroke-width:15;stroke-linecap:round;stroke-linejoin:round;stroke-miterlimit:10;" x1="391.081" y1="333.656" x2="411.312" y2="333.656"/>
	
		<line style="fill:none;stroke:#000000;stroke-width:15;stroke-linecap:round;stroke-linejoin:round;stroke-miterlimit:10;" x1="395.781" y1="364.719" x2="395.781" y2="395.781"/>
	
		<line style="fill:none;stroke:#000000;stroke-width:15;stroke-linecap:round;stroke-linejoin:round;stroke-miterlimit:10;" x1="100.688" y1="426.844" x2="124.336" y2="426.844"/>
	
		<line style="fill:none;stroke:#000000;stroke-width:15;stroke-linecap:round;stroke-linejoin:round;stroke-miterlimit:10;" x1="69.625" y1="38.562" x2="69.625" y2="69.625"/>
	
		<line style="fill:none;stroke:#000000;stroke-width:15;stroke-linecap:round;stroke-linejoin:round;stroke-miterlimit:10;" x1="54.094" y1="100.688" x2="85.156" y2="100.688"/>
	
		<line style="fill:none;stroke:#000000;stroke-width:15;stroke-linecap:round;stroke-linejoin:round;stroke-miterlimit:10;" x1="69.625" y1="131.75" x2="69.625" y2="162.812"/>
	
		<line style="fill:none;stroke:#000000;stroke-width:15;stroke-linecap:round;stroke-linejoin:round;stroke-miterlimit:10;" x1="54.094" y1="193.875" x2="85.156" y2="193.875"/>
	
		<line style="fill:none;stroke:#000000;stroke-width:15;stroke-linecap:round;stroke-linejoin:round;stroke-miterlimit:10;" x1="69.625" y1="224.938" x2="69.625" y2="256"/>
	
		<line style="fill:none;stroke:#000000;stroke-width:15;stroke-linecap:round;stroke-linejoin:round;stroke-miterlimit:10;" x1="54.094" y1="287.062" x2="85.156" y2="287.062"/>
	
		<line style="fill:none;stroke:#000000;stroke-width:15;stroke-linecap:round;stroke-linejoin:round;stroke-miterlimit:10;" x1="54.094" y1="380.25" x2="85.156" y2="380.25"/>
	
		<line style="fill:none;stroke:#000000;stroke-width:15;stroke-linecap:round;stroke-linejoin:round;stroke-miterlimit:10;" x1="69.625" y1="318.125" x2="69.625" y2="349.188"/>
	
		<line style="fill:none;stroke:#000000;stroke-width:15;stroke-linecap:round;stroke-linejoin:round;stroke-miterlimit:10;" x1="69.625" y1="411.312" x2="69.625" y2="442.375"/>
	
		<line style="fill:none;stroke:#000000;stroke-width:15;stroke-linecap:round;stroke-linejoin:round;stroke-miterlimit:10;" x1="442.375" y1="38.562" x2="442.375" y2="69.625"/>
	
		<line style="fill:none;stroke:#000000;stroke-width:15;stroke-linecap:round;stroke-linejoin:round;stroke-miterlimit:10;" x1="457.906" y1="100.688" x2="426.844" y2="100.688"/>
	
		<line style="fill:none;stroke:#000000;stroke-width:15;stroke-linecap:round;stroke-linejoin:round;stroke-miterlimit:10;" x1="442.375" y1="131.75" x2="442.375" y2="162.812"/>
	
		<line style="fill:none;stroke:#000000;stroke-width:15;stroke-linecap:round;stroke-linejoin:round;stroke-miterlimit:10;" x1="457.906" y1="193.875" x2="426.844" y2="193.875"/>
	
		<line style="fill:none;stroke:#000000;stroke-width:15;stroke-linecap:round;stroke-linejoin:round;stroke-miterlimit:10;" x1="442.375" y1="224.938" x2="442.375" y2="256"/>
	
		<line style="fill:none;stroke:#000000;stroke-width:15;stroke-linecap:round;stroke-linejoin:round;stroke-miterlimit:10;" x1="457.906" y1="287.062" x2="426.844" y2="287.062"/>
	
		<line style="fill:none;stroke:#000000;stroke-width:15;stroke-linecap:round;stroke-linejoin:round;stroke-miterlimit:10;" x1="457.906" y1="380.25" x2="426.844" y2="380.25"/>
	
		<line style="fill:none;stroke:#000000;stroke-width:15;stroke-linecap:round;stroke-linejoin:round;stroke-miterlimit:10;" x1="442.375" y1="318.125" x2="442.375" y2="349.188"/>
	
		<line style="fill:none;stroke:#000000;stroke-width:15;stroke-linecap:round;stroke-linejoin:round;stroke-miterlimit:10;" x1="442.375" y1="411.312" x2="442.375" y2="442.375"/>
	
		<line style="fill:none;stroke:#000000;stroke-width:15;stroke-linecap:round;stroke-linejoin:round;stroke-miterlimit:10;" x1="391.066" y1="426.844" x2="411.312" y2="426.844"/>
	<path style="fill:none;stroke:#000000;stroke-width:15;stroke-linecap:round;stroke-linejoin:round;stroke-miterlimit:10;" d="&#10;&#9;&#9;M23.031,158.761V456.13c0,9.559,7.749,17.308,17.308,17.308h176.444"/>
	<path style="fill:none;stroke:#000000;stroke-width:15;stroke-linecap:round;stroke-linejoin:round;stroke-miterlimit:10;" d="&#10;&#9;&#9;M343.564,473.438h128.097c9.559,0,17.308-7.749,17.308-17.308V24.808c0-9.559-7.749-17.308-17.308-17.308H40.339&#10;&#9;&#9;c-9.559,0-17.308,7.749-17.308,17.308v98.953"/>
	<path style="fill:none;stroke:#000000;stroke-width:15;stroke-linecap:round;stroke-linejoin:round;stroke-miterlimit:10;" d="&#10;&#9;&#9;M360.019,329.719v-33.454c0-10.779-8.381-19.959-19.153-20.342c-11.309-0.402-20.603,8.646-20.603,19.865v-39.28&#10;&#9;&#9;c0-10.779-8.382-19.959-19.154-20.342c-11.309-0.402-20.603,8.646-20.603,19.865v-19.878c0-11.219-9.294-20.267-20.603-19.865&#10;&#9;&#9;c-10.772,0.383-19.154,9.563-19.154,20.342v19.402c0-11.219-9.294-20.267-20.603-19.865c-10.772,0.383-19.153,9.563-19.153,20.342&#10;&#9;&#9;v121.278c0,4.455-5.386,6.685-8.536,3.536l-9.302-9.302c-12.495-12.495-32.754-12.496-45.25-0.001l-1.762,1.762&#10;&#9;&#9;c-5.915,5.915-5.849,15.526,0.147,21.359l84.106,81.815c2.903,2.824,4.541,6.702,4.541,10.752V499.5c0,2.761,2.239,5,5,5h98.719&#10;&#9;&#9;c2.761,0,5-2.239,5-5v-9.032c0-3.875,1.506-7.593,4.19-10.387c13.731-14.29,22.172-33.701,22.172-55.084v-60.278"/>
</g>
<g>
</g>
<g>
</g>
<g>
</g>
<g>
</g>
<g>
</g>
<g>
</g>
<g>
</g>
<g>
</g>
<g>
</g>
<g>
</g>
<g>
</g>
<g>
</g>
<g>
</g>
<g>
</g>
<g>
</g>
</svg>