<?xml version="1.0" encoding="UTF-8"?>
<svg id="Layer_2" xmlns="http://www.w3.org/2000/svg" viewBox="0 0 3055.67 2009">
  <defs>
    <style>
      .cls-1, .cls-2 {
        fill: #fff;
      }

      .cls-3 {
        fill: #b24d14;
      }

      .cls-4 {
        fill-rule: evenodd;
      }

      .cls-4, .cls-5 {
        fill: #300c07;
      }

      .cls-6 {
        fill: #280202;
        opacity: .3;
      }

      .cls-7 {
        fill: #f9feff;
      }

      .cls-8 {
        fill: #fefffe;
      }

      .cls-9 {
        fill: #461d14;
      }

      .cls-10 {
        fill: #701608;
      }

      .cls-11 {
        fill: #8c8c8c;
      }

      .cls-12 {
        fill: #fa0;
      }

      .cls-13 {
        fill: #ef8f6f;
      }

      .cls-2 {
        opacity: .74;
      }

      .cls-14 {
        fill: #c1411a;
      }

      .cls-15 {
        fill: #994710;
      }

      .cls-16 {
        fill: #ef3f3f;
      }

      .cls-17 {
        fill: #cc6a1f;
      }

      .cls-18 {
        fill: #ffc408;
      }

      .cls-19 {
        fill: none;
        stroke: #000;
        stroke-miterlimit: 10;
        stroke-width: 9px;
      }

      .cls-20 {
        fill: #a5430c;
      }

      .cls-21 {
        fill: #5b0000;
      }
    </style>
  </defs>
  <g id="background">
    <g id="DONE">
      <path class="cls-16" d="M551.5,641.95c-15.39-3.44-23.88-20.27-17.18-34.54,5.89-12.56,14.4-22.92,25.51-31.11,16.43-12.14,37.23-18.2,62.39-18.2,30.72,0,54.67,7.9,71.87,23.71,14.8,13.78,22.19,31.54,22.19,53.29,0,14.03-3.67,26.99-11,38.87-6.83,10.75-17.7,22.5-32.62,35.27-15.17,13.28-24.78,24.78-28.82,34.52-2.79,6.61-4.48,15.95-5.08,28.04-.24,4.77-4.12,8.56-8.9,8.56h-22.44c-4.92,0-8.91-3.99-8.91-8.91,0-18.96,2.65-34.07,7.97-45.33,4.55-9.73,12.96-20.79,25.22-33.19,13.52-13.53,22.44-24.65,26.74-33.37,3.67-7.21,5.5-15.36,5.5-24.46,0-12.14-4.11-21.68-12.33-28.64-7.33-6.32-17-9.48-29.02-9.48-14.54,0-26.04,5.12-34.51,15.36-3.36,4.13-6.04,8.88-8.02,14.25-4.28,11.55-16.55,18.06-28.57,15.37ZM645.55,838.76c0,14.45-11.72,26.17-26.17,26.17h-2.84c-14.45,0-26.17-11.72-26.17-26.17s11.72-26.17,26.17-26.17h2.84c14.45,0,26.17,11.72,26.17,26.17Z"/>
      <g>
        <path class="cls-11" d="M1725.43,663.72v-42.4h-22.74c-2.22-9.19-5.87-17.76-10.66-25.61l16.12-16.12-29.98-29.98-16.12,16.11c-7.85-4.8-16.43-8.45-25.62-10.67v-22.73h-42.4v22.73c-9.19,2.23-17.77,5.88-25.62,10.67l-16.12-16.11-29.98,29.98,16.12,16.12c-4.79,7.85-8.44,16.42-10.66,25.61h-22.74v42.4h22.74c2.22,9.19,5.87,17.76,10.66,25.61l-16.12,16.12,29.98,29.98,16.12-16.11c7.85,4.8,16.43,8.45,25.62,10.67v22.73h42.4v-22.73c9.19-2.22,17.77-5.87,25.62-10.67l16.12,16.11,29.98-29.98-16.12-16.12c4.79-7.85,8.44-16.42,10.66-25.61h22.74ZM1680.55,618.29l-26.22,6.44c-6.79-14.87-21.72-25.27-39.11-25.27-.8,0-1.54.19-2.33.23l-6.43-26.18c2.9-.37,5.75-.88,8.75-.88,3.92,0,7.7.53,11.45,1.15,3.32.63,6.58,1.46,9.75,2.47,3.72,1.19,7.27,2.64,10.69,4.41,12.88,6.66,23.32,17.1,29.97,29.98,1.29,2.49,2.48,5,3.46,7.65ZM1615.23,669.68c-14.97,0-27.16-12.18-27.16-27.16s12.19-27.16,27.16-27.16,27.16,12.18,27.16,27.16-12.19,27.16-27.16,27.16ZM1553.36,610.64c6.66-12.88,17.09-23.32,29.97-29.98,2.49-1.29,5.01-2.48,7.67-3.47l6.43,26.22c-14.87,6.79-25.27,21.72-25.27,39.11,0,.8.19,1.54.23,2.32l-26.18,6.43c-.37-2.9-.88-5.75-.88-8.75,0-3.92.53-7.7,1.15-11.45.63-3.32,1.46-6.58,2.47-9.75,1.19-3.71,2.64-7.27,4.4-10.68ZM1549.9,666.74l26.22-6.44c6.79,14.87,21.72,25.27,39.11,25.27.8,0,1.54-.19,2.32-.23l6.43,26.18c-2.9.37-5.75.88-8.75.88-3.92,0-7.7-.53-11.45-1.15-3.32-.63-6.58-1.46-9.75-2.47-3.72-1.19-7.27-2.64-10.69-4.41-12.88-6.66-23.32-17.1-29.97-29.98-1.29-2.49-2.48-5-3.46-7.65ZM1677.09,674.4c-6.66,12.88-17.09,23.32-29.97,29.98-2.49,1.29-5.01,2.48-7.67,3.47l-6.43-26.22c14.87-6.79,25.27-21.72,25.27-39.11,0-.8-.19-1.54-.23-2.32l26.18-6.43c.37,2.9.88,5.75.88,8.75,0,3.92-.53,7.7-1.15,11.45-.63,3.32-1.46,6.58-2.47,9.75-1.19,3.71-2.64,7.26-4.4,10.68Z"/>
        <path class="cls-11" d="M1506.64,773.59l17.53-2.63-4.72-31.45-17.53,2.63c-2.96-7.57-7.18-14.4-12.33-20.39l10.58-14.31-25.59-18.9-10.57,14.3c-7.23-3.16-14.99-5.19-23.09-5.8l-2.63-17.53-31.47,4.72,2.63,17.53c-7.57,2.96-14.39,7.18-20.38,12.32l-14.3-10.57-18.92,25.57,14.31,10.58c-3.17,7.23-5.2,14.99-5.81,23.11l-17.53,2.63,4.72,31.45,17.53-2.63c2.96,7.57,7.18,14.4,12.33,20.39l-10.58,14.31,25.59,18.9,10.57-14.3c7.23,3.16,14.99,5.19,23.1,5.8l2.63,17.54,31.47-4.72-2.63-17.54c7.57-2.96,14.39-7.18,20.38-12.32l14.3,10.57,18.92-25.57-14.31-10.58c3.16-7.23,5.19-15,5.8-23.11ZM1457.68,808.79c-2.29,1.25-4.69,2.35-7.19,3.24-2.6.89-5.28,1.64-8.1,2.06-2.81.42-5.6.49-8.35.4-2.65-.12-5.26-.47-7.82-.99-1.29-.27-2.56-.54-3.81-.91-10.48-3.1-19.53-9.8-25.56-18.91-.72-1.09-1.35-2.22-1.98-3.38-1.25-2.28-2.34-4.67-3.23-7.17-.89-2.6-1.64-5.28-2.06-8.1-.42-2.82-.49-5.6-.41-8.35.12-2.65.47-5.25.99-7.8.27-1.29.54-2.57.91-3.82,3.09-10.47,9.78-19.51,18.88-25.54,1.09-.72,2.21-1.36,3.36-1.99,2.29-1.25,4.69-2.34,7.2-3.24,2.6-.89,5.28-1.64,8.1-2.06,2.81-.42,5.6-.49,8.35-.4,2.66.12,5.27.46,7.83.99,1.28.26,2.54.53,3.78.9,10.49,3.09,19.55,9.79,25.58,18.91.72,1.08,1.35,2.21,1.97,3.36,1.25,2.29,2.34,4.69,3.24,7.19.89,2.6,1.64,5.28,2.06,8.09.42,2.81.49,5.59.4,8.34-.12,2.65-.47,5.27-.99,7.82-.26,1.28-.54,2.54-.9,3.79-3.09,10.48-9.79,19.54-18.9,25.57-1.08.72-2.21,1.35-3.36,1.97Z"/>
        <path class="cls-11" d="M1471.34,598.66c.1-4.95-.56-9.92-2.08-14.78l9.99-5.92-10.81-18.24-9.99,5.91c-3.53-3.67-7.58-6.64-11.96-8.93l2.89-11.27-20.54-5.26-2.89,11.27c-4.94-.1-9.91.56-14.76,2.08l-5.91-9.98-18.26,10.81,5.91,9.98c-3.67,3.53-6.64,7.57-8.92,11.96l-11.28-2.89-5.26,20.54,11.28,2.89c-.1,4.94.56,9.92,2.08,14.78l-9.99,5.92,10.81,18.24,9.98-5.91c3.53,3.67,7.58,6.65,11.97,8.93l-2.89,11.27,20.54,5.26,2.89-11.28c4.94.1,9.91-.56,14.76-2.08l5.91,9.98,18.26-10.81-5.92-9.99c3.67-3.53,6.64-7.57,8.92-11.96l11.28,2.89,5.26-20.54-11.28-2.89ZM1435.4,615.22c-9.65,5.72-22.1,2.53-27.82-7.12-5.72-9.65-2.53-22.1,7.12-27.82,9.65-5.72,22.1-2.53,27.82,7.12,5.72,9.65,2.53,22.1-7.12,27.82Z"/>
      </g>
      <g>
        <path class="cls-18" d="M2249.76,711.37c.29,4.89,4.32,8.92,9.21,8.64l63.04-1.73c4.9,0,8.64-4.03,8.64-8.92-.29-4.89-4.32-8.64-9.21-8.64l-63.04,1.73c-4.89,0-8.63,4.32-8.63,8.92ZM2652.18,623.86c2.53,4.92.29,9.79-4.32,11.8l-73.12,33.97c-4.32,2.01-9.44-.03-11.51-4.32-2.24-4.63-.29-9.79,4.03-11.8l73.12-33.97c4.32-2.01,9.45-.26,11.8,4.32ZM2527.54,503.83c5.16,1.52,7.19,6.62,5.76,11.23l-25.05,76.57c-1.44,4.61-6.62,7.2-11.23,5.47-4.61-1.44-7.2-6.33-5.47-10.94l25.04-76.57c1.44-4.6,6.31-7.12,10.94-5.76ZM2586.84,564.85c3.74,3.16,4.03,8.92.58,12.38l-42.89,46.35c-3.46,3.45-8.92,3.74-12.38.29-3.74-3.17-4.03-8.92-.58-12.38l42.89-46.34c3.46-3.46,8.92-3.74,12.38-.29ZM2241.99,623.86c-2.53,4.92,0,9.79,4.32,11.8l73.12,33.97c4.32,2.01,9.5,0,11.8-4.32,2.02-4.61,0-9.79-4.32-11.8l-73.12-33.97c-4.32-2.01-9.45-.26-11.8,4.32ZM2366.63,503.83c-5.17,1.48-7.19,6.62-5.76,11.23l25.05,76.57c1.44,4.61,6.62,7.2,11.23,5.47,4.61-1.44,7.2-6.33,5.76-10.94l-25.33-76.57c-1.44-4.6-6.04-7.16-10.94-5.76ZM2307.33,564.85c-3.74,3.16-3.74,8.92-.58,12.38l42.89,46.35c3.46,3.45,8.92,3.73,12.67.29,3.45-3.17,3.74-8.92.29-12.38l-42.89-46.34c-3.17-3.46-8.92-3.74-12.38-.29ZM2445.79,506.7c4.89,0,8.63,4.03,8.63,8.92v63.04c0,4.89-3.74,8.92-8.63,8.92s-8.92-4.03-8.92-8.92v-63.04c0-4.89,4.03-8.92,8.92-8.92ZM2644.41,711.37c0,4.89-4.32,8.92-9.21,8.64l-63.04-1.73c-4.9,0-8.64-4.03-8.64-8.92.29-4.89,4.32-8.64,9.21-8.64l63.04,1.73c4.89,0,8.63,4.32,8.63,8.92ZM2638.94,793.98c-2.07,4.87-7.19,6.33-11.51,4.32l-73.12-33.97c-4.61-2.01-6.28-7.17-4.32-11.51,2.07-4.58,7.19-6.62,11.51-4.61l73.12,33.97c4.32,2.01,6.28,7.18,4.32,11.8ZM2255.23,793.98c2.07,4.87,7.2,6.33,11.8,4.32l73.12-33.97c4.32-2.01,6.39-7.22,4.32-11.51-2.24-4.64-7.48-6.62-11.8-4.61l-73.12,33.97c-4.32,2.01-6.28,7.18-4.32,11.8Z"/>
        <path class="cls-18" d="M2457.77,840.89h-30.78c0,4.23,6.84,7.65,15.49,7.65s15.29-3.42,15.29-7.65ZM2475.08,821.77h-63.17c-2.41,0-4.43,2.01-4.43,4.63v3.42c0,2.41,2.01,4.63,4.43,4.63h63.17c2.41,0,4.63-2.21,4.63-4.63v-3.42c0-2.61-2.21-4.63-4.63-4.63ZM2475.08,802.26h-63.17c-2.41,0-4.43,2.21-4.43,4.63v3.42c0,2.61,2.01,4.63,4.43,4.63h63.17c2.62,0,4.63-2.01,4.63-4.63v-3.42c0-2.41-2.01-4.63-4.63-4.63ZM2531.41,698.65c0-47.48-38.42-85.9-85.9-85.9s-85.91,38.43-85.91,85.9c0,30.78,16.3,57.94,40.84,73.03v23.94h88.52v-22.94c25.35-14.89,42.45-42.45,42.45-74.03Z"/>
        <path class="cls-1" d="M2468.97,717.19c-2.42-3.44-6.03-5.72-10.17-6.43-4.12-.74-8.3.22-11.73,2.64-.57.4-1.04.88-1.54,1.34-1.95-4.14-5.49-7.65-10.19-9.56-9.51-3.82-20.2.32-23.83,9.27-3.61,8.96,1.19,19.37,10.7,23.22,2.39.96,4.87,1.44,7.34,1.44,2.27,0,4.54-.41,6.68-1.23,1.02-.38,1.96-.88,2.86-1.42v59.16h6.52v-57.77c2.94,2.66,6.71,4.1,10.54,4.1,3.13,0,6.3-.93,9.03-2.86,3.44-2.42,5.72-6.03,6.44-10.17.71-4.14-.23-8.3-2.65-11.73ZM2433.91,731.8c-2.94,1.09-6.2,1.07-9.25-.17-6.19-2.5-9.38-9.12-7.11-14.74,1.68-4.16,5.88-6.63,10.46-6.63,1.61,0,3.27.3,4.89.96,6.18,2.5,9.37,9.12,7.1,14.74-1.09,2.69-3.24,4.76-6.08,5.84ZM2461.42,733.76c-4.15,2.92-9.9,1.93-12.83-2.21-1.42-2.01-1.97-4.45-1.54-6.88.42-2.42,1.75-4.53,3.76-5.95,1.57-1.1,3.4-1.68,5.29-1.68.54,0,1.06.04,1.6.14,2.42.42,4.53,1.75,5.95,3.76,1.42,2.01,1.97,4.45,1.55,6.87-.42,2.42-1.75,4.54-3.77,5.95Z"/>
      </g>
      <g>
        <path class="cls-17" d="M2838.66,1499.51c2.49-3.95-47.69-27.75-50.53-24.05-42.45,55.38-126.94,129.58-141.53,143.14,0,0,44.04,38.23,82.26,28.67,30.43-7.62,76.91-95.55,109.8-147.76Z"/>
        <path class="cls-12" d="M2218.45,1700.17c16.53,19.86,115.22,36.3,116.78,33.49,28.05-50.25,55.88-165.26,56.13-167.99-50.1,2.27-74.68,7.95-85.17,12.36-26.21,19.94-57.28,74.99-87.74,122.14Z"/>
        <path class="cls-12" d="M2701.45,1564.13c3.75,27.41,4.92,82.72,7.01,111.34-59.12,8.07-107.46,11.5-111.43,9.6-41.24-19.79-44.93-110.43-46.72-116.17,29.72.67,93.34,1.37,151.14-4.77Z"/>
        <path class="cls-12" d="M2625.46,1894.18c-5.2-70.51-16.71-272.69-34.07-321.24-76.65-9.78-201.24-14.75-268.2.14-1.78,67.01-11.4,220.9-18.62,322.96,33.27,33.04,233.57,51.07,320.89-1.86Z"/>
        <path class="cls-2" d="M2386.58,1565.58c1.08,31.12,35.96,59.92,77.5,59.26,41.65-.65,74.99-26.37,74.91-57.55-49.37-3.64-105.26-4.97-152.41-1.72Z"/>
        <path class="cls-17" d="M2519.66,1479.83l.84,92.3c.18,19.85-24.9,36.17-56.02,36.46-31.12.28-56.49-15.58-56.67-35.43l-.84-92.31,112.69-1.03Z"/>
        <path class="cls-6" d="M2407.52,1541.78c9.95,20.71,34.68,36.97,65.16,40.05,17.53,1.77,33.92-1.28,47.49-7.5.06-.74.33-1.45.33-2.2l-.47-51.33c-37.94-6.78-81.08-12.1-112.83-14.63l.32,35.6Z"/>
        <g>
          <path class="cls-17" d="M2791.24,1401.84c14.33-31.34,41.07-97.15,48.68-93.93,22.49,9.52,4.28,56.93-9.63,86.54-1.53,3.25-2.91,6.17-4.24,8.93,25.45,19.82,49.15,49.07,64.42,56.94-22.23,35.94-39.28,49.24-51.57,52.71-22.46,6.34-50.84-2.32-64.1-27.41-9.85-18.65-12.76-34.2-8.23-71.06,6.11-2.82,17.2-5.97,24.67-12.71Z"/>
          <path class="cls-6" d="M2807.6,1476.7c26.3,23.97,59.39,12.55,72.69-12.3-6.37-3.17-41.28-47.88-43.62-82.94-24.6-1.07-38.59,48.68-46.62,45.8,15.46,9.87,24.99,29.1,17.54,49.44Z"/>
          <path class="cls-17" d="M2813.8,1403.64c8.54-16.22,22.12-25.87,30.34-21.54,7.4,3.9,7.86,17.8,1.66,32.38,9.55-9.38,20.45-13.37,26.86-8.84,6.9,4.88,6.28,17.94-.75,31.04,9.03-3.86,17.42-3.88,21.49.92,6,7.08.32,21.76-12.69,32.78-13.01,11.02-28.42,14.21-34.42,7.12-3.29-3.88-2.96-10.07.05-16.66-4.69,1.54-9,1.44-12.18-.81-5.94-4.2-6.31-14.47-1.82-25.61-6.77,6.38-13.98,9.12-19.11,6.42-8.22-4.32-7.96-20.98.58-37.2Z"/>
          <path class="cls-6" d="M2827.76,1413.4c.74,10.36-3.95,25.54-20.07,25.49-14.91-.05-34.15-10.25-34.89-20.61-.75-10.36,11.68-19.7,27.75-20.86,16.07-1.16,26.46,5.62,27.21,15.98Z"/>
          <path class="cls-17" d="M2827.76,1413.4c.71,9.86-12.48,18.84-29.45,20.06-16.97,1.22-31.31-5.78-32.02-15.64-.71-9.86,12.47-18.84,29.45-20.06,16.97-1.22,31.31,5.78,32.02,15.64Z"/>
        </g>
        <path class="cls-2" d="M2226.76,1687.16c24.18,15.18,63.7,44.03,90.4,65.5l7.06-8.82c-27.01-21.7-66.98-50.86-91.53-66.26-1.82,2.92-3.82,6.15-5.94,9.58Z"/>
        <path class="cls-17" d="M2418.3,1782.97c4.65-.44,8.86-55.42,4.19-55.39-69.77.56-173.09-16.43-192.76-19.44,0,0-10.14,52.43,20.96,75.5,24.76,18.37,106.23,5.21,167.61-.67Z"/>
        <g>
          <path class="cls-20" d="M2495.44,1652.33c7.53,5.13-4.95,22.07-20.79,27.83-15.85,5.76-44.54,9.18-47.65.62,5.07-9.13,52.97-39,68.45-28.46Z"/>
          <path class="cls-17" d="M2480.94,1721.77c9.11-3.34,29.11-12.53,35.07-1.54,2.45,4.53-15.7,12.7-32.91,20.74-5.75,2.69-8.36,1.38-26.28,4.94-.03,1.74,9.45,2.74,20.93.36,6.25-1.29,22.12-16.43,31.38-3.7,1.59,2.18-20.69,16.97-25.95,20.36-8.39,5.41-61.58,20.64-64.88,20.06-13.85-2.44-23.99-13.87-25.86-32.66.24-14.88,14.95-53.81,34.07-75.64,18.03-6.99,31.01-9.61,44.4-12.68,37.82-.66,55.68-2.67,55.06,4.7-1.48,17.63-31.95,17.58-47.47,19.39-12.2,2.48-25.11,7.58-31.28,10.46-.41,3.14,20.33-3.67,32.2-6.06,9.88-1.34,44.67-3.57,44.57,3.08-.27,17.89-16.23,13.32-41.6,19.39-9.88,3.06-27.78,10.62-28.57,12.36,2.53,2.03,8.19.39,27.12-3.53Z"/>
        </g>
        <g>
          <g>
            <g>
              <path class="cls-17" d="M2193.87,1400.68c16.23,38.93,59.82,57.48,88.13,49.48,28.31-8,28.98-41.91,18.16-80.1-10.83-38.18-40.98-57.5-70.85-54.65-40.1,3.83-50.69,48.67-35.43,85.26Z"/>
              <path class="cls-15" d="M2232.61,1405.08c9.62,15.94,27.95,21.84,40.95,13.18,12.99-8.66,15.72-28.61,6.1-44.55-9.62-15.94-27.95-21.84-40.94-13.18-13,8.66-15.73,28.61-6.11,44.55Z"/>
            </g>
            <g>
              <path class="cls-17" d="M2737.53,1400.68c-16.23,38.93-59.83,57.48-88.13,49.48-28.31-8-28.98-41.91-18.15-80.1,10.83-38.18,40.98-57.5,70.85-54.65,40.1,3.83,50.69,48.67,35.43,85.26Z"/>
              <path class="cls-15" d="M2698.8,1405.08c-9.62,15.94-27.95,21.84-40.95,13.18-12.99-8.66-15.72-28.61-6.1-44.55,9.62-15.94,27.95-21.84,40.94-13.18,13,8.66,15.73,28.61,6.11,44.55Z"/>
            </g>
          </g>
          <path class="cls-5" d="M2709.35,1143.31c-7.25-68.24-119.15-118.13-243.05-118.13s-236.04,49.89-243.29,118.13c-2.8,26.35-4.92,93.86,5.44,137.76,26.36,111.73,93.51,170.38,230.43,169.53,2.47-.01,12.14-.01,14.6,0,136.92.85,204.07-57.8,230.43-169.53,10.36-43.9,8.24-111.41,5.44-137.76Z"/>
          <path class="cls-17" d="M2669.33,1204.08c-23.95-86.11-104.79-110.63-202.88-111.19h-1.1c-98.38.55-178.91,25.08-202.87,111.19-20.07,72.16,3.67,227.92,31.22,273.92,23.18,38.71,106.73,79.28,170.26,78.87.55,0,3.33,0,3.88,0,63.82.42,147.03-40.19,170.26-78.87,27.48-45.76,51.29-201.74,31.22-273.92Z"/>
          <path class="cls-14" d="M2636.9,1406.16c.68,9.74-12.54,18.95-29.54,20.06-17,1.12-31.21-5.84-31.77-15.88-.54-9.75,12.55-18.94,29.54-20.06,16.73-1.11,31.06,5.83,31.77,15.88Z"/>
          <g>
            <path class="cls-7" d="M2521.03,1311.13c-15.98,23.9-13.35,50.13,1.13,59.91,21.77,14.72,72.95,18.08,91.68-3.91,18.08-21.22,8.72-59.79-21.74-75.52-26.7-13.78-55.56-3.68-71.06,19.51Z"/>
            <path class="cls-10" d="M2616.07,1303.04c-23.88-36.57-80.25-23.13-95.58,8.91,15.88-23.97,45.99-31.8,70.51-18.67,15.07,8.07,26.17,22.58,29.26,38.74,2.5,13.1-.29,27.58-7.8,36.51,8.91-5.84,21.24-38.49,3.62-65.48Z"/>
            <path class="cls-9" d="M2557.27,1306.13c-17.85,0-32.33,14.47-32.33,32.33s14.47,32.33,32.33,32.33,32.33-14.47,32.33-32.33-14.47-32.33-32.33-32.33Z"/>
            <path class="cls-8" d="M2576.2,1318.1c-4.92,0-8.91,3.99-8.91,8.91s3.99,8.91,8.91,8.91,8.91-3.99,8.91-8.91-3.99-8.91-8.91-8.91Z"/>
          </g>
          <path class="cls-5" d="M2635.9,1233.98c-2.23,2.23-5.84,3.35-9.2,3.35-3.07,0-6.16-1.09-8.36-2.78-14.65-11.22-47.03-17.41-69.96-10.66-3.36.99-7.1,1.14-9.29.41-3.58-1.21-5.67-4.06-6.6-7.09-.78-2.57-.84-5.58.55-8.09,1.39-2.51,3.89-4.49,6.97-5.57,31.13-10.97,73.26-3.69,93.85,14.05,2.86,2.46,4.24,5.94,4.47,8.71.22,2.69-.22,5.73-2.45,7.68Z"/>
          <path class="cls-14" d="M2294.86,1406.16c-.68,9.74,12.54,18.95,29.54,20.06,17,1.12,31.21-5.84,31.77-15.88.54-9.75-12.55-18.94-29.54-20.06-16.73-1.11-31.06,5.83-31.77,15.88Z"/>
          <g>
            <path class="cls-21" d="M2550.79,1425.92c-3.52-18.35-31.72-13.59-77.77-13.9-2.41-.02-11.78-.02-14.19,0-46.06.31-74.25-4.45-77.77,13.9-6.78,35.34,37.69,73.94,84.46,74.08h.81c46.78-.14,91.24-38.74,84.47-74.08Z"/>
            <path class="cls-13" d="M2466.32,1500.74h-.81c-15.17-.06-30.9-4.36-45.54-12.4l-.89-.47.75-.67c12.15-10.9,28.53-16.9,46.1-16.9s33.92,6.01,46.1,16.9l.75.67-.89.47c-14.67,8.05-30.42,12.35-45.57,12.4Z"/>
            <path class="cls-1" d="M2465.93,1435.58c-32.18,0-58.98-9.97-62.33-23.22l-.19-.81h125.05l-.19.81c-3.38,13.24-30.17,23.22-62.33,23.22Z"/>
          </g>
          <path class="cls-10" d="M2484.56,1389.55c-1.12,0-2.21-.85-2.21-1.95-1.39-8.09-7.8-13.38-16.45-13.38s-15.33,5.29-16.45,13.38c-.29,1.39-1.39,2.23-2.78,1.94-1.39-.29-2.23-1.39-1.95-2.78,1.39-10.32,10.04-17.55,21.18-17.55s19.17,6.98,21.18,17.29c.27,1.39-.55,2.52-1.95,2.78l-.59.27Z"/>
          <g>
            <path class="cls-7" d="M2410.72,1311.13c15.98,23.9,13.35,50.13-1.13,59.91-21.78,14.72-72.95,18.08-91.68-3.91-18.08-21.22-8.72-59.79,21.74-75.52,26.7-13.78,55.56-3.68,71.06,19.51Z"/>
            <path class="cls-10" d="M2315.68,1303.04c23.88-36.57,80.25-23.13,95.58,8.91-15.88-23.97-45.99-31.8-70.51-18.67-15.07,8.07-26.18,22.58-29.26,38.74-2.5,13.1.29,27.58,7.8,36.51-8.91-5.84-21.24-38.49-3.62-65.48Z"/>
            <circle class="cls-9" cx="2374.48" cy="1338.45" r="32.33" transform="translate(-250.96 2071.04) rotate(-45)"/>
            <path class="cls-8" d="M2355.55,1318.1c4.92,0,8.91,3.99,8.91,8.91s-3.99,8.91-8.91,8.91-8.91-3.99-8.91-8.91,3.99-8.91,8.91-8.91Z"/>
          </g>
          <path class="cls-5" d="M2295.86,1233.98c2.23,2.23,5.84,3.35,9.2,3.35,3.07,0,6.15-1.09,8.36-2.78,14.64-11.22,47.03-17.41,69.95-10.66,3.36.99,7.1,1.14,9.29.41,3.59-1.21,5.68-4.06,6.6-7.09.78-2.57.84-5.58-.55-8.09-1.39-2.51-3.89-4.49-6.97-5.57-31.13-10.97-73.27-3.69-93.86,14.05-2.85,2.46-4.24,5.94-4.47,8.71-.22,2.69.22,5.73,2.45,7.68Z"/>
          <path class="cls-4" d="M2724.17,1136.23c0-7.2-4.35-13.28-10.53-16.31,9.34-14.63,9-37.83-4.14-55.36-11.85-15.81-34.96-17.84-47.27-15.46,1.13-2.27,1.69-4.83,1.69-7.39,0-8.24-7.93-17.42-15.17-15.49,1.27-9.07.43-20.23-11.26-26.34-15.19-7.95-36.25-.49-46.37,13.15-8.15-5.39-18.28-8.8-29.52-8.8-7.87,0-15.46,1.42-21.93,4.26,2.96-7.46,1.07-22.54-14.32-27.88-17.81-6.18-46.5-3.46-62.14,21.06.28-10.23-5.07-19.89-15.18-25.28-15.47-7.95-35.99-2.83-45.82,11.64-3.64,5.12-5.34,10.79-5.34,16.18-7.32-3.68-15.75-5.95-24.47-5.95-19.39-.28-36.25,9.08-44.69,23.01-3.64-8.24-13.21-13.9-24.17-14.2-14.62-.29-26.42,9.36-26.71,21.59,0,5.95,2.8,11.63,7.59,15.61-5.41.11-10.55,6.54-8.3,11.2-16.3-3.69-27.43-3.53-36,3.38-5.78,4.66-4.98,16.87,1.42,22.73-15.08-.71-23.87,4.48-29.4,11.98-7.23,9.8-2.19,22.27,2.89,25.96-9.37,2.78-12.07,25.84,8.98,30.32l-1.19,83.48s4.56,12.22,9.89,13.07c.56-32.09,23.09-66.92,34.01-81.05,9.83,3.13,22.48,1.42,34-6.25,12.08-8.24,18.55-20.16,18.83-30.96,11.35,12.02,41.42-.52,43.07-13.05,8.88,8.34,25.18,10.17,38.38,8.46,18-2.28,30.79-11.29,39.77-18.1,6.48,7.1,20.34,16.39,36.37,16.39,12.37,0,23.04-3.13,30.35-7.66,16.29,11.06,34.61-.83,33.52-11.23,7.59,12.2,17.94,18.91,41.03,22.93,9.24,1.6,20.33.48,25.87-2.25,0,.28-.29.56-.29.56,0,16.48,16.02,29.82,35.99,29.82,4.49,0,8.99-.85,12.93-2.27,16.59,21.86,27.79,50.87,30.09,75.55,1.96-.28,15.22,4.05,21.34,3.4v-76.56c9.1-1.33,16.19-8.66,16.19-17.9Z"/>
        </g>
        <path class="cls-2" d="M2693.88,1677.38c-4.02-28.26-7.52-77.07-8.37-111.32l-11.3.3c.87,34.64,4.43,83.98,8.51,112.67,3.4-.5,7.16-1.05,11.15-1.65Z"/>
      </g>
      <g>
        <path class="cls-17" d="M1815.62,1727.15c-18.14-63.66-60.96-156.1-68.84-165.59l-84.04,48.84c4.21,20.56,70,147.76,88.78,161.68,17.88-3.39,78.01,3.9,64.09-44.93Z"/>
        <path class="cls-12" d="M1822.09,1661.57c-23.27,21.98-55.75,39.88-81.32,50.31-39.64-41.74-81.27-175.97-81.66-180.35,31.15-1.04,56.7-1.24,67.18,3.2,20.55,19.7,62.94,79.81,95.8,126.85Z"/>
        <path class="cls-2" d="M1724.63,1716.15c21.65-18.61,60.9-47.83,89.31-66.98l-6.33-9.36c-28.72,19.38-68.39,48.94-90.37,67.83,2.25,2.6,4.74,5.47,7.4,8.51Z"/>
        <path class="cls-12" d="M1438.37,1905.97c88.51,28.65,256.27,35.7,327.98-22.61-13.04-121.6-46.54-303.65-63.63-352.01-132.56-.38-177.74,7.89-258.08,26.26,18.78,116.59,13.3,193.62-6.27,348.37Z"/>
        <path class="cls-2" d="M1659.48,1542.48c-.13-4.06-1.11-7.91-2.38-11.67-41.79.41-104.29,4.34-148.54,11.33-.21,1.77-.82,3.46-.76,5.28,1.02,31.42,35.81,55.78,77.69,54.42,41.89-1.36,75.02-27.94,73.99-59.36Z"/>
        <path class="cls-17" d="M1626.54,1450.03l14.05,91.23c3.02,19.62-19.46,39.37-50.22,44.1-30.76,4.74-58.14-7.33-61.16-26.95l-14.05-91.23,111.38-17.16Z"/>
        <path class="cls-6" d="M1685.18,1486.86c-.13-4.53-1.21-8.82-2.61-13.02-46.55.27-116.2,4.36-165.52,11.95-.24,1.97-.93,3.86-.87,5.88,1,35,39.64,62.31,86.31,60.98,46.67-1.33,83.69-30.78,82.7-65.79Z"/>
        <path class="cls-17" d="M1659.95,1803.22c61.53-4.78,100.37-19.44,135.08-33.51,44.43-18.02,12.68-84.94-19.26-73.25-30.26,16.29-77,34.04-124.5,50-7.7,2.59.36,57.41,8.68,56.77Z"/>
        <path class="cls-17" d="M1587.26,1821.04c19.42-2.32,41.18-7.08,80.39-18.96,28.38-8.6,29.62-32.1,23.02-46.35-3.79-8.18-41.61-44.44-56.24-48.26-9.65-2.52-29.41-6.83-31.13-5.25-8.33,7.64,3.17,18.22,19.05,23.06,4.54,1.85,8.35,4.36,12.39,11.11-.39,3.77-31.08-7.03-44.93-9.07-11.06-1.63-40.48,7.16-41.46,10.69-2.41,8.67,23.51,8.06,34.05,8.74,3.66.24,14.23,4.02,20.5,7.31-8.2,2.16-23.63,2.65-29.25,3.66-10.83,1.95-35.07,3.01-37.15,10.31-1.62,5.7,14,8.48,33.21,8.6,4.66.03,21.95.64,33.22,1.37.06.47-25.69,5.71-29.42,5.59-11.06-.35-26.07-2.21-30.9,7.79-1.32,2.73,23.11,10.03,34.54,9.41,5.1-.28,16.38-.44,29.8-2.08-7.44,2.78-21.75,6.19-24.78,6.87-16.63-3.07-23.38-3.72-27.14,3.72-1.16,2.3,22.95,12.86,32.21,11.76Z"/>
        <path class="cls-17" d="M1643.24,1643.95c-33.01,53.99-52.21,91.36-82.62,126.92-38.05,44.47-103.09-15.36-61.93-55.73,30.23-29.65,63.52-63.27,96.11-104.22,5.56-6.99,53.23,25.2,48.44,33.03Z"/>
        <path class="cls-17" d="M1567.42,1735.15c3.04,4.07,4.82,50.36-40.32,54.71-29.13,2.81-91.86-75.56-103.66-93.8l55.66-59.33c32.36,32.13,55.75,54.87,88.32,98.42Z"/>
        <path class="cls-12" d="M1438.37,1752.64c30.58-13.22,84.52-53.12,100.84-78.3-73.21-101.35-92.5-113-94.9-116.75-24.39,13.06-43.38,56.64-45.43,71.57-2.44,17.79,18.31,66.81,39.49,123.48Z"/>
        <g>
          <path class="cls-3" d="M1827.35,1325.06c-6.35,35.33-31.04,55.58-49.78,50.32-18.74-5.26-22.58-35.09-19.59-69.41,3-34.33,20.63-57.98,39.36-52.63,25.6,7.31,35.96,38.52,30,71.72Z"/>
          <path class="cls-5" d="M1798.27,1182.78c18.92,206.19-47.81,274.37-200.55,288.47-150.07,13.85-205.87-29.67-261.71-129.05-28.87-51.38-54.78-155.14-43.05-186.2,27.54-72.95,123.81-123.31,227.48-142.65,150.78-28.12,261.95-3.8,277.84,169.43Z"/>
          <path class="cls-17" d="M1755.16,1093.2c6.59,4.33,10.82,11.58,12.36,28.83,11.87,132.94,23.78,155.16,35.04,239.13,10.74,80.11-63.32,151.34-134,166.52-58.16,12.49-136.8,6.19-195.5-33.65-20.6-13.98-37.95-41.07-58.41-72.03-47.56-63.14-86.94-200.07-81.4-229.97,18.57-100.17,62.89-99.15,184.61-121.62,114.05-21.05,162.94-26.11,237.29,22.79Z"/>
          <path class="cls-5" d="M1413.61,1261.96c18.45,49.58,29.63,91.29-.7,126.72-35.35,41.29-96.39-67.14-111.53-148.55-15.14-81.41,31.14-152.23,136.11-164.59,54.01-6.36-73.31,53.59-23.88,186.42Z"/>
          <path class="cls-10" d="M1664.92,1359.32c-1.11.12-2-.33-2.4-1.42-2.22-7.32-8.84-11.34-16.85-10.15-8.01,1.19-13.22,7.11-13.25,14.39.12,1.11-.89,2.06-2.27,2.21-1.11.13-2.06-.89-2.22-2.28.05-9.54,7.01-17.33,17.23-18.76,9.94-1.4,18.67,3.78,21.68,13.27.41,1.08-.3,2.27-1.38,2.69l-.55.06Z"/>
          <g>
            <path class="cls-17" d="M1338.06,1415.31c19.96,39.82,65.97,55.14,93.85,45.74,21.7-7.32,18.19-45.28,5.91-80.02-13.23-37.42-37.9-56.29-67.64-52.28-39.92,5.37-49.88,51.13-32.12,86.57Z"/>
            <path class="cls-15" d="M1375.75,1406.51c5.61,18.25,30.77,31.01,46.31,22.12,5.23-2.99-17.18-61.98-25.89-61.06-19.79,2.09-26.03,20.69-20.43,38.94Z"/>
          </g>
          <g>
            <path class="cls-7" d="M1681.92,1279.62c-9.23,25.71-2.65,50.65,11.51,57.98,21.08,10.92,65.01,6.57,77.08-17.57,11.63-23.24-3.11-58.89-31.66-69.82-25.42-9.73-48.04,4.65-56.93,29.4Z"/>
            <path class="cls-10" d="M1761.11,1257.48c-26.88-31.66-72.09-10.28-79.31,23.27,9.27-25.69,33.42-37.68,56.7-29.08,14.4,5.32,26.16,17.96,31.64,33.17,4.43,12.29,4.72,26.91-.28,36.41,6.26-6.88,10.92-40.61-8.75-63.78Z"/>
            <path class="cls-9" d="M1761.62,1283.94c-3.23-17.24-18.11-28.92-33.22-26.09-15.12,2.83-24.75,19.11-21.52,36.35,3.23,17.24,18.11,28.92,33.22,26.09,15.12-2.83,24.75-19.11,21.52-36.35Z"/>
            <path class="cls-8" d="M1723.58,1279.43c-.91-4.85-5.09-8.14-9.34-7.34-4.25.8-6.96,5.37-6.05,10.22.91,4.85,5.09,8.13,9.34,7.34,4.25-.8,6.96-5.37,6.05-10.22Z"/>
          </g>
          <g>
            <path class="cls-7" d="M1570.46,1293.73c20.03,20,22.67,45.93,10.68,58.11-18.18,18.47-66.66,31.69-88.9,14.05-21.48-17.03-19.71-55.76,6.41-77.13,22.69-18.57,52.49-14.32,71.81,4.98Z"/>
            <path class="cls-10" d="M1477.37,1304.47c16.14-39.97,72.82-37.77,93.81-9.71-20.01-20.03-50.51-21.86-71.74-4.41-13.03,10.71-20.84,26.93-20.71,42.96.11,12.96,5.51,26.5,14.5,33.57-9.61-3.87-27.65-33.2-15.86-62.4Z"/>
            <path class="cls-9" d="M1538.22,1288.55c-17.34,2.68-29.22,18.91-26.54,36.25,2.68,17.34,18.91,29.22,36.25,26.54,17.34-2.69,29.22-18.91,26.54-36.25-2.68-17.34-18.91-29.22-36.25-26.54Z"/>
            <path class="cls-8" d="M1521.33,1303.29c-4.86.75-8.19,5.3-7.44,10.16.75,4.86,5.31,8.19,10.17,7.44,4.86-.75,8.19-5.31,7.44-10.17-.75-4.86-5.3-8.19-10.16-7.44Z"/>
          </g>
          <path class="cls-4" d="M1276.49,1184.48c-1.02-8.94,3.21-15.58,9.82-19.56-12.59-13.06-14.99-46.69.89-67.38,12.71-16.57,26.22-21.42,40.16-22.75-1.63-2.1-2.73-4.61-3.25-7.22-1.7-8.45,7.46-17.55,15.89-15.66-2.23-8.48-.7-20,10.17-27.1,14.05-9.19,35.44-7.82,48.62,4.07,4.89-7.88,13.31-14.61,27.39-17.98,8-1.92,17.32-1,24.4,2.71-4.57-7.03-5.75-22.87,8.92-31.53,16.98-10.01,46.93-13.14,68.02,8.75-2.4-10.42,1.09-21.43,10.34-29.04,14.21-11.34,36.29-10.33,49.36,2.47,4.79,4.49,7.7,9.95,8.81,15.48,6.74-5.29,14.9-9.35,23.84-11.15,19.81-4.3,39.02,1.82,50.55,14.35,2.03-9.2,10.67-16.97,21.84-19.54,14.91-3.32,29.01,4.14,31.82,16.61,1.23,6.1-.47,12.5-4.55,17.56,5.57-1,10.86,2.97,9.45,9.25,8.84-4.31,19.25-7.64,27.35-1.88,6.33,4.5,8.59,16.26,3.24,23.58,15.3-3.84,26.45,1.86,31.82,9.99,10.41,15.76,9.42,39.4,1.14,48.46,10.18.92,20.37,18.73-2.51,30.73,9.93,37.42,12.29,96.19,12.29,96.19,0,0-23.93-37.49-28.65-49.48-2.68-26.59-14.31-57.28-28.29-57.53-11.1,1-12.23.76-21.68-3.98-11.92-5.98-17.67-12.73-20.54-21.16-16.15,15.26-45.91,10.18-50.2-2.33-7.38,10.38-23.69,15.62-37.58,16.6-18.91,1.38-33.88-5.22-44.5-10.34,1.83,8.99-3.76,20.44-19.84,25.15-12.14,3.55-24.48.82-32.91-2.33-5.42,12.93-23.9,10.28-23.05-.79-5.26,14.07-.37,25.57-23.2,34.45-9.14,3.55-20.74,4.69-26.98,3.03.06.29.41.51.41.51,6.09,15.52-4.01,29.98-30,26.69-10.5,4.34-13.71,52.69-7.61,76.64-19.24,8.72-77.29,26.41-83.7,27l-26.58-66.05c-11.82-2.41-19.26-11.15-20.9-25.5Z"/>
          <path class="cls-5" d="M1770.04,1167.89c.1,2.63-.79,5.32-2.71,7.23-1.9,2.18-5.08,3.37-8.07,3.49-2.73.1-5.52-.82-7.54-2.35-13.46-10.13-38.23-12.79-58.34-5.46-2.45.89-4.93.96-7.2.27-3.25-.98-5.85-2.95-7.18-6.07-1.11-2.59-.94-5.25.21-7.68,1.15-2.43,3.31-4.35,6-5.52,27.69-10.04,61.61-6.3,80.83,8.83,2.59,2.29,3.92,4.61,4.02,7.25Z"/>
          <path class="cls-14" d="M1538.05,1403.67c.77,10.51-13.23,20.1-31.25,21.41-18.02,1.31-33.26-6.14-34.02-16.66-.76-10.51,13.23-20.1,31.25-21.42,18.03-1.31,33.26,6.15,34.03,16.66Z"/>
          <path class="cls-14" d="M1744.35,1369.08c2.34,9.81,16.87,14.75,32.46,11.03,15.57-3.72,26.31-14.69,23.97-24.5-2.34-9.81-16.87-14.75-32.45-11.03-15.58,3.72-26.32,14.69-23.97,24.5Z"/>
          <path class="cls-10" d="M1625.49,1454.2c-.8.04-1.58-.16-2.29-.61-1.85-1.18-2.65-3.78-1.23-5.45,11.82-14.05,27.15-24.78,45.11-24.08,11.1.28,20.8,8.86,25.3,16.1,1.16,1.86.4,4.31-1.5,5.38-1.91,1.07-4.14.31-5.37-1.51-3.13-4.65-10.34-11.79-18.62-12.08-17.66-.62-29.87,10.6-38.26,20.4-.87,1.01-1.9,1.77-3.14,1.84Z"/>
          <path class="cls-5" d="M1540.95,1223.13c-3-.96-6.72-.31-9.71,1.22-2.73,1.4-4.98,3.78-6.17,6.29-7.91,16.67-33.89,36.96-57.37,41.42-3.45.65-6.84,2.23-8.45,3.88-2.64,2.71-3.2,6.21-2.64,9.32.48,2.64,1.8,5.35,4.18,6.94,2.38,1.6,5.51,2.22,8.75,1.78,32.71-4.45,66.87-30.17,77.09-55.35,1.42-3.49,1.06-7.22,0-9.79-1.03-2.49-2.81-5-5.68-5.71Z"/>
        </g>
        <g>
          <path class="cls-6" d="M1718.69,1505.83c-11.36-6.74-51.83-11.89-65.15-4.98-19.31,10.01-55.18,31.02-55.89,31.16,0,0-21.03-24.81-34.88-28.24-6.76-1.68-17.07-.58-22.22,3.4-2.67,2.06,11.95,30.2,30.38,66.06,10.4,20.23,6.99,36.21,17.03,43.8,38.42,14.24,50.93-84.65,81.42-92.8,19.48-5.2,36.87-1.1,51.19-12.96-.23-2.5-.72-4.74-1.88-5.43Z"/>
          <path class="cls-17" d="M1700.95,1582.33c-1.81-4.24-3.36-4.39-11.03,1.85,5.64-8.54,10.48-16.93,2.28-27.37-3.47-4.42-8.94.35-17.3,6.09,5.08-7.19,15-14.18,6.83-25.55-3.29-4.57-16.57-.36-25.03,3.34,5.52-3.76,15.07-12.81,22.53-14.44,18.25-3.97,46.1-4.33,38.81-18.24-2.21-4.21-48.38-9.62-59.9-2.79-16.46,9.76-23.51,13.89-44.85,28.22-7.99,5.36-13.05,14.28-21.38,1.47-12.71-19.55-34.31-35.62-48.19-24.91-5.58,4.3,26.85,33.4,36.08,70.76,5.47,22.14-.71,30.94,6.46,43.68,10.84,19.25,35.29,28.09,47.36,27.39,12.92-.75,30.94-6.12,57.52-40.81,9.07-11.84,13.72-19.55,9.83-28.69Z"/>
        </g>
        <path class="cls-2" d="M1432.59,1732.59c23.44-16.3,65.46-41.37,95.68-57.52l-5.35-9.95c-30.55,16.35-73.03,41.71-96.82,58.26,1.97,2.82,4.16,5.92,6.49,9.22Z"/>
      </g>
      <g>
        <path class="cls-17" d="M244.25,1614.77c-2.81-3.73,43.47-29.52,46.59-26.05,46.68,51.86,135.99,119.93,151.5,132.42,0,0-38.88,39.56-76.9,32.18-30.27-5.87-84.1-89.29-121.19-138.54Z"/>
        <g>
          <path class="cls-20" d="M213.17,1565.91c-30.33-12.34-56.79-17.55-65.68-7.16,15.42,8.91,77.84,35.54,126.34,62.29,4.94,2.72,19.14-23.91,13.94-30.94-2.17-24.7-32.31-29.55-56.15-64.71-6.82-10.06-13.39-1.98-13.28,3.65.21,10.08,5.78,19.81,12.23,36.71,4.56,11.94-8.88,3.63-17.4.16Z"/>
          <path class="cls-20" d="M137.94,1581.77c18.52,6.87,46.13,17.25,98.37,38.08,15.46,6.16,24.13-17.58,18.12-20.13-31.11-13.21-102.34-42.19-116.5-17.94Z"/>
          <path class="cls-17" d="M137.94,1599.46c18.17,7.76,71.14,13.73,122.61,33.15,25.94,9.79,56.47-31.11,27.2-52.55-17.55-12.86-58.21,4.79-73.83,14.83-31.46-5.11-68.12-6.92-75.98,4.57Z"/>
        </g>
        <path class="cls-17" d="M1020.21,1614.77c2.81-3.73-43.47-29.52-46.59-26.05-46.68,51.86-135.99,119.93-151.5,132.42,0,0,38.88,39.56,76.9,32.18,30.27-5.87,84.1-89.29,121.19-138.54Z"/>
        <path class="cls-12" d="M889.07,1667.69c-16.23,20.11-55.32,62.77-77.75,77.47-21.48-19.29-69.09-55.24-70.7-58.03-28.8-49.82-43.6-115.89-43.89-118.62,50.13,1.51,76.73,6.85,87.29,11.09,26.51,19.54,66.13,55.33,105.05,88.08Z"/>
        <path class="cls-12" d="M375.35,1665.4c16.53,19.86,58.19,67.34,77.27,77.9,20.5-16.72,65.66-54.3,67.22-57.1,28.05-50.25,41.84-116.54,42.09-119.27-50.1,2.28-74.68,7.95-85.17,12.36-26.21,19.94-63,52.78-101.41,86.11Z"/>
        <g>
          <path class="cls-20" d="M1051.12,1566.27c30.34-12.34,56.79-17.55,65.68-7.16-15.42,8.91-77.84,35.54-126.34,62.29-4.94,2.72-19.14-23.91-13.94-30.94,2.17-24.7,32.31-29.55,56.15-64.7,6.82-10.06,13.39-1.98,13.28,3.65-.21,10.08-5.78,19.81-12.23,36.71-4.55,11.93,8.88,3.63,17.4.16Z"/>
          <path class="cls-20" d="M1126.36,1582.14c-18.52,6.87-46.13,17.26-98.37,38.08-15.46,6.16-24.13-17.58-18.12-20.13,31.11-13.21,102.34-42.19,116.5-17.95Z"/>
          <path class="cls-17" d="M1126.36,1599.83c-18.17,7.76-71.14,13.73-122.61,33.15-25.94,9.79-56.47-31.11-27.2-52.55,17.55-12.86,58.21,4.79,73.83,14.83,31.46-5.11,68.12-6.92,75.98,4.57Z"/>
        </g>
        <path class="cls-12" d="M796.03,1895.44c-5.2-70.51-16.71-272.69-34.07-321.24-76.65-9.78-201.24-14.75-268.2.13-1.78,67.01-11.4,220.91-18.62,322.96,33.27,33.04,233.57,51.07,320.89-1.86Z"/>
        <path class="cls-2" d="M551.34,1566.83c1.08,31.12,35.96,59.92,77.5,59.27,41.65-.66,74.99-26.37,74.91-57.55-49.37-3.64-105.27-4.97-152.41-1.72Z"/>
        <path class="cls-17" d="M684.41,1481.08l.84,92.31c.18,19.85-24.9,36.17-56.02,36.46-31.12.28-56.49-15.58-56.67-35.43l-.84-92.31,112.69-1.03Z"/>
        <path class="cls-6" d="M684.71,1513.21c-37.56-6.73-79.76-12.08-112.84-14.99l.45,49.57c13.25,15.98,35.3,27.8,61.45,30.45,19.04,1.93,36.83-1.49,51.45-8.38l-.52-56.65Z"/>
        <g>
          <g>
            <g>
              <path class="cls-17" d="M356.73,1400.12c16.23,38.93,59.83,57.48,88.13,49.48,28.31-8.01,28.98-41.92,18.15-80.1-10.83-38.18-40.98-57.5-70.85-54.65-40.1,3.83-50.69,48.67-35.43,85.26Z"/>
              <path class="cls-15" d="M395.47,1404.53c9.62,15.94,27.95,21.84,40.95,13.18,12.99-8.67,15.73-28.61,6.1-44.55-9.62-15.94-27.95-21.84-40.94-13.18-13,8.66-15.73,28.61-6.11,44.55Z"/>
            </g>
            <g>
              <path class="cls-17" d="M900.4,1400.12c-16.22,38.93-59.82,57.48-88.13,49.48-28.31-8.01-28.98-41.92-18.16-80.1,10.83-38.18,40.98-57.5,70.85-54.65,40.1,3.83,50.68,48.67,35.43,85.26Z"/>
              <path class="cls-15" d="M861.66,1404.53c-9.62,15.94-27.95,21.84-40.95,13.18-12.99-8.67-15.72-28.61-6.1-44.55,9.61-15.94,27.95-21.84,40.94-13.18,13,8.66,15.73,28.61,6.11,44.55Z"/>
            </g>
          </g>
          <path class="cls-5" d="M872.21,1142.75c-7.25-68.25-119.14-118.13-243.05-118.13s-236.04,49.89-243.29,118.13c-2.8,26.34-4.92,93.86,5.44,137.76,26.35,111.73,93.51,170.38,230.43,169.53,2.47-.02,12.14-.02,14.6,0,136.92.85,204.07-57.8,230.43-169.53,10.36-43.9,8.24-111.41,5.44-137.76Z"/>
          <path class="cls-17" d="M832.19,1203.53c-23.95-86.11-104.79-110.63-202.88-111.19h-1.1c-98.38.55-178.91,25.08-202.87,111.19-20.07,72.16,3.68,227.92,31.22,273.92,23.18,38.71,106.73,79.28,170.26,78.86.55,0,3.33,0,3.89,0,63.82.42,147.03-40.19,170.26-78.86,27.48-45.76,51.29-201.74,31.22-273.92Z"/>
          <path class="cls-14" d="M799.76,1405.61c.68,9.74-12.54,18.95-29.54,20.06-17,1.12-31.21-5.84-31.77-15.88-.54-9.75,12.54-18.93,29.54-20.06,16.73-1.11,31.06,5.83,31.77,15.88Z"/>
          <g>
            <path class="cls-7" d="M683.89,1310.58c-15.98,23.9-13.35,50.13,1.13,59.91,21.78,14.72,72.95,18.08,91.68-3.9,18.08-21.22,8.72-59.79-21.74-75.52-26.7-13.79-55.56-3.68-71.06,19.51Z"/>
            <path class="cls-10" d="M778.93,1302.49c-23.88-36.57-80.25-23.13-95.58,8.91,15.88-23.97,45.99-31.8,70.51-18.67,15.07,8.07,26.18,22.58,29.26,38.74,2.5,13.1-.29,27.58-7.8,36.51,8.91-5.84,21.24-38.49,3.62-65.48Z"/>
            <path class="cls-9" d="M720.13,1305.57c-17.85,0-32.33,14.47-32.33,32.33s14.47,32.33,32.33,32.33,32.33-14.47,32.33-32.33-14.47-32.33-32.33-32.33Z"/>
            <path class="cls-8" d="M739.07,1317.55c-4.92,0-8.91,3.99-8.91,8.91s3.99,8.91,8.91,8.91,8.91-3.99,8.91-8.91-3.99-8.91-8.91-8.91Z"/>
          </g>
          <path class="cls-14" d="M457.72,1405.61c-.68,9.74,12.54,18.95,29.54,20.06,17,1.12,31.21-5.84,31.77-15.88.54-9.75-12.54-18.93-29.54-20.06-16.73-1.11-31.06,5.83-31.77,15.88Z"/>
          <path class="cls-21" d="M657.21,1474.22c0,8.26-12.94,8.01-28.91,8.01s-28.91.26-28.91-8.01,12.94-21.93,28.91-21.93,28.91,13.66,28.91,21.93Z"/>
          <path class="cls-10" d="M647.42,1389c-1.12,0-2.21-.85-2.21-1.95-1.39-8.09-7.8-13.38-16.45-13.38s-15.33,5.29-16.45,13.38c-.29,1.39-1.39,2.23-2.78,1.94-1.39-.29-2.23-1.39-1.95-2.78,1.39-10.31,10.04-17.55,21.18-17.55s19.17,6.98,21.18,17.29c.27,1.39-.55,2.52-1.95,2.78l-.59.27Z"/>
          <g>
            <path class="cls-7" d="M573.58,1310.58c15.98,23.9,13.35,50.13-1.13,59.91-21.78,14.72-72.95,18.08-91.68-3.9-18.07-21.22-8.72-59.79,21.74-75.52,26.69-13.79,55.56-3.68,71.06,19.51Z"/>
            <path class="cls-10" d="M478.55,1302.49c23.88-36.57,80.25-23.13,95.58,8.91-15.88-23.97-45.99-31.8-70.51-18.67-15.07,8.07-26.17,22.58-29.26,38.74-2.5,13.1.29,27.58,7.8,36.51-8.91-5.84-21.24-38.49-3.61-65.48Z"/>
            <path class="cls-9" d="M537.34,1305.57c17.85,0,32.33,14.47,32.33,32.33s-14.47,32.33-32.33,32.33-32.33-14.47-32.33-32.33,14.47-32.33,32.33-32.33Z"/>
            <path class="cls-8" d="M518.41,1317.55c4.92,0,8.91,3.99,8.91,8.91s-3.99,8.91-8.91,8.91-8.91-3.99-8.91-8.91,3.99-8.91,8.91-8.91Z"/>
          </g>
          <path class="cls-5" d="M814.06,1230.62c-2.59,1.79-6.35,2.25-9.65,1.65-3.02-.55-5.86-2.17-7.73-4.22-12.41-13.65-43.18-25.51-66.94-22.95-3.49.38-7.19-.14-9.21-1.26-3.31-1.82-4.86-5.01-5.23-8.15-.31-2.67.17-5.64,1.98-7.86s4.63-3.72,7.85-4.24c32.59-5.25,72.75,9.43,89.85,30.55,2.37,2.93,3.11,6.6,2.85,9.36-.26,2.69-1.24,5.6-3.78,7.12Z"/>
          <path class="cls-5" d="M452.21,1230.62c2.59,1.79,6.35,2.25,9.65,1.65,3.02-.55,5.86-2.17,7.73-4.22,12.41-13.65,43.18-25.51,66.94-22.95,3.49.38,7.19-.14,9.21-1.26,3.32-1.82,4.86-5.01,5.23-8.15.31-2.67-.17-5.64-1.98-7.86-1.81-2.22-4.63-3.72-7.85-4.24-32.59-5.25-72.75,9.43-89.85,30.55-2.37,2.93-3.12,6.6-2.85,9.36.26,2.69,1.24,5.6,3.77,7.12Z"/>
          <path class="cls-4" d="M887.03,1135.68c0-7.2-4.35-13.28-10.53-16.31,9.33-14.63,9-37.83-4.14-55.36-11.85-15.81-34.96-17.84-47.27-15.45,1.13-2.27,1.69-4.83,1.69-7.39,0-8.24-7.93-17.42-15.17-15.49,1.27-9.08.43-20.23-11.26-26.34-15.19-7.95-36.25-.49-46.37,13.15-8.16-5.4-18.28-8.8-29.52-8.8-7.87,0-15.46,1.41-21.93,4.26,2.96-7.46,1.07-22.54-14.32-27.88-17.81-6.18-46.5-3.46-62.14,21.06.29-10.23-5.07-19.89-15.18-25.28-15.46-7.95-35.99-2.83-45.82,11.64-3.64,5.12-5.34,10.79-5.34,16.18-7.32-3.68-15.74-5.95-24.46-5.95-19.39-.29-36.25,9.08-44.69,23.01-3.65-8.24-13.21-13.9-24.17-14.2-14.62-.3-26.42,9.36-26.71,21.59,0,5.95,2.8,11.63,7.59,15.61-5.41.11-10.56,6.54-8.31,11.2-16.3-3.69-27.43-3.53-36,3.37-5.78,4.66-4.99,16.87,1.41,22.73-15.08-.71-23.87,4.48-29.4,11.98-7.23,9.8-2.19,22.28,2.9,25.96-9.37,2.78-12.07,25.84,8.98,30.32l-1.19,83.49s4.56,12.21,9.89,13.07c.56-32.09,23.1-66.92,34.01-81.05,9.83,3.12,22.48,1.41,34-6.25,12.08-8.24,18.55-20.15,18.83-30.96,11.35,12.02,41.42-.52,43.08-13.06,8.88,8.34,25.17,10.17,38.38,8.46,18-2.28,30.79-11.29,39.77-18.1,6.48,7.1,20.34,16.39,36.37,16.39,12.36,0,23.04-3.12,30.35-7.66,16.29,11.06,34.61-.83,33.52-11.23,7.59,12.2,17.94,18.91,41.03,22.93,9.24,1.61,20.34.48,25.87-2.25,0,.28-.28.56-.28.56,0,16.48,16.02,29.82,35.98,29.82,4.49,0,8.99-.85,12.93-2.27,16.59,21.86,27.79,50.87,30.09,75.55,1.95-.28,15.22,4.06,21.34,3.4v-76.56c9.1-1.33,16.19-8.66,16.19-17.89Z"/>
        </g>
        <path class="cls-2" d="M394.67,1648.05c18.01,22.15,49.86,56.69,74.42,80.58l-8.71,7.18c-24.83-24.17-56.21-58.2-74.49-80.69,2.68-2.16,5.64-4.54,8.79-7.06Z"/>
        <path class="cls-2" d="M866.2,1648.05c-18.01,22.15-49.85,56.69-74.42,80.58l8.71,7.18c24.83-24.17,56.21-58.2,74.49-80.69-2.68-2.16-5.64-4.54-8.79-7.06Z"/>
      </g>
    </g>
    <rect class="cls-19" x="4.5" y="4.5" width="3046.67" height="2000"/>
    <g>
      <path d="M646.05,114.58l-25.63,221.35h-71.86c-6.58-34.01-12.39-72.7-17.42-116.07-2.3,18.6-7.65,57.29-16.05,116.07h-71.45l-25.77-221.35h55.92l6.08,77.23,5.88,74.66c2.12-38.64,7.43-89.27,15.92-151.89h59.77c.79,6.47,2.89,30.81,6.28,73.01l6.36,84.22c3.27-53.58,8.63-105.99,16.06-157.23h55.92Z"/>
      <path d="M710.99,114.58v49.8c4.74-4.39,9.87-7.68,15.38-9.87,5.51-2.19,11.42-3.29,17.71-3.29,9.66,0,17.89,2.46,24.68,7.38,6.79,4.92,10.94,10.6,12.44,17.02s2.26,18.16,2.26,35.21v125.1h-55.23v-127.7c0-10.57-.53-17.36-1.57-20.37-1.05-3.01-3.4-4.51-7.04-4.51-3.37,0-5.65,1.55-6.84,4.65-1.19,3.1-1.78,9.25-1.78,18.46v129.47h-55.23V114.58h55.23Z"/>
      <path d="M851.82,224.77h-51.82v-12.17c0-14.04,1.62-24.86,4.85-32.47,3.23-7.61,9.73-14.33,19.48-20.17,9.75-5.83,22.42-8.75,38.01-8.75,18.68,0,32.77,3.3,42.25,9.91,9.48,6.61,15.18,14.72,17.09,24.34,1.91,9.62,2.87,29.42,2.87,59.4v91.05h-53.73v-16.17c-3.37,6.48-7.72,11.35-13.06,14.59-5.33,3.24-11.69,4.86-19.07,4.86-9.66,0-18.53-2.71-26.59-8.13s-12.1-17.29-12.1-35.62v-14.9c0-13.58,2.14-22.83,6.43-27.75,4.28-4.92,14.9-10.66,31.86-17.23,18.14-7.11,27.84-11.89,29.12-14.36,1.28-2.46,1.91-7.47,1.91-15.04,0-9.48-.71-15.65-2.12-18.53-1.41-2.87-3.76-4.31-7.04-4.31-3.74,0-6.06,1.21-6.97,3.62-.91,2.42-1.37,8.68-1.37,18.8v19ZM869.32,249.66c-8.84,6.47-13.97,11.89-15.38,16.27-1.41,4.38-2.12,10.66-2.12,18.87,0,9.39.62,15.45,1.85,18.18s3.67,4.1,7.31,4.1,5.72-1.07,6.77-3.21c1.05-2.14,1.57-7.77,1.57-16.88v-37.32Z"/>
      <path d="M1001.8,130.3v28.57h14.9v28.71h-14.9v97.07c0,11.94.62,18.59,1.85,19.96s6.36,2.05,15.38,2.05v29.26h-22.29c-12.58,0-21.56-.52-26.93-1.57-5.38-1.05-10.12-3.46-14.22-7.25-4.1-3.78-6.65-8.11-7.66-12.99-1-4.88-1.5-16.34-1.5-34.38v-92.15h-11.89v-28.71h11.89v-28.57h55.37Z"/>
      <path d="M1214.26,210.97h-57.56v-38.47c0-11.19-.62-18.17-1.85-20.94-1.23-2.77-3.94-4.16-8.13-4.16-4.74,0-7.75,1.69-9.02,5.06-1.28,3.37-1.91,10.66-1.91,21.88v102.81c0,10.76.64,17.77,1.91,21.05,1.28,3.28,4.15,4.92,8.61,4.92s7.09-1.64,8.41-4.93c1.32-3.29,1.98-11.01,1.98-23.16v-27.82h57.56v8.63c0,22.91-1.62,39.16-4.85,48.74-3.24,9.58-10.39,17.98-21.46,25.19-11.07,7.21-24.72,10.82-40.95,10.82s-30.76-3.05-41.7-9.16-18.18-14.56-21.74-25.36-5.33-27.05-5.33-48.74v-64.67c0-15.95.55-27.91,1.64-35.89,1.09-7.97,4.35-15.65,9.78-23.04,5.42-7.38,12.94-13.19,22.56-17.43,9.62-4.24,20.67-6.36,33.15-6.36,16.95,0,30.94,3.28,41.97,9.83,11.03,6.55,18.27,14.73,21.74,24.51,3.46,9.78,5.2,25.01,5.2,45.67v21.03Z"/>
      <path d="M1358.22,218.21v44.43c0,16.32-.82,28.28-2.46,35.89-1.64,7.61-5.15,14.72-10.53,21.33-5.38,6.61-12.28,11.48-20.71,14.63-8.43,3.14-18.12,4.72-29.05,4.72-12.21,0-22.56-1.35-31.04-4.03s-15.06-6.74-19.76-12.17c-4.7-5.42-8.04-11.98-10.05-19.69-2.01-7.7-3.01-19.25-3.01-34.66v-46.48c0-16.86,1.82-30.03,5.47-39.51,3.64-9.48,10.21-17.09,19.69-22.83,9.48-5.74,21.6-8.61,36.37-8.61,12.39,0,23.04,1.85,31.92,5.54s15.74,8.5,20.58,14.42c4.83,5.93,8.13,12.03,9.91,18.32s2.67,15.86,2.67,28.71ZM1302.99,204.54c0-9.3-.5-15.15-1.5-17.57-1-2.41-3.14-3.62-6.43-3.62s-5.47,1.21-6.56,3.62c-1.09,2.42-1.64,8.27-1.64,17.57v81.89c0,8.57.55,14.15,1.64,16.75s3.23,3.9,6.43,3.9,5.45-1.18,6.49-3.55c1.05-2.37,1.57-7.47,1.57-15.31v-83.67Z"/>
      <path d="M1430.96,154.5l-.96,17.26c4.28-6.85,9.39-11.98,15.31-15.41,5.92-3.42,12.67-5.14,20.23-5.14,14.77,0,26.39,6.85,34.86,20.54,4.65-6.85,9.89-11.98,15.72-15.41,5.83-3.42,12.3-5.14,19.41-5.14,9.39,0,17.16,2.28,23.31,6.84,6.15,4.56,10.09,10.14,11.83,16.75,1.73,6.61,2.6,17.34,2.6,32.2v128.93h-53.59v-118.26c0-15.49-.53-25.09-1.57-28.78-1.05-3.69-3.49-5.54-7.31-5.54s-6.45,1.82-7.59,5.47c-1.14,3.65-1.71,13.26-1.71,28.85v118.26h-53.59v-115.25c0-17.77-.43-28.44-1.3-31.99-.87-3.55-3.26-5.33-7.18-5.33-2.46,0-4.56.94-6.29,2.8-1.73,1.87-2.69,4.15-2.87,6.84-.18,2.69-.27,8.41-.27,17.16v125.78h-53.59v-181.43h54.55Z"/>
      <path d="M1717.38,248.43h-71.5v39.24c0,8.2.59,13.49,1.78,15.86,1.18,2.37,3.46,3.55,6.84,3.55,4.19,0,6.99-1.57,8.41-4.72,1.41-3.14,2.12-9.23,2.12-18.25v-23.93h52.36v13.4c0,11.21-.71,19.82-2.12,25.84-1.41,6.02-4.72,12.44-9.91,19.28s-11.78,11.96-19.76,15.38c-7.98,3.42-17.98,5.13-30.01,5.13s-21.97-1.69-30.9-5.06c-8.93-3.37-15.88-8-20.85-13.88-4.97-5.88-8.41-12.35-10.32-19.41-1.91-7.06-2.87-17.34-2.87-30.83v-52.91c0-15.86,2.14-28.37,6.43-37.53,4.28-9.16,11.3-16.18,21.05-21.05,9.75-4.88,20.96-7.31,33.63-7.31,15.49,0,28.28,2.94,38.35,8.82,10.07,5.88,17.13,13.67,21.19,23.38,4.05,9.71,6.08,23.36,6.08,40.95v24.06ZM1662.01,218.9v-13.26c0-9.39-.5-15.45-1.5-18.18-1-2.73-3.05-4.1-6.15-4.1-3.83,0-6.2,1.16-7.11,3.49-.91,2.32-1.37,8.59-1.37,18.8v13.26h16.13Z"/>
      <path d="M1848.22,212.47h-48.95v-9.84c0-8.38-.48-13.69-1.44-15.93-.96-2.23-3.35-3.35-7.18-3.35-3.1,0-5.42,1.03-6.97,3.08-1.55,2.05-2.32,5.13-2.32,9.23,0,5.56.39,9.64,1.16,12.24.77,2.6,3.1,5.45,6.97,8.54,3.87,3.1,11.83,7.61,23.86,13.54,16.04,7.84,26.57,15.22,31.58,22.15,5.01,6.93,7.52,17,7.52,30.21,0,14.77-1.91,25.91-5.74,33.43s-10.23,13.31-19.21,17.36c-8.98,4.05-19.8,6.08-32.47,6.08-14.04,0-26.04-2.19-36.03-6.56s-16.84-10.3-20.58-17.77c-3.74-7.47-5.61-18.78-5.61-33.91v-8.75h48.95v11.48c0,9.75.62,16.09,1.85,19,1.23,2.92,3.67,4.38,7.31,4.38,3.92,0,6.65-.98,8.2-2.94,1.55-1.96,2.32-6.08,2.32-12.37,0-8.66-1-14.08-3.01-16.27-2.1-2.19-12.81-8.66-32.13-19.41-16.22-9.11-26.11-17.38-29.67-24.81-3.55-7.43-5.33-16.25-5.33-26.46,0-14.49,1.91-25.18,5.74-32.06,3.83-6.88,10.32-12.19,19.48-15.93,9.16-3.74,19.8-5.61,31.92-5.61s22.26,1.53,30.69,4.58c8.43,3.05,14.9,7.09,19.41,12.1,4.51,5.01,7.25,9.66,8.2,13.95.96,4.29,1.44,10.98,1.44,20.1v10.53Z"/>
      <path d="M2046.74,114.58v221.35h-50.45l-29.94-100.62v100.62h-48.12V114.58h48.12l32.27,99.67v-99.67h48.12Z"/>
      <path d="M2193.3,248.43h-71.5v39.24c0,8.2.59,13.49,1.78,15.86,1.18,2.37,3.46,3.55,6.83,3.55,4.19,0,6.99-1.57,8.41-4.72,1.41-3.14,2.12-9.23,2.12-18.25v-23.93h52.36v13.4c0,11.21-.71,19.82-2.12,25.84-1.41,6.02-4.72,12.44-9.91,19.28s-11.78,11.96-19.76,15.38c-7.98,3.42-17.98,5.13-30.01,5.13s-21.97-1.69-30.9-5.06c-8.93-3.37-15.88-8-20.85-13.88-4.97-5.88-8.41-12.35-10.32-19.41-1.91-7.06-2.87-17.34-2.87-30.83v-52.91c0-15.86,2.14-28.37,6.43-37.53,4.28-9.16,11.3-16.18,21.05-21.05,9.75-4.88,20.96-7.31,33.63-7.31,15.49,0,28.28,2.94,38.35,8.82,10.07,5.88,17.13,13.67,21.19,23.38,4.05,9.71,6.08,23.36,6.08,40.95v24.06ZM2137.93,218.9v-13.26c0-9.39-.5-15.45-1.5-18.18-1-2.73-3.05-4.1-6.15-4.1-3.83,0-6.2,1.16-7.11,3.49-.91,2.32-1.37,8.59-1.37,18.8v13.26h16.13Z"/>
      <path d="M2320.86,154.5l-22.01,86.68,26.66,94.75h-53.7c-5.33-23.93-9.38-44.53-12.13-61.8-3.68,21.56-7.68,42.16-12,61.8h-46.18l23.79-94.75-23.79-86.68h46.18c7.45,37.08,11.45,58.14,12,63.16,5.33-30.96,9.38-52.02,12.13-63.16h49.05Z"/>
      <path d="M2390.99,130.3v28.57h14.9v28.71h-14.9v97.07c0,11.94.62,18.59,1.85,19.96s6.36,2.05,15.38,2.05v29.26h-22.29c-12.58,0-21.56-.52-26.93-1.57-5.38-1.05-10.12-3.46-14.22-7.25-4.1-3.78-6.65-8.11-7.66-12.99-1-4.88-1.5-16.34-1.5-34.38v-92.15h-11.89v-28.71h11.89v-28.57h55.37Z"/>
      <path d="M2474.94,185.95h-55.23c.18-19.41,1.82-33.59,4.92-42.52,3.1-8.93,9.82-16.75,20.17-23.45,10.34-6.7,23.54-10.05,39.58-10.05,11.57,0,21.69,1.82,30.35,5.47,8.66,3.65,15.54,8.73,20.64,15.24,5.1,6.52,8.84,13.56,11.21,21.12,2.37,7.57,3.55,19.41,3.55,35.55v27.07c0,12.3-1.14,22.2-3.42,29.67-2.28,7.47-7.25,14.04-14.9,19.69-7.66,5.65-16.63,8.48-26.93,8.48-13.4,0-23.38-5.24-29.94-15.72v23.79h-51.54v-60.84h50.31c.18,8.39,3.19,12.58,9.02,12.58,4.56,0,7.45-1.85,8.68-5.54s1.85-12.74,1.85-27.14v-36.78c0-8.11-.57-13.56-1.71-16.34-1.14-2.78-3.4-4.17-6.77-4.17-4.19,0-6.88,1.85-8.07,5.54-1.19,3.69-1.78,12.01-1.78,24.95v13.4ZM2474.94,291.63v44.3h-51.54v-44.3h51.54Z"/>
    </g>
  </g>
</svg>