<?xml version="1.0" encoding="UTF-8"?>
<svg id="Layer_2" xmlns="http://www.w3.org/2000/svg" viewBox="0 0 3060.88 1582.08">
  <defs>
    <style>
      .cls-1, .cls-2 {
        fill: #fff;
      }

      .cls-3 {
        fill: #b24d14;
      }

      .cls-4 {
        fill-rule: evenodd;
      }

      .cls-4, .cls-5 {
        fill: #300c07;
      }

      .cls-6 {
        fill: #280202;
        opacity: .3;
      }

      .cls-7 {
        fill: #f9feff;
      }

      .cls-8 {
        fill: #fefffe;
      }

      .cls-9 {
        fill: #461d14;
      }

      .cls-10 {
        fill: #701608;
      }

      .cls-11 {
        fill: #8c8c8c;
      }

      .cls-12 {
        fill: #fa0;
      }

      .cls-13 {
        fill: #ef8f6f;
      }

      .cls-2 {
        opacity: .74;
      }

      .cls-14 {
        fill: #c1411a;
      }

      .cls-15 {
        fill: #994710;
      }

      .cls-16 {
        fill: #ef3f3f;
      }

      .cls-17 {
        fill: #cc6a1f;
      }

      .cls-18 {
        fill: #ffc408;
      }

      .cls-19 {
        fill: #a5430c;
      }

      .cls-20 {
        fill: #5b0000;
      }
    </style>
  </defs>
  <g id="background">
    <g id="DONE">
      <path class="cls-16" d="M459,153.72c-17.08-3.82-26.5-22.49-19.07-38.33,6.54-13.94,15.98-25.44,28.32-34.53,18.24-13.47,41.32-20.2,69.25-20.2,34.1,0,60.68,8.77,79.77,26.31,16.42,15.3,24.63,35.01,24.63,59.14,0,15.57-4.07,29.96-12.21,43.15-7.58,11.93-19.65,24.98-36.2,39.15-16.84,14.73-27.5,27.5-31.99,38.31-3.1,7.33-4.97,17.7-5.63,31.12-.26,5.3-4.57,9.5-9.88,9.5h-24.91c-5.46,0-9.89-4.43-9.89-9.89,0-21.05,2.95-37.82,8.84-50.31,5.05-10.8,14.38-23.08,28-36.83,15.01-15.01,24.9-27.36,29.67-37.04,4.07-8,6.1-17.05,6.1-27.15,0-13.47-4.56-24.06-13.68-31.78-8.14-7.02-18.87-10.52-32.21-10.52-16.13,0-28.9,5.68-38.3,17.05-3.73,4.59-6.7,9.86-8.91,15.81-4.75,12.82-18.37,20.04-31.7,17.06ZM563.39,372.16c0,16.04-13,29.04-29.05,29.04h-3.15c-16.04,0-29.05-13-29.05-29.04s13-29.05,29.05-29.05h3.15c16.04,0,29.05,13,29.05,29.05Z"/>
      <g>
        <path class="cls-11" d="M1761.93,177.89v-47.06h-25.24c-2.47-10.2-6.51-19.71-11.84-28.42l17.89-17.89-33.27-33.27-17.89,17.88c-8.72-5.32-18.23-9.38-28.44-11.85v-25.22h-47.06v25.22c-10.2,2.47-19.72,6.52-28.44,11.85l-17.89-17.88-33.27,33.27,17.89,17.89c-5.32,8.71-9.37,18.23-11.84,28.42h-25.24v47.06h25.24c2.47,10.2,6.51,19.71,11.84,28.42l-17.89,17.89,33.27,33.27,17.89-17.88c8.72,5.33,18.23,9.38,28.44,11.84v25.23h47.06v-25.23c10.2-2.47,19.72-6.51,28.44-11.84l17.89,17.88,33.27-33.27-17.89-17.89c5.32-8.71,9.37-18.23,11.84-28.42h25.24ZM1712.12,127.47l-29.1,7.14c-7.54-16.5-24.11-28.05-43.4-28.05-.89,0-1.71.21-2.58.26l-7.13-29.06c3.22-.41,6.39-.98,9.71-.98,4.35,0,8.55.59,12.7,1.28,3.69.7,7.3,1.62,10.82,2.75,4.13,1.32,8.07,2.93,11.87,4.89,14.29,7.39,25.88,18.98,33.27,33.27,1.43,2.76,2.75,5.55,3.84,8.49ZM1639.62,184.51c-16.62,0-30.15-13.52-30.15-30.15s13.53-30.15,30.15-30.15,30.15,13.52,30.15,30.15-13.53,30.15-30.15,30.15ZM1570.96,118.98c7.39-14.3,18.97-25.89,33.27-33.27,2.77-1.43,5.56-2.75,8.51-3.85l7.14,29.1c-16.5,7.54-28.05,24.11-28.05,43.41,0,.88.21,1.71.26,2.58l-29.06,7.13c-.41-3.21-.98-6.39-.98-9.71,0-4.35.59-8.55,1.28-12.71.7-3.69,1.62-7.3,2.75-10.82,1.32-4.12,2.93-8.06,4.89-11.85ZM1567.11,181.25l29.1-7.14c7.54,16.5,24.11,28.05,43.41,28.05.88,0,1.71-.21,2.58-.26l7.13,29.06c-3.21.41-6.39.98-9.71.98-4.35,0-8.55-.59-12.71-1.28-3.69-.7-7.3-1.62-10.82-2.75-4.13-1.32-8.07-2.93-11.87-4.89-14.29-7.39-25.88-18.98-33.27-33.27-1.43-2.76-2.75-5.55-3.84-8.49ZM1708.28,189.74c-7.39,14.3-18.97,25.89-33.27,33.27-2.77,1.43-5.56,2.75-8.51,3.85l-7.14-29.1c16.5-7.54,28.05-24.11,28.05-43.4,0-.89-.21-1.71-.26-2.58l29.06-7.13c.41,3.22.98,6.39.98,9.71,0,4.35-.59,8.55-1.28,12.7-.7,3.69-1.62,7.3-2.75,10.82-1.32,4.12-2.93,8.06-4.89,11.85Z"/>
        <path class="cls-11" d="M1519.1,299.83l19.46-2.91-5.24-34.9-19.45,2.91c-3.29-8.41-7.97-15.99-13.68-22.63l11.74-15.88-28.4-20.98-11.73,15.87c-8.02-3.51-16.63-5.76-25.63-6.44l-2.91-19.46-34.93,5.24,2.92,19.46c-8.4,3.29-15.97,7.96-22.61,13.67l-15.87-11.74-21,28.38,15.89,11.75c-3.52,8.03-5.77,16.64-6.45,25.64l-19.46,2.91,5.24,34.9,19.45-2.91c3.29,8.41,7.97,15.99,13.68,22.63l-11.74,15.88,28.4,20.98,11.73-15.87c8.02,3.51,16.64,5.76,25.63,6.44l2.92,19.47,34.93-5.24-2.92-19.46c8.4-3.29,15.97-7.96,22.61-13.67l15.87,11.74,21-28.38-15.89-11.74c3.51-8.03,5.76-16.64,6.44-25.64ZM1464.76,338.9c-2.54,1.39-5.21,2.6-7.99,3.6-2.89.98-5.86,1.82-8.99,2.29-3.12.47-6.21.54-9.26.45-2.94-.13-5.84-.52-8.67-1.1-1.43-.29-2.84-.6-4.23-1.01-11.63-3.44-21.68-10.87-28.37-20.99-.8-1.21-1.5-2.46-2.2-3.75-1.39-2.53-2.59-5.19-3.58-7.95-.98-2.89-1.82-5.86-2.29-8.99-.47-3.13-.54-6.21-.45-9.27.14-2.94.52-5.83,1.1-8.66.29-1.44.6-2.85,1.01-4.24,3.43-11.62,10.86-21.66,20.96-28.35,1.21-.8,2.46-1.51,3.73-2.2,2.55-1.39,5.21-2.6,7.99-3.6,2.89-.99,5.86-1.82,8.99-2.29,3.12-.47,6.21-.54,9.26-.45,2.95.13,5.85.51,8.69,1.1,1.42.29,2.81.59,4.19,1,11.64,3.43,21.69,10.87,28.39,20.99.8,1.2,1.5,2.45,2.19,3.73,1.39,2.54,2.6,5.2,3.59,7.98.99,2.89,1.82,5.86,2.29,8.98.47,3.12.54,6.21.45,9.26-.13,2.95-.52,5.84-1.1,8.68-.29,1.42-.59,2.82-1,4.2-3.43,11.64-10.86,21.69-20.98,28.38-1.2.8-2.45,1.5-3.73,2.19Z"/>
        <path class="cls-11" d="M1479.92,105.68c.11-5.49-.62-11.01-2.31-16.4l11.09-6.57-12-20.24-11.08,6.56c-3.91-4.08-8.41-7.37-13.28-9.91l3.2-12.51-22.8-5.84-3.2,12.51c-5.48-.11-11,.62-16.38,2.31l-6.56-11.08-20.27,12,6.56,11.08c-4.07,3.91-7.37,8.41-9.9,13.27l-12.52-3.2-5.84,22.8,12.52,3.2c-.12,5.49.62,11.01,2.31,16.4l-11.08,6.57,12,20.24,11.08-6.56c3.92,4.08,8.41,7.38,13.28,9.91l-3.2,12.51,22.8,5.84,3.2-12.52c5.48.11,11-.62,16.38-2.31l6.56,11.08,20.27-12-6.57-11.08c4.07-3.91,7.37-8.41,9.9-13.27l12.52,3.21,5.84-22.8-12.52-3.2ZM1440.03,124.06c-10.71,6.35-24.53,2.8-30.88-7.9-6.35-10.71-2.8-24.53,7.9-30.88,10.71-6.35,24.53-2.8,30.88,7.9,6.35,10.71,2.8,24.53-7.9,30.88Z"/>
      </g>
      <g>
        <path class="cls-18" d="M2343.88,230.78c.32,5.43,4.79,9.9,10.22,9.59l69.97-1.92c5.43,0,9.59-4.47,9.59-9.9-.32-5.43-4.79-9.59-10.22-9.59l-69.97,1.92c-5.43,0-9.58,4.79-9.58,9.9ZM2790.52,133.65c2.81,5.46.32,10.86-4.79,13.1l-81.15,37.7c-4.79,2.24-10.48-.03-12.78-4.79-2.49-5.14-.32-10.86,4.47-13.1l81.15-37.7c4.79-2.24,10.48-.29,13.1,4.79ZM2652.18.43c5.72,1.69,7.99,7.35,6.39,12.46l-27.8,84.98c-1.6,5.11-7.35,7.99-12.46,6.07-5.11-1.6-7.99-7.03-6.07-12.14l27.79-84.98c1.6-5.11,7-7.9,12.14-6.39ZM2718,68.16c4.15,3.51,4.47,9.9.64,13.74l-47.6,51.44c-3.83,3.83-9.9,4.15-13.74.32-4.15-3.52-4.47-9.9-.64-13.74l47.6-51.44c3.83-3.83,9.9-4.15,13.74-.32ZM2335.25,133.65c-2.81,5.46,0,10.86,4.79,13.1l81.15,37.7c4.79,2.24,10.54,0,13.1-4.79,2.24-5.11,0-10.86-4.79-13.1l-81.15-37.7c-4.79-2.24-10.48-.29-13.1,4.79ZM2473.59.43c-5.73,1.64-7.99,7.35-6.39,12.46l27.8,84.98c1.6,5.11,7.35,7.99,12.46,6.07,5.11-1.6,7.99-7.03,6.39-12.14l-28.11-84.98c-1.6-5.11-6.7-7.94-12.14-6.39ZM2407.77,68.16c-4.15,3.51-4.15,9.9-.64,13.74l47.6,51.44c3.83,3.83,9.9,4.14,14.06.32,3.83-3.52,4.15-9.9.32-13.74l-47.6-51.44c-3.52-3.83-9.9-4.15-13.74-.32ZM2561.45,3.62c5.43,0,9.58,4.47,9.58,9.9v69.97c0,5.43-4.15,9.9-9.58,9.9s-9.9-4.47-9.9-9.9V13.53c0-5.43,4.47-9.9,9.9-9.9ZM2781.89,230.78c0,5.43-4.79,9.9-10.22,9.59l-69.96-1.92c-5.43,0-9.59-4.47-9.59-9.9.32-5.43,4.79-9.59,10.22-9.59l69.97,1.92c5.43,0,9.58,4.79,9.58,9.9ZM2775.82,322.47c-2.29,5.41-7.99,7.03-12.78,4.79l-81.15-37.7c-5.11-2.24-6.97-7.96-4.79-12.78,2.3-5.08,7.99-7.35,12.78-5.11l81.15,37.7c4.79,2.24,6.97,7.96,4.79,13.1ZM2349.95,322.47c2.29,5.41,7.99,7.03,13.1,4.79l81.15-37.7c4.79-2.24,7.09-8.02,4.79-12.78-2.49-5.15-8.31-7.35-13.1-5.11l-81.15,37.7c-4.79,2.24-6.97,7.96-4.79,13.1Z"/>
        <path class="cls-18" d="M2574.75,374.52h-34.16c0,4.69,7.59,8.49,17.19,8.49s16.97-3.8,16.97-8.49ZM2593.95,353.31h-70.11c-2.68,0-4.91,2.23-4.91,5.13v3.8c0,2.68,2.23,5.13,4.91,5.13h70.11c2.68,0,5.14-2.45,5.14-5.13v-3.8c0-2.9-2.46-5.13-5.14-5.13ZM2593.95,331.65h-70.11c-2.68,0-4.91,2.45-4.91,5.13v3.8c0,2.9,2.23,5.13,4.91,5.13h70.11c2.91,0,5.14-2.23,5.14-5.13v-3.8c0-2.68-2.23-5.13-5.14-5.13ZM2656.47,216.66c0-52.69-42.65-95.34-95.34-95.34s-95.35,42.65-95.35,95.34c0,34.17,18.09,64.31,45.33,81.06v26.57h98.25v-25.46c28.13-16.52,47.11-47.11,47.11-82.17Z"/>
        <path class="cls-1" d="M2587.17,237.23c-2.69-3.81-6.7-6.35-11.29-7.14-4.57-.82-9.21.25-13.02,2.93-.63.44-1.16.97-1.71,1.48-2.17-4.6-6.09-8.5-11.31-10.61-10.55-4.24-22.42.36-26.45,10.29-4.01,9.94,1.32,21.5,11.88,25.78,2.65,1.06,5.41,1.6,8.15,1.6,2.52,0,5.04-.45,7.41-1.36,1.13-.43,2.17-.98,3.17-1.58v65.66h7.23v-64.12c3.26,2.95,7.44,4.55,11.7,4.55,3.47,0,6.99-1.03,10.03-3.17,3.81-2.68,6.35-6.69,7.15-11.29.79-4.59-.25-9.22-2.94-13.02ZM2548.26,253.45c-3.26,1.21-6.88,1.19-10.27-.19-6.87-2.78-10.41-10.12-7.89-16.36,1.87-4.61,6.53-7.36,11.61-7.36,1.79,0,3.63.34,5.42,1.06,6.86,2.78,10.4,10.12,7.88,16.36-1.21,2.98-3.6,5.28-6.75,6.49ZM2578.8,255.63c-4.6,3.25-10.99,2.14-14.24-2.46-1.57-2.23-2.18-4.94-1.71-7.64.46-2.68,1.94-5.03,4.17-6.6,1.74-1.22,3.78-1.87,5.87-1.87.59,0,1.18.05,1.77.15,2.68.46,5.03,1.94,6.6,4.17,1.57,2.23,2.18,4.94,1.72,7.63-.47,2.69-1.95,5.04-4.18,6.61Z"/>
      </g>
      <g>
        <path class="cls-17" d="M2997.48,1105.52c2.76-4.39-52.93-30.8-56.08-26.69-47.11,61.46-140.89,143.82-157.09,158.87,0,0,48.87,42.44,91.3,31.82,33.78-8.46,85.37-106.05,121.86-163.99Z"/>
        <path class="cls-12" d="M2309.13,1328.23c18.35,22.04,127.88,40.28,129.62,37.17,31.13-55.77,62.02-183.42,62.29-186.45-55.6,2.52-82.89,8.82-94.53,13.71-29.09,22.13-63.57,83.22-97.38,135.56Z"/>
        <path class="cls-12" d="M2845.2,1177.24c4.16,30.42,5.46,91.81,7.78,123.57-65.62,8.95-119.27,12.76-123.67,10.65-45.78-21.96-49.86-122.56-51.86-128.93,32.99.74,103.59,1.52,167.75-5.29Z"/>
        <path class="cls-12" d="M2760.86,1543.56c-5.77-78.26-18.55-302.65-37.82-356.53-85.07-10.85-223.36-16.38-297.67.15-1.98,74.38-12.65,245.18-20.66,358.44,36.93,36.67,259.23,56.69,356.15-2.06Z"/>
        <path class="cls-2" d="M2495.73,1178.84c1.2,34.54,39.91,66.5,86.02,65.78,46.23-.73,83.23-29.27,83.14-63.87-54.79-4.03-116.83-5.52-169.16-1.91Z"/>
        <path class="cls-17" d="M2643.43,1083.68l.94,102.45c.2,22.03-27.64,40.15-62.17,40.46-34.54.32-62.7-17.29-62.9-39.32l-.94-102.45,125.07-1.14Z"/>
        <path class="cls-6" d="M2518.97,1152.43c11.04,22.98,38.49,41.03,72.32,44.45,19.45,1.97,37.65-1.42,52.71-8.32.07-.82.37-1.61.36-2.44l-.52-56.97c-42.11-7.53-89.99-13.43-125.23-16.23l.36,39.51Z"/>
        <g>
          <path class="cls-17" d="M2944.86,997.11c15.91-34.78,45.58-107.82,54.03-104.25,24.96,10.57,4.75,63.18-10.68,96.05-1.69,3.61-3.23,6.85-4.7,9.91,28.25,21.99,54.55,54.46,71.5,63.19-24.67,39.89-43.59,54.65-57.23,58.5-24.93,7.03-56.43-2.57-71.15-30.42-10.94-20.69-14.16-37.96-9.13-78.87,6.78-3.13,19.1-6.62,27.38-14.11Z"/>
          <path class="cls-6" d="M2963.01,1080.21c29.19,26.6,65.92,13.93,80.68-13.65-7.07-3.52-45.81-53.14-48.41-92.06-27.31-1.19-42.83,54.03-51.74,50.83,17.16,10.95,27.73,32.3,19.47,54.88Z"/>
          <path class="cls-17" d="M2969.89,999.11c9.48-18.01,24.55-28.71,33.67-23.91,8.22,4.32,8.73,19.75,1.84,35.93,10.6-10.41,22.7-14.84,29.81-9.81,7.65,5.42,6.97,19.91-.83,34.45,10.02-4.29,19.34-4.3,23.85,1.02,6.66,7.86.35,24.15-14.08,36.38-14.44,12.23-31.54,15.77-38.2,7.9-3.65-4.31-3.29-11.17.06-18.49-5.21,1.71-9.99,1.6-13.52-.9-6.59-4.66-7-16.07-2.02-28.42-7.52,7.08-15.52,10.12-21.21,7.13-9.12-4.8-8.83-23.29.64-41.29Z"/>
          <path class="cls-6" d="M2985.38,1009.95c.83,11.5-4.39,28.35-22.27,28.29-16.55-.06-37.9-11.37-38.73-22.88-.83-11.5,12.96-21.87,30.8-23.15,17.84-1.28,29.37,6.24,30.2,17.74Z"/>
          <path class="cls-17" d="M2985.38,1009.95c.79,10.94-13.85,20.91-32.68,22.27s-34.75-6.42-35.54-17.36c-.79-10.94,13.85-20.91,32.68-22.27,18.84-1.36,34.75,6.42,35.54,17.36Z"/>
        </g>
        <path class="cls-2" d="M2318.35,1313.79c26.84,16.85,70.7,48.87,100.34,72.7l7.84-9.79c-29.98-24.09-74.34-56.44-101.58-73.54-2.02,3.24-4.24,6.82-6.59,10.63Z"/>
        <path class="cls-17" d="M2530.93,1420.12c5.16-.49,9.83-61.51,4.65-61.47-77.44.62-192.11-18.24-213.94-21.58,0,0-11.25,58.19,23.27,83.79,27.48,20.39,117.91,5.78,186.02-.75Z"/>
        <g>
          <path class="cls-19" d="M2616.55,1275.13c8.35,5.69-5.49,24.5-23.08,30.89-17.59,6.4-49.44,10.19-52.89.69,5.63-10.14,58.79-43.28,75.97-31.58Z"/>
          <path class="cls-17" d="M2600.46,1352.2c10.11-3.71,32.31-13.91,38.92-1.71,2.72,5.03-17.43,14.09-36.53,23.01-6.39,2.98-9.28,1.53-29.17,5.48-.04,1.93,10.49,3.04,23.23.39,6.94-1.44,24.55-18.23,34.83-4.1,1.76,2.42-22.96,18.83-28.8,22.59-9.31,6-68.35,22.91-72.01,22.26-15.38-2.7-26.62-15.4-28.71-36.25.26-16.52,16.59-59.72,37.82-83.95,20.02-7.75,34.41-10.66,49.28-14.08,41.97-.74,61.79-2.96,61.11,5.22-1.64,19.57-35.46,19.51-52.69,21.52-13.54,2.75-27.87,8.41-34.72,11.6-.46,3.48,22.57-4.08,35.74-6.72,10.97-1.49,49.58-3.97,49.46,3.42-.3,19.86-18.02,14.79-46.17,21.52-10.96,3.4-30.83,11.79-31.71,13.72,2.81,2.25,9.09.44,30.1-3.92Z"/>
        </g>
        <g>
          <g>
            <g>
              <path class="cls-17" d="M2281.84,995.83c18.01,43.21,66.4,63.8,97.81,54.92,31.42-8.88,32.16-46.52,20.15-88.9-12.01-42.38-45.48-63.82-78.64-60.65-44.5,4.25-56.26,54.02-39.33,94.63Z"/>
              <path class="cls-15" d="M2324.84,1000.71c10.68,17.69,31.03,24.24,45.45,14.63,14.42-9.62,17.45-31.75,6.77-49.44-10.67-17.69-31.02-24.24-45.44-14.63-14.43,9.61-17.46,31.75-6.78,49.44Z"/>
            </g>
            <g>
              <path class="cls-17" d="M2885.25,995.83c-18.01,43.21-66.4,63.8-97.82,54.92-31.42-8.88-32.16-46.52-20.15-88.9,12.01-42.38,45.48-63.82,78.64-60.65,44.5,4.25,56.26,54.02,39.33,94.63Z"/>
              <path class="cls-15" d="M2842.25,1000.71c-10.68,17.69-31.03,24.24-45.45,14.63-14.42-9.62-17.45-31.75-6.77-49.44,10.67-17.69,31.02-24.24,45.44-14.63,14.42,9.61,17.46,31.75,6.78,49.44Z"/>
            </g>
          </g>
          <path class="cls-5" d="M2853.97,710.17c-8.05-75.74-132.24-131.11-269.76-131.11s-261.98,55.37-270.02,131.11c-3.11,29.24-5.46,104.17,6.04,152.89,29.25,124.01,103.79,189.1,255.75,188.16,2.74-.02,13.47-.02,16.21,0,151.97.94,226.5-64.15,255.75-188.16,11.49-48.72,9.14-123.65,6.04-152.89Z"/>
          <path class="cls-17" d="M2809.55,777.63c-26.58-95.57-116.3-122.79-225.17-123.41h-1.22c-109.19.61-198.57,27.84-225.16,123.41-22.28,80.09,4.08,252.96,34.65,304.02,25.73,42.96,118.46,88,188.97,87.53.61,0,3.69,0,4.31,0,70.83.46,163.19-44.6,188.97-87.53,30.5-50.79,56.93-223.91,34.65-304.02Z"/>
          <path class="cls-14" d="M2773.55,1001.91c.76,10.81-13.92,21.03-32.79,22.27-18.86,1.24-34.64-6.49-35.26-17.62-.6-10.82,13.92-21.02,32.79-22.27,18.57-1.23,34.48,6.47,35.26,17.62Z"/>
          <g>
            <path class="cls-7" d="M2644.95,896.44c-17.73,26.53-14.82,55.63,1.25,66.49,24.17,16.33,80.97,20.07,101.75-4.34,20.06-23.55,9.67-66.36-24.13-83.82-29.63-15.3-61.67-4.08-78.87,21.66Z"/>
            <path class="cls-10" d="M2750.44,887.46c-26.5-40.59-89.07-25.67-106.09,9.89,17.62-26.6,51.04-35.3,78.25-20.73,16.73,8.96,29.05,25.07,32.47,43,2.78,14.53-.32,30.62-8.66,40.52,9.89-6.49,23.57-42.72,4.01-72.68Z"/>
            <path class="cls-9" d="M2685.17,890.89c-19.82,0-35.88,16.06-35.88,35.88s16.07,35.88,35.88,35.88,35.88-16.06,35.88-35.88-16.06-35.88-35.88-35.88Z"/>
            <path class="cls-8" d="M2706.19,904.18c-5.46,0-9.89,4.43-9.89,9.89s4.43,9.89,9.89,9.89,9.89-4.43,9.89-9.89-4.43-9.89-9.89-9.89Z"/>
          </g>
          <path class="cls-5" d="M2772.45,810.81c-2.47,2.47-6.49,3.71-10.21,3.71-3.4,0-6.83-1.21-9.28-3.08-16.26-12.46-52.2-19.32-77.64-11.83-3.73,1.1-7.88,1.27-10.31.45-3.98-1.34-6.3-4.51-7.33-7.87-.87-2.85-.93-6.2.61-8.98,1.54-2.78,4.32-4.98,7.74-6.19,34.55-12.18,81.32-4.09,104.17,15.59,3.17,2.73,4.71,6.59,4.96,9.66.24,2.98-.24,6.36-2.71,8.52Z"/>
          <path class="cls-14" d="M2393.93,1001.91c-.76,10.81,13.92,21.03,32.78,22.27,18.87,1.24,34.64-6.49,35.26-17.62.6-10.82-13.92-21.02-32.79-22.27-18.57-1.23-34.48,6.47-35.26,17.62Z"/>
          <g>
            <path class="cls-20" d="M2677.98,1023.84c-3.91-20.36-35.2-15.09-86.32-15.43-2.67-.02-13.08-.02-15.75,0-51.12.34-82.41-4.93-86.32,15.43-7.52,39.22,41.83,82.07,93.74,82.22h.9c51.92-.16,101.27-43,93.75-82.22Z"/>
            <path class="cls-13" d="M2584.23,1106.88h-.9c-16.84-.06-34.3-4.84-50.54-13.77l-.99-.53.84-.74c13.49-12.09,31.66-18.76,51.16-18.76s37.65,6.67,51.17,18.76l.84.74-.99.53c-16.28,8.93-33.77,13.7-50.57,13.77Z"/>
            <path class="cls-1" d="M2583.79,1034.57c-35.72,0-65.46-11.07-69.18-25.77l-.22-.9h138.79l-.22.9c-3.75,14.7-33.49,25.77-69.18,25.77Z"/>
          </g>
          <path class="cls-10" d="M2604.48,983.48c-1.24,0-2.45-.94-2.45-2.16-1.54-8.98-8.66-14.85-18.26-14.85s-17.01,5.88-18.25,14.85c-.32,1.54-1.54,2.47-3.08,2.15-1.54-.32-2.47-1.54-2.16-3.08,1.54-11.45,11.14-19.48,23.51-19.48s21.27,7.75,23.51,19.19c.3,1.54-.61,2.79-2.16,3.08l-.65.3Z"/>
          <g>
            <path class="cls-7" d="M2522.53,896.44c17.73,26.53,14.82,55.63-1.25,66.49-24.17,16.33-80.97,20.07-101.75-4.34-20.06-23.55-9.67-66.36,24.13-83.82,29.63-15.3,61.67-4.08,78.87,21.66Z"/>
            <path class="cls-10" d="M2417.04,887.46c26.5-40.59,89.07-25.67,106.09,9.89-17.62-26.6-51.04-35.3-78.25-20.73-16.73,8.96-29.05,25.07-32.47,43-2.78,14.53.32,30.62,8.66,40.52-9.89-6.49-23.57-42.72-4.01-72.68Z"/>
            <circle class="cls-9" cx="2482.3" cy="926.77" r="35.88" transform="translate(71.73 2026.7) rotate(-45)"/>
            <path class="cls-8" d="M2461.29,904.18c5.46,0,9.89,4.43,9.89,9.89s-4.43,9.89-9.89,9.89-9.89-4.43-9.89-9.89,4.43-9.89,9.89-9.89Z"/>
          </g>
          <path class="cls-5" d="M2395.04,810.81c2.47,2.47,6.49,3.71,10.21,3.71,3.4,0,6.83-1.21,9.28-3.08,16.25-12.46,52.2-19.32,77.64-11.83,3.73,1.1,7.88,1.27,10.31.45,3.98-1.34,6.3-4.51,7.33-7.87.87-2.85.93-6.2-.61-8.98-1.54-2.78-4.32-4.98-7.74-6.19-34.55-12.18-81.32-4.09-104.17,15.59-3.17,2.73-4.71,6.59-4.96,9.66-.24,2.98.24,6.36,2.71,8.52Z"/>
          <path class="cls-4" d="M2870.41,702.32c0-8-4.82-14.74-11.69-18.1,10.36-16.24,9.99-41.98-4.6-61.44-13.15-17.54-38.8-19.8-52.47-17.15,1.25-2.52,1.87-5.37,1.87-8.2,0-9.15-8.81-19.33-16.83-17.19,1.41-10.07.47-22.45-12.5-29.24-16.86-8.82-40.23-.54-51.46,14.59-9.05-5.99-20.29-9.77-32.76-9.77-8.74,0-17.16,1.57-24.34,4.73,3.28-8.28,1.19-25.02-15.9-30.94-19.77-6.86-51.61-3.83-68.97,23.37.32-11.35-5.63-22.07-16.85-28.06-17.17-8.82-39.94-3.14-50.85,12.92-4.04,5.68-5.92,11.97-5.92,17.96-8.13-4.09-17.48-6.61-27.16-6.61-21.52-.32-40.23,10.08-49.6,25.54-4.04-9.15-14.66-15.43-26.82-15.76-16.22-.33-29.33,10.39-29.64,23.96,0,6.61,3.11,12.91,8.42,17.33-6,.12-11.71,7.26-9.22,12.43-18.09-4.1-30.44-3.92-39.96,3.75-6.42,5.17-5.53,18.73,1.57,25.23-16.73-.79-26.5,4.98-32.63,13.3-8.03,10.88-2.43,24.72,3.21,28.81-10.4,3.09-13.4,28.67,9.97,33.65l-1.32,92.66s5.06,13.56,10.98,14.51c.62-35.62,25.63-74.27,37.75-89.95,10.91,3.47,24.95,1.57,37.74-6.93,13.41-9.15,20.59-22.37,20.9-34.37,12.6,13.34,45.97-.57,47.81-14.49,9.85,9.25,27.94,11.29,42.6,9.39,19.98-2.53,34.17-12.53,44.14-20.09,7.19,7.88,22.57,18.19,40.36,18.19,13.72,0,25.57-3.47,33.69-8.51,18.08,12.27,38.42-.93,37.21-12.46,8.42,13.55,19.91,20.99,45.53,25.45,10.26,1.78,22.57.54,28.72-2.5,0,.32-.32.62-.32.62,0,18.29,17.78,33.1,39.94,33.1,4.98,0,9.98-.95,14.35-2.52,18.41,24.26,30.84,56.46,33.39,83.86,2.17-.32,16.89,4.5,23.69,3.77v-84.97c10.1-1.48,17.97-9.61,17.97-19.86Z"/>
        </g>
        <path class="cls-2" d="M2836.8,1302.93c-4.47-31.37-8.35-85.54-9.29-123.56l-12.54.34c.96,38.44,4.91,93.21,9.45,125.05,3.78-.55,7.95-1.17,12.37-1.83Z"/>
      </g>
      <g>
        <path class="cls-17" d="M1862.03,1358.18c-20.14-70.65-67.66-173.26-76.4-183.79l-93.27,54.21c4.67,22.82,77.69,163.99,98.54,179.44,19.84-3.76,86.59,4.33,71.14-49.87Z"/>
        <path class="cls-12" d="M1869.21,1285.38c-25.83,24.39-61.88,44.26-90.25,55.83-43.99-46.33-90.2-195.31-90.63-200.17,34.58-1.15,62.93-1.37,74.56,3.55,22.81,21.86,69.86,88.58,106.32,140.79Z"/>
        <path class="cls-2" d="M1761.05,1345.97c24.03-20.65,67.59-53.08,99.13-74.34l-7.03-10.38c-31.88,21.51-75.91,54.32-100.3,75.28,2.5,2.89,5.27,6.07,8.21,9.44Z"/>
        <path class="cls-12" d="M1443.33,1556.65c98.23,31.8,284.43,39.62,364.02-25.1-14.47-134.96-51.65-337.02-70.62-390.69-147.12-.42-197.27,8.76-286.44,29.14,20.84,129.4,14.77,214.89-6.96,386.64Z"/>
        <path class="cls-2" d="M1688.74,1153.22c-.15-4.51-1.24-8.78-2.65-12.96-46.38.45-115.75,4.81-164.86,12.57-.23,1.97-.91,3.84-.85,5.86,1.14,34.87,39.74,61.91,86.23,60.4,46.49-1.51,83.26-31.01,82.12-65.88Z"/>
        <path class="cls-17" d="M1652.18,1050.6l15.6,101.26c3.35,21.77-21.6,43.69-55.74,48.95-34.14,5.26-64.53-8.14-67.88-29.91l-15.6-101.26,123.62-19.04Z"/>
        <path class="cls-6" d="M1717.26,1091.48c-.14-5.02-1.34-9.79-2.89-14.45-51.66.29-128.97,4.84-183.71,13.26-.27,2.19-1.03,4.28-.97,6.53,1.1,38.85,43.99,69.15,95.79,67.68,51.8-1.47,92.89-34.17,91.78-73.02Z"/>
        <path class="cls-17" d="M1689.25,1442.6c68.29-5.31,111.4-21.58,149.92-37.2,49.31-20,14.08-94.27-21.37-81.3-33.59,18.08-85.46,37.78-138.18,55.49-8.55,2.87.4,63.72,9.64,63.01Z"/>
        <path class="cls-17" d="M1608.58,1462.38c21.56-2.58,45.7-7.86,89.23-21.04,31.5-9.54,32.88-35.63,25.55-51.44-4.21-9.08-46.19-49.33-62.42-53.56-10.71-2.8-32.64-7.58-34.55-5.82-9.24,8.48,3.52,20.22,21.15,25.6,5.03,2.05,9.27,4.84,13.75,12.33-.44,4.19-34.5-7.81-49.87-10.07-12.27-1.81-44.93,7.95-46.01,11.86-2.67,9.62,26.1,8.94,37.79,9.7,4.06.26,15.8,4.47,22.75,8.11-9.1,2.4-26.22,2.94-32.47,4.06-12.02,2.16-38.93,3.34-41.23,11.44-1.8,6.33,15.54,9.41,36.86,9.54,5.17.03,24.36.71,36.87,1.52.07.52-28.51,6.34-32.65,6.21-12.28-.39-28.93-2.46-34.29,8.65-1.47,3.03,25.65,11.13,38.33,10.44,5.66-.31,18.18-.49,33.07-2.31-8.26,3.09-24.14,6.87-27.5,7.63-18.45-3.41-25.95-4.13-30.12,4.13-1.29,2.55,25.47,14.28,35.75,13.05Z"/>
        <path class="cls-17" d="M1670.71,1265.83c-36.64,59.92-57.94,101.4-91.7,140.86-42.23,49.36-114.41-17.05-68.73-61.85,33.55-32.91,70.5-70.23,106.67-115.67,6.17-7.76,59.08,27.97,53.77,36.66Z"/>
        <path class="cls-17" d="M1586.56,1367.05c3.38,4.52,5.35,55.89-44.75,60.72-32.33,3.12-101.95-83.86-115.05-104.11l61.78-65.85c35.92,35.66,61.88,60.9,98.02,109.24Z"/>
        <path class="cls-12" d="M1443.33,1386.46c33.94-14.67,93.8-58.96,111.92-86.9-81.26-112.49-102.66-125.41-105.33-129.58-27.07,14.5-48.15,62.86-50.42,79.43-2.71,19.74,20.33,74.15,43.83,137.05Z"/>
        <g>
          <path class="cls-3" d="M1875.05,911.9c-7.05,39.21-34.45,61.69-55.25,55.85-20.8-5.84-25.07-38.95-21.74-77.04,3.33-38.1,22.9-64.35,43.69-58.42,28.41,8.11,39.92,42.76,33.29,79.61Z"/>
          <path class="cls-5" d="M1842.78,753.98c21,228.85-53.06,304.52-222.59,320.17-166.57,15.37-228.49-32.93-290.47-143.23-32.04-57.02-60.8-172.18-47.79-206.66,30.57-80.97,137.41-136.86,252.48-158.32,167.34-31.21,290.73-4.22,308.37,188.05Z"/>
          <path class="cls-17" d="M1794.92,654.57c7.31,4.81,12.01,12.85,13.72,32,13.18,147.55,26.4,172.21,38.89,265.41,11.92,88.92-70.27,167.97-148.73,184.81-64.55,13.86-151.83,6.86-216.98-37.35-22.87-15.51-42.12-45.59-64.83-79.94-52.79-70.07-96.49-222.05-90.34-255.24,20.61-111.17,69.8-110.04,204.9-134.98,126.58-23.37,180.84-28.98,263.37,25.29Z"/>
          <path class="cls-5" d="M1415.85,841.86c20.48,55.03,32.88,101.32-.78,140.64-39.24,45.83-106.98-74.52-123.79-164.87-16.8-90.36,34.57-168.96,151.07-182.67,59.94-7.06-81.36,59.48-26.5,206.91Z"/>
          <path class="cls-10" d="M1694.78,949.92c-1.23.14-2.22-.37-2.66-1.57-2.47-8.12-9.82-12.59-18.7-11.27-8.89,1.32-14.67,7.89-14.7,15.97.14,1.23-.99,2.29-2.52,2.46-1.23.14-2.29-.99-2.46-2.53.06-10.59,7.79-19.23,19.13-20.83,11.03-1.55,20.72,4.19,24.07,14.73.46,1.2-.33,2.52-1.54,2.98l-.61.07Z"/>
          <g>
            <path class="cls-17" d="M1331.99,1012.07c22.15,44.19,73.22,61.2,104.16,50.77,24.08-8.12,20.19-50.26,6.56-88.82-14.68-41.53-42.07-62.47-75.07-58.03-44.31,5.96-55.36,56.74-35.65,96.08Z"/>
            <path class="cls-15" d="M1373.83,1002.3c6.22,20.25,34.15,34.42,51.4,24.55,5.81-3.32-19.07-68.79-28.73-67.77-21.97,2.32-28.89,22.96-22.67,43.22Z"/>
          </g>
          <g>
            <path class="cls-7" d="M1713.64,861.47c-10.25,28.53-2.94,56.22,12.77,64.35,23.4,12.12,72.15,7.3,85.55-19.5,12.91-25.8-3.45-65.36-35.14-77.49-28.22-10.8-53.32,5.16-63.19,32.63Z"/>
            <path class="cls-10" d="M1801.54,836.9c-29.83-35.14-80.02-11.41-88.03,25.83,10.29-28.51,37.09-41.83,62.93-32.27,15.98,5.91,29.03,19.93,35.12,36.82,4.91,13.64,5.24,29.86-.31,40.41,6.95-7.64,12.12-45.07-9.71-70.78Z"/>
            <path class="cls-9" d="M1802.1,866.27c-3.59-19.14-20.1-32.1-36.87-28.95-16.78,3.15-27.47,21.21-23.88,40.34,3.59,19.14,20.1,32.1,36.87,28.95,16.78-3.15,27.47-21.21,23.88-40.34Z"/>
            <path class="cls-8" d="M1759.88,861.26c-1.01-5.38-5.65-9.03-10.36-8.15-4.71.88-7.72,5.96-6.71,11.35,1.01,5.38,5.65,9.03,10.36,8.15,4.72-.88,7.72-5.96,6.71-11.35Z"/>
          </g>
          <g>
            <path class="cls-7" d="M1589.94,877.13c22.23,22.2,25.17,50.97,11.85,64.5-20.18,20.5-73.98,35.17-98.67,15.59-23.83-18.9-21.88-61.88,7.11-85.61,25.18-20.61,58.26-15.89,79.7,5.52Z"/>
            <path class="cls-10" d="M1486.61,889.04c17.92-44.36,80.83-41.93,104.12-10.78-22.21-22.23-56.07-24.27-79.62-4.9-14.47,11.89-23.13,29.89-22.98,47.68.12,14.38,6.11,29.42,16.09,37.26-10.67-4.29-30.69-36.85-17.6-69.26Z"/>
            <path class="cls-9" d="M1554.15,871.38c-19.24,2.98-32.43,20.99-29.45,40.24,2.98,19.24,20.99,32.43,40.23,29.45,19.24-2.98,32.43-20.99,29.45-40.24-2.98-19.25-20.99-32.43-40.24-29.45Z"/>
            <path class="cls-8" d="M1535.4,887.74c-5.4.83-9.09,5.89-8.26,11.28.84,5.4,5.89,9.09,11.29,8.26,5.4-.84,9.09-5.89,8.26-11.29-.83-5.4-5.89-9.09-11.28-8.26Z"/>
          </g>
          <path class="cls-4" d="M1263.66,755.88c-1.14-9.92,3.57-17.29,10.9-21.71-13.97-14.5-16.63-51.82.98-74.78,14.11-18.39,29.1-23.78,44.57-25.25-1.81-2.33-3.03-5.11-3.61-8.02-1.89-9.38,8.28-19.48,17.63-17.38-2.47-9.41-.78-22.19,11.29-30.08,15.6-10.2,39.33-8.68,53.96,4.51,5.43-8.74,14.77-16.21,30.4-19.96,8.88-2.13,19.22-1.11,27.08,3.01-5.07-7.8-6.39-25.39,9.9-34.99,18.84-11.11,52.09-14.58,75.5,9.71-2.67-11.57,1.21-23.78,11.48-32.23,15.77-12.58,40.28-11.47,54.78,2.74,5.32,4.99,8.54,11.05,9.78,17.18,7.48-5.87,16.54-10.38,26.46-12.38,21.99-4.77,43.31,2.02,56.11,15.93,2.26-10.21,11.84-18.84,24.24-21.68,16.55-3.68,32.19,4.59,35.32,18.43,1.36,6.77-.52,13.87-5.05,19.49,6.18-1.11,12.05,3.3,10.48,10.27,9.81-4.78,21.36-8.48,30.36-2.08,7.02,4.99,9.54,18.05,3.6,26.18,16.99-4.27,29.36,2.06,35.32,11.09,11.55,17.49,10.45,43.73,1.27,53.79,11.29,1.02,22.61,20.78-2.78,34.1,11.02,41.54,13.64,106.76,13.64,106.76,0,0-26.56-41.61-31.8-54.91-2.97-29.51-15.88-63.57-31.4-63.86-12.31,1.11-13.58.85-24.06-4.41-13.24-6.64-19.61-14.13-22.8-23.48-17.92,16.94-50.96,11.3-55.71-2.58-8.19,11.52-26.3,17.34-41.71,18.42-20.99,1.53-37.61-5.79-49.39-11.48,2.03,9.98-4.17,22.69-22.03,27.91-13.47,3.94-27.17.9-36.53-2.58-6.02,14.35-26.53,11.41-25.59-.88-5.84,15.62-.41,28.38-25.75,38.23-10.14,3.94-23.01,5.21-29.94,3.37.07.32.45.57.45.57,6.76,17.22-4.45,33.27-33.29,29.62-11.65,4.81-15.22,58.48-8.45,85.07-21.35,9.68-85.78,29.31-92.89,29.97l-29.5-73.3c-13.12-2.67-21.37-12.38-23.19-28.31Z"/>
          <path class="cls-5" d="M1811.44,737.46c.11,2.92-.88,5.9-3.01,8.03-2.11,2.42-5.64,3.74-8.95,3.87-3.03.11-6.12-.91-8.37-2.61-14.94-11.24-42.44-14.19-64.75-6.06-2.71.99-5.47,1.06-8,.3-3.61-1.08-6.49-3.27-7.97-6.73-1.23-2.87-1.05-5.83.23-8.52,1.27-2.7,3.68-4.83,6.66-6.12,30.73-11.14,68.38-7,89.71,9.8,2.88,2.54,4.35,5.12,4.46,8.05Z"/>
          <path class="cls-14" d="M1553.96,999.15c.85,11.67-14.68,22.31-34.68,23.77-20,1.46-36.91-6.82-37.76-18.49-.85-11.67,14.68-22.31,34.68-23.77,20.01-1.46,36.92,6.82,37.77,18.49Z"/>
          <path class="cls-14" d="M1782.93,960.76c2.6,10.89,18.72,16.37,36.02,12.24,17.29-4.13,29.2-16.3,26.61-27.19s-18.73-16.37-36.02-12.24c-17.3,4.13-29.21,16.3-26.61,27.19Z"/>
          <path class="cls-10" d="M1651.01,1055.23c-.89.04-1.75-.18-2.54-.67-2.05-1.31-2.94-4.19-1.37-6.05,13.12-15.59,30.14-27.5,50.07-26.72,12.32.31,23.08,9.84,28.08,17.87,1.28,2.07.45,4.78-1.67,5.98-2.12,1.19-4.59.35-5.96-1.68-3.47-5.17-11.48-13.09-20.67-13.4-19.6-.69-33.16,11.76-42.46,22.65-.96,1.12-2.11,1.97-3.48,2.04Z"/>
          <path class="cls-5" d="M1557.17,798.77c-3.33-1.07-7.46-.34-10.78,1.36-3.03,1.55-5.53,4.19-6.85,6.98-8.77,18.5-37.62,41.02-63.68,45.97-3.83.73-7.59,2.47-9.38,4.3-2.93,3.01-3.55,6.89-2.93,10.35.53,2.93,2,5.94,4.64,7.71,2.64,1.77,6.12,2.46,9.71,1.97,36.3-4.94,74.22-33.48,85.56-61.43,1.57-3.88,1.18-8.01,0-10.86-1.15-2.76-3.12-5.55-6.31-6.34Z"/>
        </g>
        <g>
          <path class="cls-6" d="M1754.45,1112.54c-12.61-7.48-57.52-13.19-72.31-5.53-21.43,11.11-61.24,34.43-62.03,34.58,0,0-23.34-27.54-38.71-31.35-7.5-1.86-18.94-.65-24.66,3.77-2.96,2.28,13.26,33.51,33.72,73.31,11.54,22.45,7.76,40.19,18.9,48.62,42.64,15.81,56.53-93.95,90.37-103,21.62-5.78,40.92-1.22,56.82-14.38-.26-2.77-.8-5.26-2.09-6.03Z"/>
          <path class="cls-17" d="M1734.76,1197.44c-2.01-4.71-3.73-4.87-12.24,2.05,6.26-9.48,11.63-18.79,2.53-30.37-3.85-4.9-9.92.39-19.2,6.76,5.64-7.98,16.65-15.74,7.58-28.35-3.65-5.07-18.39-.4-27.78,3.7,6.13-4.17,16.72-14.22,25-16.02,20.26-4.4,51.17-4.81,43.07-20.25-2.45-4.67-53.7-10.68-66.48-3.1-18.27,10.83-26.09,15.42-49.78,31.32-8.87,5.95-14.49,15.85-23.73,1.63-14.11-21.69-38.08-39.54-53.49-27.65-6.19,4.77,29.8,37.07,40.04,78.54,6.07,24.57-.78,34.34,7.17,48.48,12.03,21.37,39.17,31.18,52.56,30.4,14.34-.83,34.34-6.79,63.83-45.29,10.07-13.14,15.23-21.7,10.91-31.85Z"/>
        </g>
        <path class="cls-2" d="M1436.92,1364.21c26.01-18.09,72.66-45.91,106.19-63.84l-5.94-11.05c-33.91,18.14-81.06,46.29-107.46,64.66,2.19,3.13,4.62,6.57,7.2,10.23Z"/>
      </g>
      <g>
        <path class="cls-17" d="M118,1233.45c-3.11-4.14,48.24-32.77,51.71-28.92,51.81,57.56,150.94,133.11,168.14,146.97,0,0-43.16,43.91-85.35,35.72-33.6-6.52-93.34-99.1-134.5-153.77Z"/>
        <g>
          <path class="cls-19" d="M83.5,1179.21c-33.67-13.7-63.03-19.48-72.9-7.95,17.11,9.89,86.39,39.44,140.22,69.13,5.48,3.02,21.24-26.54,15.47-34.34-2.41-27.41-35.86-32.8-62.32-71.82-7.57-11.16-14.86-2.2-14.73,4.05.23,11.19,6.42,21.99,13.57,40.74,5.06,13.25-9.85,4.03-19.31.18Z"/>
          <path class="cls-19" d="M0,1196.82c20.56,7.63,51.2,19.15,109.18,42.26,17.16,6.84,26.78-19.51,20.12-22.34-34.53-14.66-113.58-46.82-129.3-19.92Z"/>
          <path class="cls-17" d="M0,1216.45c20.16,8.61,78.96,15.24,136.08,36.79,28.79,10.86,62.67-34.53,30.19-58.32-19.48-14.27-64.61,5.31-81.95,16.46-34.92-5.67-75.61-7.68-84.32,5.07Z"/>
        </g>
        <path class="cls-17" d="M979.22,1233.45c3.11-4.14-48.24-32.77-51.71-28.92-51.81,57.56-150.94,133.11-168.14,146.97,0,0,43.16,43.91,85.35,35.72,33.6-6.52,93.34-99.1,134.5-153.77Z"/>
        <path class="cls-12" d="M833.67,1292.18c-18.02,22.32-61.39,69.66-86.29,85.98-23.84-21.41-76.69-61.32-78.47-64.4-31.97-55.29-48.39-128.62-48.71-131.65,55.63,1.68,85.17,7.6,96.88,12.31,29.42,21.69,73.4,61.42,116.59,97.76Z"/>
        <path class="cls-12" d="M263.5,1289.63c18.35,22.04,64.58,74.74,85.76,86.46,22.75-18.55,72.88-60.27,74.61-63.38,31.13-55.77,46.43-129.34,46.71-132.38-55.6,2.53-82.89,8.83-94.53,13.71-29.09,22.13-69.92,58.58-112.55,95.58Z"/>
        <g>
          <path class="cls-19" d="M1013.53,1179.62c33.67-13.7,63.03-19.48,72.9-7.95-17.11,9.89-86.39,39.44-140.22,69.13-5.48,3.02-21.24-26.54-15.47-34.34,2.41-27.41,35.86-32.8,62.32-71.81,7.57-11.16,14.86-2.2,14.73,4.05-.23,11.18-6.42,21.98-13.57,40.74-5.05,13.24,9.85,4.03,19.31.18Z"/>
          <path class="cls-19" d="M1097.03,1197.23c-20.56,7.63-51.2,19.15-109.18,42.26-17.16,6.84-26.78-19.51-20.12-22.34,34.53-14.66,113.58-46.82,129.3-19.92Z"/>
          <path class="cls-17" d="M1097.03,1216.86c-20.16,8.61-78.96,15.24-136.08,36.79-28.79,10.86-62.67-34.53-30.19-58.32,19.48-14.27,64.61,5.32,81.95,16.46,34.92-5.67,75.61-7.68,84.32,5.07Z"/>
        </g>
        <path class="cls-12" d="M730.4,1544.95c-5.77-78.26-18.55-302.65-37.82-356.53-85.07-10.85-223.36-16.38-297.67.15-1.98,74.38-12.65,245.18-20.66,358.45,36.93,36.67,259.23,56.69,356.15-2.06Z"/>
        <path class="cls-2" d="M458.83,1180.23c1.2,34.54,39.91,66.51,86.01,65.78,46.23-.73,83.23-29.27,83.15-63.87-54.8-4.04-116.83-5.52-169.16-1.91Z"/>
        <path class="cls-17" d="M606.52,1085.07l.94,102.45c.2,22.03-27.64,40.15-62.17,40.46-34.54.31-62.7-17.3-62.9-39.32l-.94-102.45,125.07-1.14Z"/>
        <path class="cls-6" d="M606.85,1120.72c-41.69-7.47-88.53-13.4-125.23-16.63l.5,55.02c14.7,17.73,39.18,30.86,68.2,33.8,21.13,2.14,40.87-1.65,57.1-9.3l-.57-62.88Z"/>
        <g>
          <g>
            <g>
              <path class="cls-17" d="M242.83,995.21c18.01,43.21,66.4,63.8,97.82,54.92,31.42-8.89,32.16-46.52,20.15-88.9-12.01-42.38-45.48-63.82-78.64-60.65-44.5,4.25-56.26,54.02-39.33,94.63Z"/>
              <path class="cls-15" d="M285.83,1000.1c10.68,17.69,31.03,24.24,45.45,14.63,14.42-9.62,17.45-31.75,6.77-49.44-10.67-17.7-31.02-24.24-45.44-14.63-14.42,9.61-17.46,31.75-6.78,49.44Z"/>
            </g>
            <g>
              <path class="cls-17" d="M846.24,995.21c-18.01,43.21-66.4,63.8-97.81,54.92-31.42-8.89-32.16-46.52-20.15-88.9,12.01-42.38,45.48-63.82,78.64-60.65,44.5,4.25,56.25,54.02,39.32,94.63Z"/>
              <path class="cls-15" d="M803.24,1000.1c-10.67,17.69-31.03,24.24-45.45,14.63-14.42-9.62-17.45-31.75-6.77-49.44,10.67-17.7,31.02-24.24,45.44-14.63,14.42,9.61,17.46,31.75,6.78,49.44Z"/>
            </g>
          </g>
          <path class="cls-5" d="M814.96,709.56c-8.05-75.75-132.23-131.11-269.76-131.11s-261.98,55.37-270.02,131.11c-3.11,29.24-5.46,104.17,6.04,152.89,29.25,124,103.78,189.1,255.75,188.16,2.74-.02,13.47-.02,16.21,0,151.97.94,226.5-64.15,255.75-188.16,11.49-48.72,9.14-123.66,6.04-152.89Z"/>
          <path class="cls-17" d="M770.54,777.01c-26.58-95.57-116.3-122.79-225.17-123.41h-1.22c-109.19.61-198.57,27.84-225.16,123.41-22.28,80.09,4.08,252.96,34.65,304.02,25.72,42.96,118.46,88,188.97,87.53.61,0,3.69,0,4.31,0,70.83.47,163.19-44.6,188.97-87.53,30.5-50.79,56.93-223.91,34.65-304.02Z"/>
          <path class="cls-14" d="M734.54,1001.3c.76,10.81-13.92,21.03-32.78,22.27-18.87,1.24-34.64-6.48-35.26-17.62-.6-10.82,13.92-21.01,32.78-22.27,18.57-1.23,34.48,6.47,35.26,17.62Z"/>
          <g>
            <path class="cls-7" d="M605.94,895.83c-17.73,26.53-14.82,55.64,1.25,66.49,24.17,16.33,80.97,20.07,101.75-4.33,20.06-23.56,9.68-66.36-24.13-83.82-29.63-15.3-61.67-4.09-78.87,21.66Z"/>
            <path class="cls-10" d="M711.43,886.85c-26.5-40.59-89.07-25.67-106.09,9.89,17.62-26.6,51.04-35.3,78.25-20.73,16.73,8.95,29.05,25.07,32.47,42.99,2.78,14.53-.32,30.62-8.66,40.52,9.89-6.48,23.57-42.72,4.01-72.68Z"/>
            <path class="cls-9" d="M646.17,890.27c-19.82,0-35.88,16.06-35.88,35.88s16.06,35.88,35.88,35.88,35.88-16.07,35.88-35.88-16.06-35.88-35.88-35.88Z"/>
            <path class="cls-8" d="M667.18,903.56c-5.46,0-9.89,4.43-9.89,9.89s4.43,9.89,9.89,9.89,9.89-4.43,9.89-9.89-4.43-9.89-9.89-9.89Z"/>
          </g>
          <path class="cls-14" d="M354.92,1001.3c-.75,10.81,13.92,21.03,32.79,22.27,18.86,1.24,34.64-6.48,35.26-17.62.6-10.82-13.92-21.01-32.79-22.27-18.56-1.23-34.48,6.47-35.26,17.62Z"/>
          <path class="cls-20" d="M576.33,1077.44c0,9.17-14.37,8.89-32.08,8.89s-32.08.28-32.08-8.89,14.36-24.34,32.08-24.34,32.08,15.16,32.08,24.34Z"/>
          <path class="cls-10" d="M565.47,982.86c-1.24,0-2.45-.94-2.45-2.16-1.54-8.97-8.66-14.85-18.25-14.85s-17.01,5.88-18.26,14.85c-.32,1.54-1.54,2.47-3.08,2.15-1.54-.32-2.47-1.54-2.16-3.08,1.54-11.45,11.14-19.47,23.51-19.47s21.27,7.75,23.51,19.19c.3,1.54-.61,2.79-2.16,3.08l-.65.3Z"/>
          <g>
            <path class="cls-7" d="M483.52,895.83c17.73,26.53,14.82,55.64-1.25,66.49-24.17,16.33-80.97,20.07-101.75-4.33-20.06-23.56-9.67-66.36,24.13-83.82,29.63-15.3,61.67-4.09,78.87,21.66Z"/>
            <path class="cls-10" d="M378.04,886.85c26.5-40.59,89.07-25.67,106.08,9.89-17.62-26.6-51.04-35.3-78.25-20.73-16.73,8.95-29.05,25.07-32.47,42.99-2.78,14.53.32,30.62,8.66,40.52-9.89-6.48-23.57-42.72-4.01-72.68Z"/>
            <path class="cls-9" d="M443.3,890.27c19.82,0,35.88,16.06,35.88,35.88s-16.07,35.88-35.88,35.88-35.88-16.07-35.88-35.88,16.06-35.88,35.88-35.88Z"/>
            <path class="cls-8" d="M422.28,903.56c5.46,0,9.89,4.43,9.89,9.89s-4.43,9.89-9.89,9.89-9.89-4.43-9.89-9.89,4.43-9.89,9.89-9.89Z"/>
          </g>
          <path class="cls-5" d="M750.42,807.08c-2.87,1.99-7.04,2.5-10.71,1.83-3.35-.61-6.5-2.4-8.58-4.69-13.77-15.15-47.92-28.31-74.29-25.48-3.87.42-7.98-.16-10.22-1.39-3.68-2.03-5.4-5.56-5.81-9.05-.35-2.96.19-6.26,2.2-8.72s5.14-4.13,8.72-4.71c36.17-5.83,80.75,10.46,99.72,33.91,2.63,3.25,3.46,7.33,3.16,10.39-.29,2.98-1.37,6.21-4.19,7.9Z"/>
          <path class="cls-5" d="M348.81,807.08c2.87,1.99,7.04,2.5,10.71,1.83,3.35-.61,6.51-2.4,8.58-4.69,13.78-15.15,47.92-28.31,74.29-25.48,3.87.42,7.98-.16,10.22-1.39,3.68-2.03,5.4-5.56,5.81-9.05.35-2.96-.19-6.26-2.2-8.72-2.01-2.46-5.14-4.13-8.71-4.71-36.17-5.83-80.75,10.46-99.72,33.91-2.63,3.25-3.46,7.33-3.16,10.39.29,2.98,1.37,6.21,4.19,7.9Z"/>
          <path class="cls-4" d="M831.41,701.71c0-7.99-4.83-14.74-11.69-18.11,10.36-16.24,9.99-41.98-4.6-61.44-13.15-17.54-38.8-19.8-52.47-17.15,1.25-2.52,1.87-5.37,1.87-8.2,0-9.15-8.8-19.33-16.83-17.19,1.41-10.07.47-22.45-12.5-29.24-16.86-8.82-40.23-.54-51.46,14.59-9.05-5.99-20.29-9.77-32.76-9.77-8.74,0-17.16,1.57-24.34,4.73,3.28-8.28,1.19-25.01-15.9-30.94-19.77-6.86-51.6-3.83-68.97,23.38.32-11.35-5.63-22.08-16.85-28.06-17.16-8.82-39.94-3.14-50.85,12.92-4.04,5.68-5.92,11.97-5.92,17.96-8.12-4.09-17.47-6.61-27.15-6.61-21.52-.32-40.23,10.08-49.6,25.54-4.05-9.15-14.66-15.43-26.83-15.76-16.22-.33-29.32,10.39-29.64,23.96,0,6.61,3.11,12.91,8.42,17.33-6.01.12-11.72,7.26-9.22,12.43-18.09-4.1-30.44-3.92-39.95,3.74-6.42,5.17-5.53,18.73,1.57,25.23-16.73-.79-26.49,4.97-32.63,13.3-8.03,10.88-2.43,24.72,3.21,28.81-10.4,3.09-13.4,28.67,9.96,33.65l-1.32,92.66s5.06,13.55,10.98,14.5c.62-35.61,25.63-74.27,37.75-89.95,10.91,3.47,24.95,1.57,37.74-6.94,13.41-9.15,20.59-22.37,20.9-34.36,12.6,13.34,45.97-.58,47.81-14.49,9.85,9.25,27.94,11.29,42.6,9.39,19.98-2.53,34.17-12.53,44.14-20.09,7.19,7.89,22.57,18.19,40.37,18.19,13.72,0,25.57-3.47,33.69-8.51,18.08,12.27,38.42-.92,37.21-12.46,8.42,13.55,19.91,20.99,45.53,25.45,10.26,1.78,22.57.54,28.72-2.5,0,.32-.32.62-.32.62,0,18.29,17.78,33.1,39.94,33.1,4.98,0,9.98-.95,14.35-2.52,18.41,24.27,30.84,56.46,33.4,83.86,2.17-.32,16.89,4.5,23.69,3.78v-84.98c10.1-1.48,17.97-9.61,17.97-19.86Z"/>
        </g>
        <path class="cls-2" d="M284.95,1270.38c19.99,24.59,55.34,62.92,82.6,89.43l-9.67,7.96c-27.56-26.82-62.39-64.6-82.68-89.56,2.97-2.4,6.26-5.04,9.75-7.84Z"/>
        <path class="cls-2" d="M808.29,1270.38c-19.99,24.59-55.33,62.92-82.59,89.43l9.67,7.96c27.56-26.82,62.39-64.6,82.68-89.56-2.97-2.4-6.26-5.04-9.75-7.84Z"/>
      </g>
    </g>
  </g>
</svg>