<svg width="37" height="37" viewBox="0 0 37 37" fill="none" xmlns="http://www.w3.org/2000/svg">
<rect width="37" height="37" rx="18.5" fill="#E97813"/>
<path d="M6.82173 23V13.5455H13.0817V15.1935H8.82067V17.4464H12.6662V19.0945H8.82067V23H6.82173ZM16.2417 18.9006V23H14.275V15.9091H16.1493V17.1602H16.2324C16.3894 16.7478 16.6525 16.4215 17.0218 16.1815C17.3912 15.9383 17.839 15.8168 18.3652 15.8168C18.8577 15.8168 19.287 15.9245 19.6532 16.1399C20.0195 16.3554 20.3042 16.6631 20.5073 17.0632C20.7104 17.4602 20.812 17.9342 20.812 18.4851V23H18.8453V18.8359C18.8484 18.402 18.7376 18.0634 18.513 17.8203C18.2883 17.5741 17.979 17.451 17.585 17.451C17.3204 17.451 17.0865 17.5079 16.8833 17.6218C16.6833 17.7357 16.5263 17.9019 16.4125 18.1204C16.3017 18.3358 16.2447 18.5959 16.2417 18.9006ZM27.5278 16.2646C27.4909 15.8922 27.3324 15.6029 27.0523 15.3967C26.7722 15.1905 26.3921 15.0874 25.912 15.0874C25.5858 15.0874 25.3103 15.1335 25.0857 15.2259C24.861 15.3151 24.6887 15.4397 24.5686 15.5998C24.4517 15.7598 24.3932 15.9414 24.3932 16.1445C24.387 16.3138 24.4224 16.4615 24.4994 16.5877C24.5794 16.7139 24.6887 16.8232 24.8271 16.9155C24.9656 17.0047 25.1257 17.0832 25.3073 17.1509C25.4888 17.2156 25.6827 17.271 25.8889 17.3171L26.7384 17.5202C27.1508 17.6126 27.5293 17.7357 27.874 17.8896C28.2187 18.0434 28.5173 18.2327 28.7696 18.4574C29.022 18.6821 29.2174 18.9467 29.3559 19.2514C29.4975 19.5561 29.5698 19.9054 29.5729 20.2994C29.5698 20.878 29.4221 21.3796 29.1297 21.8043C28.8404 22.226 28.4218 22.5537 27.874 22.7876C27.3293 23.0185 26.6722 23.1339 25.9028 23.1339C25.1395 23.1339 24.4748 23.0169 23.9085 22.783C23.3453 22.5491 22.9052 22.2029 22.5882 21.7443C22.2742 21.2827 22.1096 20.7118 22.0942 20.0316H24.0285C24.05 20.3486 24.1408 20.6133 24.3009 20.8256C24.464 21.0349 24.681 21.1934 24.9518 21.3011C25.2257 21.4058 25.535 21.4581 25.8797 21.4581C26.2182 21.4581 26.5122 21.4089 26.7615 21.3104C27.0138 21.2119 27.2093 21.0749 27.3477 20.8995C27.4862 20.7241 27.5555 20.5225 27.5555 20.2947C27.5555 20.0824 27.4924 19.9039 27.3662 19.7592C27.2431 19.6146 27.0615 19.4915 26.8215 19.3899C26.5845 19.2884 26.2936 19.196 25.949 19.1129L24.9195 18.8544C24.1224 18.6605 23.493 18.3574 23.0313 17.945C22.5697 17.5326 22.3404 16.977 22.3435 16.2784C22.3404 15.706 22.4927 15.2058 22.8005 14.7781C23.1114 14.3503 23.5376 14.0163 24.0793 13.7763C24.6209 13.5362 25.2365 13.4162 25.9259 13.4162C26.6276 13.4162 27.24 13.5362 27.7632 13.7763C28.2895 14.0163 28.6988 14.3503 28.9912 14.7781C29.2836 15.2058 29.4344 15.7013 29.4436 16.2646H27.5278Z" fill="white"/>
</svg>
